<svg width="22" height="24" viewBox="0 0 22 24" fill="none" xmlns="http://www.w3.org/2000/svg">
<path d="M15.834 0C16.0736 1.46936 15.4418 2.87749 14.5922 3.8979C13.6772 4.97952 12.1304 5.81625 10.6272 5.77542C10.3657 4.38769 11.0629 2.93873 11.9125 1.97955C12.8493 0.897939 14.4615 0.0816369 15.834 0Z" fill="#66247A"/>
<path d="M20.3443 20.5304C21.1068 19.4283 21.39 18.8569 22 17.6121C17.6428 16.0611 16.9457 10.2856 21.2811 8.06118C19.9521 6.53058 18.1003 5.63264 16.3575 5.63264C15.0994 5.63264 14.2357 5.93552 13.4495 6.21122C12.7925 6.44159 12.1895 6.65302 11.4557 6.65302C10.6673 6.65302 9.96789 6.4217 9.23506 6.17932C8.42875 5.91266 7.58209 5.63264 6.53213 5.63264C4.57138 5.63264 2.47995 6.73466 1.15103 8.65301C-0.700755 11.3469 -0.395738 16.408 2.63246 20.7141C3.69995 22.2651 5.15962 23.9793 7.05496 23.9997C7.83538 23.9997 8.35646 23.7833 8.91875 23.5497C9.56509 23.2813 10.2658 22.9903 11.4775 22.9793C12.6874 22.9793 13.3755 23.2762 14.0095 23.5497C14.5627 23.7883 15.0748 24.0092 15.8564 23.9997C17.73 23.9997 19.255 22.0814 20.3443 20.5304Z" fill="#66247A"/>
</svg>
