<svg width="18" height="18" viewBox="0 0 18 18" fill="none" xmlns="http://www.w3.org/2000/svg">
<path d="M12.0314 1.5H5.96858C3.5046 1.5 1.5 3.5046 1.5 5.96858V12.0314C1.5 14.4954 3.5046 16.5 5.96858 16.5H12.0314C14.4954 16.5 16.5 14.4954 16.5 12.0314V5.96858C16.5 3.5046 14.4954 1.5 12.0314 1.5ZM14.991 12.0314C14.991 13.6659 13.6659 14.991 12.0314 14.991H5.96858C4.33406 14.991 3.009 13.6659 3.009 12.0314V5.96858C3.009 4.33404 4.33406 3.009 5.96858 3.009H12.0314C13.6659 3.009 14.991 4.33404 14.991 5.96858V12.0314Z" fill="#B4ADCE"/>
<path d="M9 5.25C6.93225 5.25 5.25 6.93225 5.25 8.99999C5.25 11.0677 6.93225 12.75 9 12.75C11.0678 12.75 12.75 11.0677 12.75 8.99999C12.75 6.93223 11.0678 5.25 9 5.25ZM9 11.2914C7.73449 11.2914 6.70862 10.2655 6.70862 9.00001C6.70862 7.7345 7.73452 6.70862 9 6.70862C10.2655 6.70862 11.2914 7.7345 11.2914 9.00001C11.2914 10.2655 10.2655 11.2914 9 11.2914Z" fill="#B4ADCE"/>
<path d="M12.75 6C13.1642 6 13.5 5.66421 13.5 5.25C13.5 4.83579 13.1642 4.5 12.75 4.5C12.3358 4.5 12 4.83579 12 5.25C12 5.66421 12.3358 6 12.75 6Z" fill="#B4ADCE"/>
</svg>
