<svg width="18" height="18" viewBox="0 0 18 18" fill="none" xmlns="http://www.w3.org/2000/svg">
<path d="M17.25 10.7833V16.8834H13.7135V11.1918C13.7135 9.76204 13.202 8.78627 11.9219 8.78627C10.9447 8.78627 10.3632 9.44386 10.1074 10.08C10.0141 10.3074 9.99006 10.6239 9.99006 10.9422V16.8834H6.45238C6.45238 16.8834 6.50003 7.24371 6.45238 6.24496H9.98971V7.75292C9.98254 7.7642 9.97322 7.77636 9.96646 7.78729H9.98971V7.75292C10.4597 7.02907 11.299 5.99504 13.1776 5.99504C15.5052 5.995 17.25 7.51554 17.25 10.7833ZM2.75183 1.1167C1.54159 1.1167 0.75 1.91052 0.75 2.95441C0.75 3.97556 1.51869 4.79347 2.70487 4.79347H2.7285C3.96217 4.79347 4.72941 3.97572 4.72941 2.95441C4.70616 1.91052 3.96217 1.1167 2.75183 1.1167ZM0.960107 16.8834H4.49644V6.24496H0.960107V16.8834Z" fill="#B4ADCE"/>
</svg>
