<svg width="72" height="65" viewBox="0 0 72 65" fill="none" xmlns="http://www.w3.org/2000/svg">
<path d="M66.0882 9.404C65.8781 9.404 65.5629 9.29893 65.4578 9.08879L64.6173 8.24823C64.3021 7.93302 64.3021 7.3026 64.6173 6.98738C64.9325 6.67217 65.5629 6.67217 65.8781 6.98738L66.7187 7.82795C67.0339 8.14316 67.0339 8.77358 66.7187 9.08879C66.6136 9.29893 66.2984 9.404 66.0882 9.404Z" fill="#66247A"/>
<path d="M71.1332 14.4475C70.923 14.4475 70.6078 14.3424 70.5028 14.1322L69.6622 13.2917C69.347 12.9765 69.347 12.3461 69.6622 12.0308C69.9774 11.7156 70.6078 11.7156 70.923 12.0308L71.7636 12.8714C72.0788 13.1866 72.0788 13.817 71.7636 14.1322C71.6585 14.3424 71.4484 14.4475 71.1332 14.4475Z" fill="#66247A"/>
<path d="M70.2926 9.404C70.0825 9.404 69.7673 9.29893 69.6622 9.08879C69.347 8.77358 69.347 8.14316 69.6622 7.82795L70.5028 6.98738C70.818 6.67217 71.4484 6.67217 71.7636 6.98738C72.0788 7.3026 72.0788 7.93302 71.7636 8.24823L70.923 9.08879C70.818 9.29893 70.5027 9.404 70.2926 9.404Z" fill="#66247A"/>
<path d="M65.2477 14.4475C65.0375 14.4475 64.7223 14.3424 64.6173 14.1322C64.3021 13.817 64.3021 13.1866 64.6173 12.8714L65.4578 12.0308C65.773 11.7156 66.4035 11.7156 66.7187 12.0308C67.0339 12.3461 67.0339 12.9765 66.7187 13.2917L65.8781 14.1322C65.668 14.3424 65.4578 14.4475 65.2477 14.4475Z" fill="#66247A"/>
<path d="M0.945632 25.69C0.420281 25.69 0 25.2697 0 24.7443V24.324C0 23.7987 0.420281 23.3784 0.945632 23.3784C1.47098 23.3784 1.89126 23.7987 1.89126 24.324V24.7443C1.89126 25.2697 1.47098 25.69 0.945632 25.69Z" fill="#66247A"/>
<path d="M0.945632 29.7876C0.420281 29.7876 0 29.3673 0 28.842V28.4217C0 27.8964 0.420281 27.4761 0.945632 27.4761C1.47098 27.4761 1.89126 27.8964 1.89126 28.4217V28.842C1.89126 29.3673 1.47098 29.7876 0.945632 29.7876Z" fill="#66247A"/>
<path d="M0.945632 33.7805C0.420281 33.7805 0 33.3603 0 32.8349V32.4146C0 31.8893 0.420281 31.469 0.945632 31.469C1.47098 31.469 1.89126 31.8893 1.89126 32.4146V32.8349C1.89126 33.3603 1.47098 33.7805 0.945632 33.7805Z" fill="#66247A"/>
<path d="M53.5008 1.80005H23.5008V8.10005C23.5008 9.70005 22.2008 11 20.6008 11H14.3008V21V21.9V22.8V35.3L32.5008 49.7001C33.5008 50.5 35.1008 50.5 36.1008 49.7001L54.3008 35.5V22.8V21.9V21V2.40005C54.2008 2.00005 53.9008 1.80005 53.5008 1.80005ZM44.0008 29.1L34.6008 38.5C34.4008 38.7001 34.2008 38.8 34.0008 38.8C33.8008 38.8 33.5008 38.7001 33.4008 38.5L27.6008 32.7001C27.3008 32.4001 27.3008 31.8 27.6008 31.5C27.9008 31.2001 28.5008 31.2001 28.8008 31.5L33.9008 36.6L42.7008 27.8C43.0008 27.5 43.6008 27.5 43.9008 27.8C44.4008 28.2 44.4008 28.8001 44.0008 29.1ZM34.6008 22C34.6008 22.3 34.4008 22.6 34.1008 22.8C34.0008 22.9 33.8008 22.9 33.7008 22.9H20.0008C19.8008 22.9 19.7008 22.8 19.6008 22.8C19.3008 22.6 19.1008 22.4 19.1008 22V21.9C19.2008 21.5 19.5008 21.1 20.0008 21.1H33.7008C34.1008 21.1 34.5008 21.4 34.6008 21.9C34.6008 22 34.6008 22 34.6008 22ZM20.0008 14H48.3008C48.8008 14 49.2008 14.4 49.2008 14.9C49.2008 15.4 48.8008 15.8 48.3008 15.8H20.0008C19.5008 15.8 19.1008 15.4 19.1008 14.9C19.1008 14.4 19.5008 14 20.0008 14Z" fill="white"/>
<path d="M58.7008 22.8H55.9008V34.1L59.4008 31.4C59.8008 31.1 60.3008 31.2001 60.6008 31.6C60.9008 32 60.8008 32.5 60.4008 32.8L37.1008 51.1C36.3008 51.8 35.2008 52.1 34.2008 52.1C33.2008 52.1 32.1008 51.8 31.3008 51.1L7.80078 32.5C7.40078 32.2 7.40078 31.6 7.70078 31.3C8.00078 30.9 8.60078 30.9001 8.90078 31.2001L12.4008 34V22.8H9.70078C7.00078 22.8 4.80078 25.0001 4.80078 27.7001V58.2001C4.80078 60.9001 7.00078 63.1 9.70078 63.1H58.7008C61.4008 63.1 63.6008 60.9001 63.6008 58.2001V27.7001C63.6008 25.0001 61.4008 22.8 58.7008 22.8ZM19.9008 46.1L9.10078 54.7001C8.90078 54.8 8.70078 54.9001 8.50078 54.9001C8.20078 54.9001 8.00078 54.8 7.80078 54.6C7.50078 54.2 7.60078 53.7001 7.90078 53.4001L18.6008 44.8C19.0008 44.5 19.5008 44.6001 19.8008 44.9001C20.3008 45.2001 20.2008 45.8 19.9008 46.1ZM60.5008 54.6C60.3008 54.8 60.1008 54.9001 59.8008 54.9001C59.6008 54.9001 59.4008 54.8 59.2008 54.7001L48.5008 46.1C48.1008 45.8 48.1008 45.2001 48.4008 44.9001C48.7008 44.5001 49.3008 44.5 49.6008 44.8L60.3008 53.4001C60.7008 53.7001 60.8008 54.2 60.5008 54.6Z" fill="#F8F1FA"/>
<path d="M21.7004 8.1V3L15.4004 9.3H20.5004C21.2004 9.2 21.7004 8.7 21.7004 8.1Z" fill="#F8F1FA"/>
<path d="M58.7 21H55.9V2.4C55.9 1.1 54.8 0 53.5 0H22.8H22.7H22.6C22.3 0 22.1 0.1 21.9 0.3C21.9 0.3 21.8 0.3 21.8 0.4L12.8 9.4C12.8 9.4 12.8 9.5 12.7 9.5C12.5 9.7 12.4 9.9 12.4 10.2V10.3V10.4V21H9.7C6 21 3 24 3 27.7V58.2C3 61.9 6 64.9 9.7 64.9H58.7C62.4 64.9 65.4 61.9 65.4 58.2V27.7C65.3 24 62.4 21 58.7 21ZM63.6 58.2C63.6 60.9 61.4 63.1 58.7 63.1H9.7C7 63.1 4.8 60.9 4.8 58.2V27.7C4.8 25 7 22.8 9.7 22.8H12.5V33.9L9 31.1C8.6 30.8 8.1 30.9 7.8 31.2C7.5 31.6 7.6 32.1 7.9 32.4L31.3 51C32.1 51.7 33.2 52 34.2 52C35.2 52 36.3 51.7 37.1 51L60.5 32.7C60.9 32.4 61 31.8 60.7 31.5C60.4 31.1 59.8 31 59.5 31.3L56 34V22.8H58.8C61.5 22.8 63.7 25 63.7 27.7V58.2H63.6ZM21.7 3V8.1C21.7 8.7 21.2 9.3 20.5 9.3H15.4L21.7 3ZM14.2 21V11H20.5C22.1 11 23.4 9.7 23.4 8.1V1.8H53.5C53.9 1.8 54.1 2.1 54.1 2.4V21V21.9V22.8V35.5L36 49.7C34.9 50.5 33.4 50.5 32.4 49.7L14.2 35.3V22.8V21.9V21Z" fill="#66247A"/>
<path d="M18.7994 44.7001L7.99939 53.4001C7.59939 53.7001 7.59939 54.3001 7.89939 54.6001C8.09939 54.8001 8.29939 54.9001 8.59939 54.9001C8.79939 54.9001 8.99939 54.8001 9.19939 54.7001L19.8994 46.1001C20.2994 45.8001 20.2994 45.2001 19.9994 44.9001C19.6994 44.5001 19.0994 44.4001 18.7994 44.7001Z" fill="#66247A"/>
<path d="M49.5999 44.6999C49.1999 44.3999 48.6999 44.4999 48.3999 44.7999C48.0999 45.1999 48.1999 45.6999 48.4999 45.9999L59.1999 54.5999C59.3999 54.6999 59.5999 54.7999 59.7999 54.7999C60.0999 54.7999 60.2999 54.6999 60.4999 54.4999C60.7999 54.0999 60.6999 53.5999 60.3999 53.2999L49.5999 44.6999Z" fill="#66247A"/>
<path d="M42.7996 27.9001L33.9996 36.6001L28.8996 31.5001C28.5996 31.2001 27.9996 31.2001 27.6996 31.5001C27.3996 31.8001 27.3996 32.4001 27.6996 32.7001L33.4996 38.5001C33.6996 38.7001 33.8996 38.8001 34.0996 38.8001C34.2996 38.8001 34.5996 38.7001 34.6996 38.5001L44.0996 29.1001C44.3996 28.8001 44.3996 28.2001 44.0996 27.9001C43.6996 27.5001 43.0996 27.5001 42.7996 27.9001Z" fill="#66247A"/>
<path d="M19.9996 15.8H48.2996C48.7996 15.8 49.1996 15.4 49.1996 14.9C49.1996 14.4 48.7996 14 48.2996 14H19.9996C19.4996 14 19.0996 14.4 19.0996 14.9C19.0996 15.4 19.4996 15.8 19.9996 15.8Z" fill="#66247A"/>
<path d="M19.5996 22.8001C19.6996 22.9001 19.8996 22.9001 19.9996 22.9001H33.6996C33.8996 22.9001 33.9996 22.8001 34.0996 22.8001C34.3996 22.6001 34.5996 22.4001 34.5996 22.0001V21.9001C34.4996 21.5001 34.1996 21.1001 33.6996 21.1001H19.9996C19.5996 21.1001 19.1996 21.4001 19.0996 21.9001V22.0001C19.0996 22.4001 19.2996 22.6001 19.5996 22.8001Z" fill="#66247A"/>
</svg>
