<svg width="18" height="18" viewBox="0 0 18 18" fill="none" xmlns="http://www.w3.org/2000/svg">
<path d="M0.903867 8.70062L4.77111 10.144L6.26797 14.9579C6.36374 15.2662 6.74076 15.3802 6.991 15.1756L9.14666 13.4182C9.37262 13.2341 9.69447 13.2249 9.93062 13.3964L13.8187 16.2192C14.0864 16.4137 14.4656 16.267 14.5328 15.9436L17.381 2.2432C17.4542 1.88985 17.107 1.59508 16.7706 1.7252L0.899335 7.84786C0.507666 7.99891 0.511078 8.55343 0.903867 8.70062ZM6.02673 9.37565L13.5848 4.72066C13.7206 4.63724 13.8603 4.82091 13.7437 4.92911L7.50614 10.7272C7.28689 10.9313 7.14546 11.2044 7.1054 11.5009L6.89293 13.0755C6.86479 13.2857 6.56945 13.3066 6.51144 13.1031L5.69425 10.2318C5.60066 9.90428 5.73705 9.55445 6.02673 9.37565Z" fill="#B4ADCE"/>
</svg>
