<svg width="17" height="17" viewBox="0 0 17 17" fill="none" xmlns="http://www.w3.org/2000/svg">
<g clip-path="url(#clip0)">
<path d="M8.29788 16.8721C12.8807 16.8721 16.5958 13.157 16.5958 8.57425C16.5958 3.99146 12.8807 0.276367 8.29788 0.276367C3.71509 0.276367 0 3.99146 0 8.57425C0 13.157 3.71509 16.8721 8.29788 16.8721Z" fill="#FBD303"/>
<path d="M12.6292 2.0332H3.96669C3.72359 2.0332 3.51367 2.23208 3.51367 2.48622V14.6623C3.51367 14.9054 3.71255 15.1153 3.96669 15.1153H12.6292C12.8723 15.1153 13.0822 14.9165 13.0822 14.6623V2.48622C13.0822 2.24312 12.8833 2.0332 12.6292 2.0332Z" fill="#F1F3F7"/>
<path d="M11.9558 3.29272H4.65234V5.70144H11.9558V3.29272Z" fill="#6EB1E1"/>
<path d="M11.9558 5.46948H4.65234V5.70153H11.9558V5.46948Z" fill="#5DA3CE"/>
<path d="M6.34285 6.77319H4.65234V8.4637H6.34285V6.77319Z" fill="#DEDEDF"/>
<path d="M9.14949 6.77319H7.45898V8.4637H9.14949V6.77319Z" fill="#DEDEDF"/>
<path d="M11.9561 6.77319H10.2656V8.4637H11.9561V6.77319Z" fill="#DEDEDF"/>
<path d="M6.34285 9.46924H4.65234V11.1598H6.34285V9.46924Z" fill="#DEDEDF"/>
<path d="M9.14949 9.46924H7.45898V11.1598H9.14949V9.46924Z" fill="#DEDEDF"/>
<path d="M11.9561 9.46924H10.2656V11.1598H11.9561V9.46924Z" fill="#DEDEDF"/>
<path d="M6.34285 12.1652H4.65234V13.8557H6.34285V12.1652Z" fill="#DEDEDF"/>
<path d="M9.14949 12.1652H7.45898V13.8557H9.14949V12.1652Z" fill="#DEDEDF"/>
<path d="M11.9561 12.1652H10.2656V13.8557H11.9561V12.1652Z" fill="#DEDEDF"/>
</g>
<defs>
<clipPath id="clip0">
<rect y="0.276367" width="16.5957" height="16.5957" fill="white"/>
</clipPath>
</defs>
</svg>
