<svg width="17" height="17" viewBox="0 0 17 17" fill="none" xmlns="http://www.w3.org/2000/svg">
<g clip-path="url(#clip0)">
<path d="M8.29787 16.6807C12.8807 16.6807 16.5957 12.9656 16.5957 8.38283C16.5957 3.80004 12.8807 0.0849609 8.29787 0.0849609C3.71508 0.0849609 0 3.80004 0 8.38283C0 12.9656 3.71508 16.6807 8.29787 16.6807Z" fill="#EFF3F5"/>
<path d="M12.903 1.47961C13.7838 2.79726 14.2977 4.38098 14.2977 6.0849C14.2977 10.6677 10.5826 14.3828 5.99982 14.3828C4.29593 14.3828 2.71221 13.8689 1.39453 12.9881C2.88274 15.2144 5.4189 16.6807 8.29778 16.6807C12.8806 16.6807 16.5957 12.9656 16.5957 8.38283C16.5957 5.50395 15.1293 2.96779 12.903 1.47961Z" fill="#C9E2E7"/>
<path d="M8.29799 15.1291C12.0238 15.1291 15.0442 12.1087 15.0442 8.38283C15.0442 4.65699 12.0238 1.6366 8.29799 1.6366C4.57215 1.6366 1.55176 4.65699 1.55176 8.38283C1.55176 12.1087 4.57215 15.1291 8.29799 15.1291Z" fill="#CBCBCB"/>
<path d="M9.34194 13.9446C10.0847 13.9446 10.6868 13.3425 10.6868 12.5998C10.6868 11.857 10.0847 11.2549 9.34194 11.2549C8.59919 11.2549 7.99707 11.857 7.99707 12.5998C7.99707 13.3425 8.59919 13.9446 9.34194 13.9446Z" fill="#FC8086"/>
<path d="M9.34192 13.1057C9.62136 13.1057 9.84789 12.8792 9.84789 12.5997C9.84789 12.3203 9.62136 12.0938 9.34192 12.0938C9.06247 12.0938 8.83594 12.3203 8.83594 12.5997C8.83594 12.8792 9.06247 13.1057 9.34192 13.1057Z" fill="#FB636F"/>
<path d="M11.9217 11.4187C12.2943 11.4187 12.5963 11.1167 12.5963 10.7441C12.5963 10.3715 12.2943 10.0695 11.9217 10.0695C11.5491 10.0695 11.2471 10.3715 11.2471 10.7441C11.2471 11.1167 11.5491 11.4187 11.9217 11.4187Z" fill="#97E4F9"/>
<path d="M5.95892 13.2545C6.32145 13.1688 6.54586 12.8054 6.46017 12.4429C6.37447 12.0804 6.01112 11.8559 5.6486 11.9416C5.28607 12.0273 5.06166 12.3907 5.14735 12.7532C5.23305 13.1157 5.5964 13.3401 5.95892 13.2545Z" fill="#B9EA6A"/>
<path d="M13.4668 5.87304C13.4007 5.75158 13.2486 5.70666 13.1271 5.77275L12.6861 6.01271C12.6857 6.01297 12.6853 6.01326 12.6848 6.01352C12.6121 5.88766 12.5348 5.76546 12.4534 5.64686L12.8729 5.36476C12.9877 5.28758 13.0182 5.13197 12.941 5.01719C12.8639 4.90235 12.7082 4.87194 12.5935 4.94909L12.1677 5.23533C12.1622 5.23906 12.157 5.24311 12.1519 5.24716C12.0734 5.15235 11.9919 5.06046 11.9077 4.97162C11.9089 4.97045 11.9101 4.96948 11.9113 4.96828L12.2916 4.57711C12.388 4.47796 12.3858 4.31939 12.2866 4.22296C12.1874 4.12653 12.0289 4.1288 11.9325 4.22795L11.5522 4.61912C11.5505 4.6209 11.549 4.62281 11.5473 4.62463C11.3952 4.49096 11.2363 4.36584 11.0711 4.25012L11.3843 3.86716C11.4718 3.76009 11.456 3.60231 11.3489 3.51476C11.2419 3.42721 11.0842 3.44296 10.9965 3.55005L10.6679 3.95192C10.6601 3.96148 10.6534 3.97153 10.6472 3.9818C10.4806 3.88651 10.3091 3.79977 10.133 3.72227L10.3839 3.22572C10.4463 3.10229 10.3968 2.95163 10.2734 2.88927C10.15 2.82687 9.99927 2.8764 9.93688 2.99983L9.67747 3.51323C9.67274 3.52263 9.66885 3.53219 9.66538 3.54189C9.52545 3.49498 9.38351 3.45307 9.23947 3.41739C9.24018 3.41418 9.24109 3.41106 9.24167 3.40782L9.3334 2.90827C9.35839 2.77223 9.26835 2.6417 9.13231 2.61674C8.9965 2.59171 8.86574 2.68176 8.84075 2.81783L8.74902 3.31742C8.74886 3.31823 8.74882 3.31901 8.74869 3.31982C8.55269 3.28974 8.35396 3.26994 8.15306 3.26096C8.15313 3.25885 8.15339 3.25681 8.15339 3.2547V2.72565C8.15339 2.58734 8.04127 2.47522 7.90296 2.47522C7.76462 2.47522 7.65253 2.58734 7.65253 2.72565V3.25457C7.65253 3.26245 7.65298 3.27023 7.6537 3.27794C7.02766 3.39492 6.55371 3.94385 6.55371 4.60382C6.55371 5.11356 6.83642 5.5571 7.25355 5.78662C7.24872 5.79781 7.24435 5.80931 7.24111 5.82147L7.07784 6.43263C7.04212 6.56627 7.12153 6.70354 7.25517 6.73923C7.27683 6.745 7.29858 6.74778 7.31997 6.74778C7.43063 6.74778 7.53182 6.67388 7.56177 6.56192L7.72504 5.95077C7.72588 5.94762 7.72634 5.94445 7.72705 5.9413C7.78465 5.94882 7.84329 5.9531 7.90296 5.9531C7.97806 5.9531 8.05261 5.95637 8.12661 5.96218L7.98561 6.62361C7.95677 6.75887 8.04308 6.89193 8.17834 6.92074C8.19595 6.9245 8.21348 6.92632 8.23082 6.92632C8.34647 6.92632 8.45042 6.84571 8.47548 6.72804L8.62098 6.04545C8.81524 6.09621 9.0024 6.16719 9.1797 6.25685C9.17788 6.26006 9.1759 6.2631 9.17422 6.26644L8.87443 6.85916C8.81197 6.98256 8.86146 7.13325 8.98486 7.19567C9.0211 7.21399 9.05967 7.22267 9.09769 7.22267C9.18913 7.22267 9.27726 7.1724 9.32134 7.08521L9.60597 6.52244C9.71251 6.60296 9.81338 6.69138 9.90803 6.78687C9.89818 6.79585 9.88871 6.80545 9.88015 6.81624L9.50908 7.28245C9.42296 7.39067 9.44085 7.54821 9.54905 7.63436C9.59514 7.67105 9.65021 7.68888 9.70486 7.68888C9.77851 7.68888 9.85153 7.6565 9.90096 7.59439L10.2318 7.17872C10.2971 7.27386 10.3574 7.37343 10.4115 7.47761C10.4226 7.49894 10.4347 7.51939 10.4468 7.53987C10.4319 7.5506 10.4178 7.56295 10.4051 7.57728L10.0704 7.95555C9.97876 8.05914 9.98842 8.21742 10.092 8.30905C10.1397 8.35122 10.1989 8.37193 10.2579 8.37193C10.3271 8.37193 10.3961 8.34337 10.4455 8.28746L10.7745 7.91571C11.0127 8.1029 11.308 8.20471 11.6098 8.20471C11.8195 8.20471 12.0323 8.1557 12.2311 8.0523C12.8167 7.74784 13.0851 7.07406 12.9001 6.46462C12.9087 6.46112 12.9172 6.45729 12.9255 6.45276L13.3665 6.2128C13.488 6.14664 13.5329 5.99456 13.4668 5.87304Z" fill="#B9EA6A"/>
<path d="M12.8054 6.23264C11.8503 4.39567 9.97162 3.25452 7.9025 3.25452C7.81628 3.25452 7.73211 3.26294 7.65039 3.27841C9.51505 3.44864 11.1686 4.54749 12.0448 6.23264C12.3885 6.89378 12.1312 7.70843 11.47 8.05218C11.3915 8.09302 11.3107 8.12508 11.2288 8.14929C11.3519 8.1854 11.48 8.20462 11.6094 8.20462C11.819 8.20462 12.0319 8.15561 12.2307 8.05221C12.8919 7.70843 13.1492 6.89382 12.8054 6.23264Z" fill="#95D528"/>
<path d="M8.76935 9.75476C9.14194 9.75476 9.44398 9.45272 9.44398 9.08014C9.44398 8.70756 9.14194 8.40552 8.76935 8.40552C8.39677 8.40552 8.09473 8.70756 8.09473 9.08014C8.09473 9.45272 8.39677 9.75476 8.76935 9.75476Z" fill="#FCE25C"/>
<path d="M6.40178 8.3457H7.14988C7.28822 8.3457 7.40031 8.23358 7.40031 8.09527C7.40031 7.95696 7.28819 7.84484 7.14988 7.84484H6.40178C6.39497 7.84484 6.38826 7.84533 6.38158 7.84585C6.29873 7.42473 5.96727 7.09294 5.54628 7.00971V6.29638C5.54628 5.85338 5.18588 5.49301 4.74288 5.49301C4.57608 5.49301 4.44037 5.3573 4.44037 5.1905V4.40314C4.44037 4.26483 4.32825 4.15271 4.18994 4.15271C4.0516 4.15271 3.93951 4.26483 3.93951 4.40314V5.1905C3.93951 5.63349 4.29992 5.9939 4.74291 5.9939C4.90971 5.9939 5.04543 6.12961 5.04543 6.29641V7.00974C4.62444 7.09298 4.29298 7.42476 4.21013 7.84588C4.20346 7.84533 4.19678 7.84487 4.18997 7.84487H3.44183C3.30349 7.84487 3.19141 7.95699 3.19141 8.0953C3.19141 8.23361 3.30352 8.34573 3.44183 8.34573H4.18997V8.7859H3.44183C3.30349 8.7859 3.19141 8.89802 3.19141 9.03633C3.19141 9.17464 3.30352 9.28676 3.44183 9.28676H4.18997V9.72694H3.44183C3.30349 9.72694 3.19141 9.83905 3.19141 9.97736C3.19141 10.1157 3.30352 10.2278 3.44183 10.2278H4.18997C4.19678 10.2278 4.20346 10.2273 4.21013 10.2268C4.30617 10.715 4.73633 11.0832 5.25265 11.0832H5.33906C5.85541 11.0832 6.28557 10.715 6.38161 10.2268C6.38829 10.2273 6.39497 10.2278 6.40181 10.2278H7.14991C7.28825 10.2278 7.40034 10.1157 7.40034 9.97736C7.40034 9.83905 7.28822 9.72694 7.14991 9.72694H6.40181V9.28676H7.14991C7.28825 9.28676 7.40034 9.17464 7.40034 9.03633C7.40034 8.89802 7.28822 8.7859 7.14991 8.7859H6.40181L6.40178 8.3457Z" fill="#FCE25C"/>
<path d="M5.29564 6.98926C5.17643 6.98926 5.06171 7.00835 4.9541 7.04326C5.39768 7.18718 5.71848 7.60359 5.71848 8.09514V9.97724C5.71848 10.4688 5.39768 10.8852 4.9541 11.0291C5.06168 11.064 5.17639 11.0831 5.29564 11.0831C5.90641 11.0831 6.40153 10.588 6.40153 9.97724V8.09514C6.40156 7.48438 5.90641 6.98926 5.29564 6.98926Z" fill="#FBD307"/>
</g>
<defs>
<clipPath id="clip0">
<rect y="0.0849609" width="16.5957" height="16.5957" fill="white"/>
</clipPath>
</defs>
</svg>
