<svg width="18" height="18" viewBox="0 0 18 18" fill="none" xmlns="http://www.w3.org/2000/svg">
<g clip-path="url(#clip0)">
<path d="M8.85152 0.468018C13.4343 0.468018 17.1494 4.18307 17.1494 8.76589C17.1494 13.3487 13.4343 17.0638 8.85152 17.0638C4.26876 17.0638 0.553711 13.3487 0.553711 8.76589C0.553711 4.183 4.26876 0.468018 8.85152 0.468018Z" fill="#5DDDD3"/>
<path d="M4.39264 6.95618H6.60662V12.9433C6.60662 13.5521 6.10849 14.0503 5.4996 14.0503C4.89071 14.0503 4.39258 13.5522 4.39258 12.9433V6.95618H4.39264Z" fill="white"/>
<path d="M4.72656 9.55554V12.9433C4.72656 13.3673 5.07468 13.7155 5.49869 13.7155C5.92278 13.7155 6.27087 13.3674 6.27087 12.9433V9.55554H4.72656Z" fill="#15BDB1"/>
<path d="M4.28094 6.67822H6.71724C6.87017 6.67822 6.99525 6.80327 6.99525 6.95623V6.9563C6.99525 7.10923 6.8702 7.23424 6.71724 7.23424H4.28094C4.12801 7.23424 4.00293 7.10919 4.00293 6.9563V6.95623C4.00293 6.80331 4.12801 6.67822 4.28094 6.67822Z" fill="white"/>
<path d="M6.99525 6.95618V6.95624C6.99525 7.10917 6.8702 7.23419 6.71724 7.23419H4.28094C4.12801 7.23419 4.00293 7.10914 4.00293 6.95624V6.95618H6.99525Z" fill="#ECF0F1"/>
<path d="M10.0584 3.5531V8.1815L13.3429 14.2484C13.8348 15.1569 13.2472 15.696 12.2205 15.696H8.81553H5.41035C4.38372 15.696 3.79583 15.1577 4.28803 14.2484L7.57266 8.1815V3.5531H10.0584Z" fill="white"/>
<path d="M16.6405 4.7666V10.4488H12.8466V4.7666C12.3559 4.7666 16.9044 4.7666 16.6405 4.7666Z" fill="white"/>
<path d="M14.5823 4.7667V1.68793H12.9582C12.895 1.68793 12.8436 1.63656 12.8436 1.57329V0.858989H12.4057V2.80659C12.4057 2.86983 12.3543 2.92124 12.2911 2.92124H11.6037C11.5404 2.92124 11.489 2.86986 11.489 2.80659V1.78897H8.93043V3.55314H8.70117V1.67442C8.70117 1.61118 8.75255 1.55977 8.81582 1.55977H11.6037C11.667 1.55977 11.7183 1.61115 11.7183 1.67442V2.69204H12.1765V0.744407C12.1765 0.681169 12.2278 0.629761 12.2911 0.629761H12.9583C13.0216 0.629761 13.073 0.681136 13.073 0.744407V1.45871H14.6971C14.7603 1.45871 14.8117 1.51002 14.8117 1.57335V4.76677H14.5825L14.5823 4.7667Z" fill="#FF5B61"/>
<path d="M14.8113 5.51762C14.8113 5.58086 14.7599 5.63226 14.6967 5.63226C14.6334 5.63226 14.582 5.58089 14.582 5.51762V4.76672H14.8113V5.51762H14.8113Z" fill="#C8CACC"/>
<path d="M8.92949 3.5531V5.14188C8.92949 5.20512 8.87811 5.25653 8.81484 5.25653C8.7516 5.25653 8.7002 5.20516 8.7002 5.14188V3.5531H8.92949Z" fill="#C8CACC"/>
<path d="M7.26973 9.90305L4.72313 14.4615C4.66196 14.5866 4.56005 14.8394 4.6418 14.9776C4.7595 15.1764 5.21238 15.2116 5.41013 15.2116H12.2204C12.4182 15.2116 12.8708 15.1764 12.9886 14.9774C13.0703 14.8392 12.9687 14.5866 12.9074 14.4615L10.3608 9.90305C9.08784 9.62005 8.54277 10.3074 7.2698 9.90305H7.26973Z" fill="#FF5B61"/>
<path d="M12.8467 4.31848H12.6182V4.76679H16.8691V4.31848H16.6405H12.8466H12.8467Z" fill="white"/>
<path d="M13.2432 6.26707C15.3471 5.90494 15.3125 6.73269 16.2438 6.26707V10.1299H13.2432V6.26707Z" fill="#20D0C2"/>
<path d="M13.2432 4.92188H13.6286V5.05117H13.2432V4.92188ZM13.2432 10.016H13.4359V10.1453H13.2432V10.016ZM13.2432 9.71636H13.6286V9.84572H13.2432V9.71636ZM13.2432 9.41663H13.4359V9.54599H13.2432V9.41663ZM13.2432 9.11697H13.6286V9.24633H13.2432V9.11697ZM13.2432 8.8173H13.4359V8.94667H13.2432V8.8173ZM13.2432 8.51774H13.6286V8.64703H13.2432V8.51774ZM13.2432 8.21807H13.4359V8.34744H13.2432V8.21807ZM13.2432 7.91841H13.6286V8.04777H13.2432V7.91841ZM13.2432 7.61868H13.4359V7.74811H13.2432V7.61868ZM13.2432 7.31908H13.6286V7.44845H13.2432V7.31908ZM13.2432 7.01942H13.4359V7.14878H13.2432V7.01942ZM13.2432 6.71985H13.6286V6.84915H13.2432V6.71985ZM13.2432 6.42019H13.4359V6.54955H13.2432V6.42019ZM13.2432 6.12053H13.6286V6.24989H13.2432V6.12053ZM13.2432 5.82086H13.4359V5.95023H13.2432V5.82086ZM13.2432 5.5212H13.6286V5.65056H13.2432V5.5212ZM13.2432 5.22154H13.4359V5.3509H13.2432V5.22154Z" fill="#666666"/>
<path d="M4.72656 7.80261H5.11206V7.93197H4.72656V7.80261ZM4.72656 12.8967H4.91929V13.0261H4.72656V12.8967ZM4.72656 12.597H5.11206V12.7264H4.72656V12.597ZM4.72656 12.2974H4.91929V12.4267H4.72656V12.2974ZM4.72656 11.9977H5.11206V12.1271H4.72656V11.9977ZM4.72656 11.6981H4.91929V11.8275H4.72656V11.6981ZM4.72656 11.3985H5.11206V11.5279H4.72656V11.3985ZM4.72656 11.0988H4.91929V11.2282H4.72656V11.0988ZM4.72656 10.7991H5.11206V10.9285H4.72656V10.7991ZM4.72656 10.4995H4.91929V10.6288H4.72656V10.4995ZM4.72656 10.1999H5.11206V10.3292H4.72656V10.1999ZM4.72656 9.90022H4.91929V10.0295H4.72656V9.90022ZM4.72656 9.60059H5.11206V9.72995H4.72656V9.60059ZM4.72656 9.30093H4.91929V9.43029H4.72656V9.30093ZM4.72656 9.00127H5.11206V9.13063H4.72656V9.00127ZM4.72656 8.7016H4.91929V8.83096H4.72656V8.7016ZM4.72656 8.40194H5.11206V8.5313H4.72656V8.40194ZM4.72656 8.10234H4.91929V8.2317H4.72656V8.10234Z" fill="#666666"/>
<path d="M4.12469 3.84705C4.35366 3.84705 4.53926 4.03265 4.53926 4.26171C4.53926 4.49068 4.35366 4.67638 4.12469 4.67638C3.89563 4.67638 3.70996 4.49071 3.70996 4.26171C3.70996 4.03265 3.89563 3.84705 4.12469 3.84705Z" fill="#20D0C2"/>
<path d="M4.84313 5.40125C4.99106 5.40125 5.11099 5.52118 5.11099 5.66911C5.11099 5.81705 4.99106 5.93698 4.84313 5.93698C4.69519 5.93698 4.5752 5.81705 4.5752 5.66911C4.5752 5.52118 4.69519 5.40125 4.84313 5.40125Z" fill="#FF5B61"/>
<path d="M4.7423 2.64624C4.90424 2.64624 5.03545 2.77745 5.03545 2.93939C5.03545 3.10133 4.90424 3.23254 4.7423 3.23254C4.58043 3.23254 4.44922 3.10133 4.44922 2.93939C4.44922 2.77745 4.58043 2.64624 4.7423 2.64624Z" fill="white"/>
<path d="M5.64974 5.82922C5.75029 5.82922 5.83171 5.91071 5.83171 6.01126C5.83171 6.11174 5.75032 6.19313 5.64974 6.19313C5.54926 6.19313 5.46777 6.11174 5.46777 6.01126C5.46777 5.91068 5.54926 5.82922 5.64974 5.82922Z" fill="white"/>
<path d="M5.71246 4.31274C5.90321 4.31274 6.05779 4.46732 6.05779 4.65808C6.05779 4.84877 5.90321 5.00335 5.71246 5.00335C5.52177 5.00335 5.36719 4.84877 5.36719 4.65808C5.36722 4.46732 5.5218 4.31274 5.71246 4.31274Z" fill="#FBB429"/>
<path d="M8.22961 11.6328C8.43349 11.6328 8.59886 11.7981 8.59886 12.0021C8.59886 12.2059 8.43349 12.3713 8.22961 12.3713C8.02563 12.3713 7.86035 12.2059 7.86035 12.0021C7.86032 11.7981 8.02563 11.6328 8.22961 11.6328Z" fill="white"/>
<path d="M6.58238 13.3468C6.73032 13.3468 6.85025 13.4667 6.85025 13.6147C6.85025 13.7627 6.73032 13.8826 6.58238 13.8826C6.43438 13.8826 6.31445 13.7627 6.31445 13.6147C6.31445 13.4667 6.43438 13.3468 6.58238 13.3468Z" fill="white"/>
<path d="M10.6497 11.8558C10.7993 11.8558 10.9205 11.9771 10.9205 12.1266C10.9205 12.2762 10.7993 12.3975 10.6497 12.3975C10.5001 12.3975 10.3789 12.2762 10.3789 12.1266C10.3789 11.9771 10.5002 11.8558 10.6497 11.8558Z" fill="white"/>
<path d="M9.02351 10.3197C9.13242 10.3197 9.22074 10.408 9.22074 10.517C9.22074 10.6259 9.13235 10.7143 9.02351 10.7143C8.91453 10.7143 8.82617 10.6259 8.82617 10.517C8.8262 10.408 8.91453 10.3197 9.02351 10.3197Z" fill="white"/>
<path d="M11.3127 14.0233C11.4439 14.0233 11.5502 14.1297 11.5502 14.2608C11.5502 14.392 11.4439 14.4983 11.3127 14.4983C11.1815 14.4983 11.0752 14.392 11.0752 14.2608C11.0752 14.1297 11.1815 14.0233 11.3127 14.0233Z" fill="white"/>
<path d="M7.51906 14.6055C7.60454 14.6055 7.67387 14.6748 7.67387 14.7603C7.67387 14.8457 7.60454 14.9151 7.51906 14.9151C7.43359 14.9151 7.36426 14.8457 7.36426 14.7603C7.36426 14.6748 7.43359 14.6055 7.51906 14.6055Z" fill="white"/>
<path d="M9.41469 13.2128C9.63672 13.2128 9.81675 13.3928 9.81675 13.6148C9.81675 13.8369 9.63672 14.0168 9.41469 14.0168C9.19266 14.0168 9.0127 13.8368 9.0127 13.6148C9.0127 13.3928 9.19272 13.2128 9.41469 13.2128Z" fill="white"/>
<path d="M8.78522 5.62219C8.87805 5.62219 8.95332 5.69746 8.95332 5.79029C8.95332 5.88306 8.87805 5.95832 8.78522 5.95832C8.69245 5.95832 8.61719 5.88306 8.61719 5.79029C8.61719 5.69746 8.69245 5.62219 8.78522 5.62219Z" fill="#20D0C2"/>
<path d="M8.64203 6.58569C8.82241 6.58569 8.96869 6.73198 8.96869 6.91236C8.96869 7.09274 8.82241 7.23896 8.64203 7.23896C8.46165 7.23896 8.31543 7.09267 8.31543 6.91236C8.31543 6.73198 8.46165 6.58569 8.64203 6.58569Z" fill="#FF5B61"/>
<path d="M7.57288 2.9032H7.05012C6.62262 2.9032 6.62262 3.55319 7.05012 3.55319H7.57288H10.0586H10.5813C11.0089 3.55319 11.0089 2.9032 10.5813 2.9032H10.0586H7.57288Z" fill="white"/>
<path d="M7.57219 3.55313H7.04943C6.87135 3.55313 6.72461 3.40714 6.72461 3.22838V3.22815H10.9056V3.22838C10.9056 3.40639 10.7588 3.55313 10.5807 3.55313H10.058H7.57219Z" fill="#ECF0F1"/>
<path d="M12.8467 4.76669H12.6182V4.54248H16.8691V4.76669H16.6405H12.8466H12.8467Z" fill="#ECF0F1"/>
<path d="M9.27561 7.78174C9.3901 7.78174 9.48286 7.87457 9.48286 7.98899C9.48286 8.10348 9.39003 8.19624 9.27561 8.19624C9.16119 8.19624 9.06836 8.10348 9.06836 7.98899C9.06833 7.87457 9.16119 7.78174 9.27561 7.78174Z" fill="#FBB429"/>
<path d="M8.49735 8.54346C8.74661 8.54346 8.94881 8.74555 8.94881 8.99491C8.94881 9.24417 8.74661 9.4463 8.49735 9.4463C8.24809 9.4463 8.0459 9.2442 8.0459 8.99491C8.0459 8.74562 8.24803 8.54346 8.49735 8.54346Z" fill="#ECF0F1"/>
<path d="M9.54887 9.11609C9.60612 9.11609 9.65256 9.16247 9.65256 9.21971C9.65256 9.27696 9.60612 9.32334 9.54887 9.32334C9.49163 9.32334 9.44531 9.27702 9.44531 9.21971C9.44531 9.16247 9.49163 9.11609 9.54887 9.11609Z" fill="#20D0C2"/>
<path d="M7.47182 11.6206C7.54579 11.6206 7.60576 11.6805 7.60576 11.7545C7.60576 11.8284 7.54579 11.8885 7.47182 11.8885C7.39786 11.8885 7.33789 11.8284 7.33789 11.7545C7.33789 11.6805 7.39786 11.6206 7.47182 11.6206Z" fill="white"/>
<path d="M4.61361 4.427C4.71409 4.427 4.79558 4.50839 4.79558 4.60897C4.79558 4.70945 4.71409 4.79094 4.61361 4.79094C4.51306 4.79094 4.43164 4.70945 4.43164 4.60897C4.43167 4.50839 4.51306 4.427 4.61361 4.427Z" fill="white"/>
</g>
<defs>
<clipPath id="clip0">
<rect x="0.552734" y="0.468018" width="16.5957" height="16.5957" fill="white"/>
</clipPath>
</defs>
</svg>
