<svg width="17" height="18" viewBox="0 0 17 18" fill="none" xmlns="http://www.w3.org/2000/svg">
<g clip-path="url(#clip0)">
<path d="M8.67927 2.38666L7.72873 0.860718H6.38992C5.77666 0.860611 5.20833 1.18237 4.89287 1.70824L4.00586 3.14978L7.15332 5.15271L8.67927 2.38666Z" fill="#6A9923"/>
<path d="M13.691 3.61132L12.5896 1.71913C12.3094 1.18932 11.7583 0.858688 11.159 0.860727H7.72852L10.3006 5.72499L8.8699 6.58339L13.1281 7.06781L15.1648 2.86366L13.691 3.61132Z" fill="#88B337"/>
<path d="M15.4512 6.86951L12.0176 8.87244L13.4482 11.4476H15.7373L16.3353 10.4819C16.6674 9.9443 16.6829 9.26913 16.376 8.71678L15.4512 6.86951Z" fill="#6A9923"/>
<path d="M10.0146 11.4476V10.017L7.15332 13.1644L10.0146 16.8842V15.7396H12.3037C12.9065 15.7543 13.4637 15.42 13.7344 14.8812L15.7373 11.4476H10.0146Z" fill="#88B337"/>
<path d="M2.86177 11.7338L2.16504 13.3395L3.03574 14.8477C3.35871 15.3944 3.94371 15.7325 4.57857 15.7396H5.7231V11.7338H2.86177Z" fill="#6A9923"/>
<path d="M6.29492 9.15857L4.57813 5.43884L0 5.72498L1.63639 6.7396L0.572266 8.87244C0.276261 9.40643 0.276261 10.0552 0.572266 10.5892L2.16431 13.3395L2.76004 12.306L4.88658 8.61492L6.29492 9.15857Z" fill="#88B337"/>
</g>
<defs>
<clipPath id="clip0">
<rect y="0.574585" width="16.5957" height="16.5957" fill="white"/>
</clipPath>
</defs>
</svg>
