<svg width="17" height="17" viewBox="0 0 17 17" fill="none" xmlns="http://www.w3.org/2000/svg">
<g clip-path="url(#clip0)">
<path d="M15.4399 12.4589C16.1376 11.2519 16.5428 9.8533 16.5537 8.36007C16.5868 3.81064 12.9351 0.0603692 8.40885 0.000728311C3.75018 -0.0605656 -0.0328288 3.75493 0.043116 8.43579C0.116792 12.9749 3.84425 16.6297 8.36091 16.5955C9.67829 16.5856 10.9209 16.2638 12.0224 15.703L14.2107 15.6982C14.8935 15.6967 15.4458 15.1392 15.4442 14.453L15.4399 12.4589Z" fill="#37A9BF"/>
<path d="M7.52162 0.036499C3.27957 0.434115 -0.0279661 4.056 0.0431167 8.43578C0.112157 12.6903 3.39133 16.168 7.52159 16.5591V0.036499H7.52162Z" fill="#52DDDC"/>
<path d="M16.2064 10.6825C16.4266 9.94613 16.5478 9.16698 16.5537 8.36004C16.5599 7.51022 16.4374 6.68838 16.2047 5.91318H11.8623L14.7026 3.07288C14.3518 2.63942 13.9583 2.24219 13.529 1.88719L10.6827 4.73352V0.353777C9.96123 0.134111 9.19847 0.0111339 8.40891 0.000729172C7.54013 -0.0107128 6.70185 0.112783 5.91333 0.351508V4.73359L3.06191 1.88217C2.63224 2.23681 2.23897 2.63423 1.88828 3.06786L4.73361 5.91318H0.387961C0.150402 6.71032 0.0288842 7.55784 0.0431137 8.43573C0.055755 9.21547 0.176236 9.96914 0.390035 10.6825H4.73364L1.89302 13.5231C2.24412 13.9565 2.63778 14.3536 3.06723 14.7082L5.91333 11.8621V16.2412C6.6885 16.4775 7.5107 16.6018 8.36094 16.5954C9.1681 16.5893 9.94693 16.4657 10.6827 16.2422V11.8622L14.4866 15.6661C15.0362 15.5389 15.4456 15.0438 15.4443 14.453L15.4439 14.2641L11.8623 10.6825H16.2064V10.6825Z" fill="#E3E3E3"/>
<path d="M7.6693 16.5713V0.0240479C7.06333 0.0699778 6.47564 0.181253 5.91333 0.351457V4.73354L3.06191 1.88212C2.63224 2.23676 2.23897 2.63418 1.88828 3.06781L4.73361 5.91313H0.387961C0.150402 6.71027 0.0288842 7.55779 0.0431137 8.43568C0.055755 9.21542 0.176236 9.9691 0.390035 10.6824H4.73364L1.89302 13.523C2.24412 13.9565 2.63778 14.3535 3.06723 14.7081L5.91333 11.862V16.2411C6.47625 16.4128 7.06404 16.525 7.6693 16.5713Z" fill="white"/>
<path d="M16.4447 6.95274H9.64309V0.110707C9.24068 0.043935 8.8286 0.00627053 8.40888 0.000727818C7.91237 -0.00581971 7.42581 0.0319096 6.95283 0.109864V6.95271H0.150114C0.071997 7.43447 0.0348835 7.93004 0.0431165 8.43576C0.0497937 8.84611 0.086583 9.24914 0.150859 9.64297H6.95277V16.4849C7.41093 16.5611 7.88142 16.5991 8.36084 16.5954C8.79732 16.5921 9.22544 16.5542 9.64306 16.4849V9.64303H16.4451C16.5133 9.22506 16.5505 8.79665 16.5536 8.36011C16.5571 7.88097 16.5197 7.41075 16.4447 6.95274Z" fill="#AA315E"/>
<path d="M8.29796 0C7.83986 3.24135e-05 7.39054 0.0377293 6.9528 0.109849V6.9527H0.150114C0.071997 7.43446 0.0348835 7.93003 0.0431165 8.43574C0.0497937 8.8461 0.086583 9.24913 0.150859 9.64295H6.95277V16.4849C7.39087 16.5577 7.84025 16.5956 8.2979 16.5956L8.29796 0Z" fill="#DF3F7C"/>
</g>
<defs>
<clipPath id="clip0">
<rect width="16.5957" height="16.5957" fill="white"/>
</clipPath>
</defs>
</svg>
