<svg width="196" height="196" viewBox="0 0 196 196" fill="none" xmlns="http://www.w3.org/2000/svg">
<g clip-path="url(#clip0)">
<path d="M187.341 149.277L118.098 24.557C113.964 17.0922 106.499 12.6136 98.0005 12.6136C89.502 12.6136 82.0372 17.0922 77.9028 24.557L8.77454 149.162L8.65969 149.277C4.64054 156.512 4.86947 165.011 9.00461 172.131C13.139 179.137 20.6038 183.386 28.7573 183.386H167.244C175.397 183.386 182.862 179.137 186.996 172.131C191.131 165.011 191.36 156.512 187.341 149.277Z" fill="#FEDB41"/>
<path d="M186.996 172.131C182.861 179.137 175.397 183.386 167.243 183.386H98V12.6136C106.498 12.6136 113.963 17.0922 118.098 24.557L187.341 149.277C191.36 156.512 191.131 165.011 186.996 172.131Z" fill="#FCBF29"/>
<path d="M109.484 148.933C109.484 155.25 104.316 160.418 98 160.418C91.6836 160.418 86.5156 155.25 86.5156 148.933C86.5156 142.617 91.6836 137.449 98 137.449C104.316 137.449 109.484 142.617 109.484 148.933Z" fill="#57555C"/>
<path d="M109.484 51.316V108.738C109.484 115.054 104.316 120.222 98 120.222C91.6836 120.222 86.5156 115.054 86.5156 108.738V51.316C86.5156 44.9996 91.6836 39.8317 98 39.8317C104.316 39.8317 109.484 44.9996 109.484 51.316Z" fill="#57555C"/>
<path d="M192.394 146.521L123.151 21.6859C117.983 12.4984 108.565 6.87146 98 6.87146C87.4347 6.87146 78.0172 12.4988 72.8492 21.6859L3.60606 146.521C-1.33222 155.479 -1.21699 166.16 4.06582 175.002C9.23341 183.845 18.5358 189.128 28.7568 189.128H167.243C177.464 189.128 186.767 183.845 191.934 175.002C197.217 166.16 197.332 155.479 192.394 146.521ZM182.058 169.146C178.957 174.428 173.329 177.644 167.243 177.644H28.7568C22.6705 177.644 17.0424 174.428 13.9424 169.146C12.3346 166.389 11.5303 163.403 11.5303 160.418C11.5303 157.546 12.2193 154.675 13.7123 152.034L82.9554 27.3133C86.0566 21.6859 91.6836 18.3558 98 18.3558C104.316 18.3558 109.943 21.6859 113.044 27.3133L182.288 152.034C185.274 157.432 185.159 163.863 182.058 169.146Z" fill="#FD4E26"/>
<path d="M109.484 148.933C109.484 155.25 104.316 160.418 98 160.418V137.449C104.316 137.449 109.484 142.617 109.484 148.933Z" fill="#3C3A41"/>
<path d="M109.484 51.316V108.738C109.484 115.054 104.316 120.222 98 120.222V39.8317C104.316 39.8317 109.484 44.9996 109.484 51.316Z" fill="#3C3A41"/>
<path d="M191.934 175.002C186.767 183.846 177.465 189.128 167.243 189.128H98V177.644H167.243C173.329 177.644 178.958 174.428 182.058 169.146C185.159 163.862 185.274 157.431 182.288 152.033L113.045 27.3133C109.943 21.6859 104.316 18.3558 98 18.3558V6.87146C108.565 6.87146 117.983 12.4988 123.151 21.6859L192.394 146.521C197.332 155.479 197.217 166.16 191.934 175.002Z" fill="#FD3018"/>
</g>
<defs>
<clipPath id="clip0">
<rect width="196" height="196" fill="white"/>
</clipPath>
</defs>
</svg>
