<svg width="17" height="18" viewBox="0 0 17 18" fill="none" xmlns="http://www.w3.org/2000/svg">
<g clip-path="url(#clip0)">
<path d="M8.29787 17.5745C12.8807 17.5745 16.5957 13.8594 16.5957 9.27663C16.5957 4.69384 12.8807 0.97876 8.29787 0.97876C3.71508 0.97876 0 4.69384 0 9.27663C0 13.8594 3.71508 17.5745 8.29787 17.5745Z" fill="#F0F0F0"/>
<path d="M16.5962 9.27662C16.5962 5.70883 14.3444 2.6673 11.1846 1.49487V17.0584C14.3444 15.8859 16.5962 12.8444 16.5962 9.27662Z" fill="#D80027"/>
<path d="M0 9.27662C0 12.8444 2.25187 15.8859 5.41167 17.0584V1.49487C2.25187 2.6673 0 5.70883 0 9.27662Z" fill="#0052B4"/>
</g>
<defs>
<clipPath id="clip0">
<rect y="0.97876" width="16.5957" height="16.5957" fill="white"/>
</clipPath>
</defs>
</svg>
