<svg width="17" height="18" viewBox="0 0 17 18" fill="none" xmlns="http://www.w3.org/2000/svg">
<g clip-path="url(#clip0)">
<path d="M14.3071 3.0668L13.4486 3.6391L12.0178 3.35295L11.1593 3.0668L10.0147 3.35295L9.15625 3.0668L9.72855 1.92218H10.8732L11.9949 1.36133C12.86 1.78912 13.6426 2.36657 14.3071 3.0668Z" fill="#03AA6F"/>
<path d="M7.72494 1.92214L7.43879 2.78061L6.58031 3.06676L5.72184 4.49753L4.29107 5.35601L2.288 5.64215V6.50063L2.8603 7.07292V8.21755L2.00189 7.64522L1.14341 7.07292L0.645508 5.57635C1.50252 3.53404 3.14077 1.91955 5.19534 1.09229L6.00802 1.63599L7.72494 1.92214Z" fill="#03AA6F"/>
<path d="M8.29731 9.9344L8.01117 11.3652L6.86654 12.5098V13.3683L5.72192 14.2267V15.6575L4.86348 15.3713L4.29115 13.9406V11.079L2.86038 10.7929L2.28809 9.64825V8.78978L2.86038 8.21748L3.71886 7.35901L4.29115 8.50363H6.29422L7.15269 9.9344H8.29731Z" fill="#03AA6F"/>
<path d="M15.5365 4.73513C17.0986 7.52199 16.9206 10.9584 15.0786 13.5687L14.306 12.7961V11.6515L13.7337 10.5068L13.1614 9.36221V8.21759L12.303 7.64529L11.1584 7.93144L9.15529 7.07297L8.86914 5.0699L9.72761 4.21143H11.4445L12.0168 5.0699L13.7337 5.35605L15.4507 4.78375L15.5365 4.73513Z" fill="#03AA6F"/>
<path d="M10.0142 3.35404L11.1588 3.0679L12.0173 3.35404L13.4481 3.64019L14.3066 3.0679C14.7859 3.56953 15.1994 4.13009 15.537 4.73616L15.4512 4.78481L13.7343 5.35711L12.0174 5.07096L11.4451 4.21249H9.72814L8.86966 5.07096L9.15581 7.07403L11.1589 7.9325L12.3035 7.64635L13.162 8.21865V9.36327L13.7343 10.5079L14.3066 11.6525V12.7971L15.0792 13.5698C12.4366 17.3144 7.25858 18.2075 3.51425 15.5648C0.334216 13.3202 -0.858768 9.16723 0.645549 5.57746L1.14345 7.07403L2.00193 7.64632L2.8604 8.21862L2.28808 8.79094V9.64942L2.86037 10.794L4.29114 11.0802V13.9417L4.86344 15.3725L5.72191 15.6586V14.2279L6.86653 13.3694V12.5109L8.01116 11.3663L8.2973 9.93553H7.15268L6.29421 8.50476H4.29114L3.71885 7.36014L2.86037 8.21862V7.07399L2.28808 6.50173V5.64326L4.29114 5.35711L5.72191 4.49863L6.58039 3.06786L7.43886 2.78172L7.72501 1.92324L6.00809 1.63709L5.19542 1.09339C7.39595 0.207166 9.8706 0.305023 11.9944 1.36239L10.8727 1.92324H9.72807L9.15578 3.06786L10.0142 3.35404Z" fill="#86DAF1"/>
</g>
<defs>
<clipPath id="clip0">
<rect y="0.489258" width="16.5957" height="16.5957" fill="white"/>
</clipPath>
</defs>
</svg>
