<svg width="17" height="17" viewBox="0 0 17 17" fill="none" xmlns="http://www.w3.org/2000/svg">
<g clip-path="url(#clip0)">
<path d="M0.515625 11.5671C1.68806 14.7269 4.72958 16.9788 8.29738 16.9788C11.8652 16.9788 14.9067 14.7269 16.0791 11.5671L8.29738 10.8456L0.515625 11.5671Z" fill="#FFDA44"/>
<path d="M8.29738 0.383057C4.72958 0.383057 1.68806 2.63489 0.515625 5.79473L8.29738 6.51625L16.0791 5.7947C14.9067 2.63489 11.8652 0.383057 8.29738 0.383057Z" fill="black"/>
<path d="M0.516121 5.79468C0.182586 6.6936 0 7.66588 0 8.68088C0 9.69587 0.182586 10.6682 0.516121 11.5671H16.0797C16.4132 10.6682 16.5957 9.69587 16.5957 8.68088C16.5957 7.66588 16.4132 6.6936 16.0796 5.79468H0.516121Z" fill="#D80027"/>
</g>
<defs>
<clipPath id="clip0">
<rect y="0.383057" width="16.5957" height="16.5957" fill="white"/>
</clipPath>
</defs>
</svg>
