<svg width="17" height="18" viewBox="0 0 17 18" fill="none" xmlns="http://www.w3.org/2000/svg">
<g clip-path="url(#clip0)">
<path d="M8.29774 0.681396C12.8805 0.681396 16.5955 4.39642 16.5955 8.97914C16.5955 13.5619 12.8805 17.2769 8.29774 17.2769C3.71502 17.2769 0 13.5619 0 8.97914C0 4.39642 3.71502 0.681396 8.29774 0.681396Z" fill="#5DDDD3"/>
<path d="M4.66785 14.0388H4.87938C6.12287 14.0516 7.32248 14.289 8.26009 14.8571C9.19952 14.289 10.4734 14.0517 11.7168 14.0388H11.9283C13.0036 14.0493 14.1201 14.2213 15.1665 14.4872V14.9667C12.6446 14.334 9.98207 14.3572 8.84129 15.1082C8.64023 15.3417 8.36686 15.3255 8.26327 15.2919C8.17809 15.3254 7.95593 15.3417 7.75487 15.1082C6.61409 14.3572 3.95152 14.334 1.42969 14.9667V14.4872C2.47598 14.2213 3.59251 14.0494 4.66785 14.0388Z" fill="#C8CACC"/>
<path d="M1.42969 5.51107C3.81633 4.78275 6.88014 4.78751 8.29801 5.91993C9.71605 4.78754 12.7798 4.78275 15.1663 5.51107V14.487C12.8086 13.888 10.0941 13.765 8.29801 14.8939C6.5021 13.765 3.78761 13.888 1.42969 14.487V5.51107Z" fill="white"/>
<path d="M7.83301 5.61744C7.98152 5.69335 8.1739 5.81821 8.2983 5.92002C8.43258 5.81283 8.58156 5.71581 8.74323 5.6284V14.6482C8.58963 14.7224 8.44098 14.8042 8.2983 14.8938L7.87326 14.6576L7.83301 5.61731V5.61744Z" fill="#ECF0F1"/>
<path d="M8.29801 6.83778C6.7653 5.32529 3.34073 5.79492 1.42969 6.27982V6.17474C3.35058 5.69162 6.70796 5.244 8.29801 6.71143C9.88807 5.244 13.2454 5.69146 15.1663 6.17474V6.27982C13.2553 5.79492 9.83086 5.32529 8.29801 6.83778ZM8.29801 7.50863C9.83089 5.99627 13.2553 6.46577 15.1663 6.95067V6.84559C13.2454 6.36247 9.88807 5.91485 8.29801 7.38245C6.70796 5.91485 3.35074 6.36247 1.42969 6.84559V6.95067C3.3407 6.46577 6.7653 5.99614 8.29801 7.50863ZM8.29801 8.17948C9.83089 6.66712 13.2553 7.13663 15.1663 7.62153V7.51644C13.2454 7.03333 9.88807 6.5857 8.29801 8.05314C6.70796 6.58554 3.35074 7.03316 1.42969 7.51644V7.62153C3.3407 7.13659 6.7653 6.66696 8.29801 8.17948ZM8.29801 8.8503C6.7653 7.33781 3.34073 7.80745 1.42969 8.29235V8.18726C3.35058 7.70415 6.70796 7.25652 8.29801 8.72396C9.88807 7.25652 13.2454 7.70398 15.1663 8.18726V8.29235C13.2553 7.80745 9.83086 7.33781 8.29801 8.8503ZM8.29801 9.52116C6.7653 8.00867 3.34073 8.4783 1.42969 8.9632V8.85811C3.35058 8.375 6.70796 7.92737 8.29801 9.39481C9.88807 7.92721 13.2454 8.37484 15.1663 8.85811V8.9632C13.2553 8.4783 9.83086 8.00867 8.29801 9.52116ZM8.29801 10.192C9.83089 8.67965 13.2553 9.14915 15.1663 9.63405V9.52897C13.2454 9.04585 9.88807 8.59823 8.29801 10.0657C6.70796 8.59806 3.35074 9.04569 1.42969 9.52897V9.63405C3.3407 9.14912 6.7653 8.67949 8.29801 10.192ZM8.29801 10.8629C9.83089 9.3505 13.2553 9.82 15.1663 10.3049V10.1998C13.2454 9.7167 9.88807 9.26908 8.29801 10.7365C6.70796 9.26892 3.35074 9.71654 1.42969 10.1998V10.3049C3.3407 9.81997 6.7653 9.35034 8.29801 10.8629ZM8.29801 11.5337C6.7653 10.0212 3.34073 10.4908 1.42969 10.9757V10.8706C3.35058 10.3875 6.70796 9.9399 8.29801 11.4073C9.88807 9.93974 13.2454 10.3874 15.1663 10.8706V10.9757C13.2553 10.4908 9.83086 10.0212 8.29801 11.5337ZM8.29801 12.2045C6.7653 10.6922 3.34073 11.1617 1.42969 11.6466V11.5415C3.35058 11.0582 6.70796 10.6108 8.29801 12.0782C9.88807 10.6106 13.2454 11.0582 15.1663 11.5415V11.6466C13.2553 11.1617 9.83086 10.6922 8.29801 12.2045ZM8.29801 12.8754C9.83089 11.363 13.2553 11.8325 15.1663 12.3174V12.2123C13.2454 11.7292 9.88807 11.2816 8.29801 12.749C6.70796 11.2814 3.35074 11.7291 1.42969 12.2123V12.3174C3.3407 11.8325 6.7653 11.3629 8.29801 12.8754ZM8.29801 13.5462C9.83089 12.0337 13.2553 12.5033 15.1663 12.9882V12.8832C13.2454 12.4 9.88807 11.9524 8.29801 13.4199C6.70796 11.9524 3.35074 12.3999 1.42969 12.8832V12.9882C3.3407 12.5033 6.7653 12.0337 8.29801 13.5462ZM8.29801 14.2171C6.7653 12.7046 3.34073 13.1742 1.42969 13.6591V13.554C3.35058 13.0709 6.70796 12.6233 8.29801 14.0907C9.88807 12.6231 13.2454 13.0707 15.1663 13.554V13.6591C13.2553 13.1742 9.83086 12.7046 8.29801 14.2171Z" fill="#20D0C2"/>
<path d="M2.95996 5.15942L3.06955 5.14221V14.1626L2.95996 14.1785V5.15942Z" fill="#FF5B61"/>
<path d="M13.635 5.15942L13.5254 5.14221V14.1626L13.635 14.1785V5.15942Z" fill="#FF5B61"/>
<path d="M9.60867 1.15072L13.3644 2.96219C13.5631 3.11356 13.5054 4.04893 13.4813 4.22302C13.4571 4.39715 13.3386 4.33621 13.2081 4.20043C13.0775 4.06465 13.4858 3.27419 13.1527 3.12973L9.00293 1.32964C9.04351 1.25554 9.10578 1.17947 9.17825 1.15584C9.28246 1.12187 9.40028 1.11318 9.6085 1.15075H9.60867V1.15072Z" fill="#C8CACC"/>
<path d="M14.589 2.85244L10.51 1.98682C10.2603 1.98504 9.73347 2.7599 9.64589 2.91247C9.55847 3.06504 9.68945 3.08928 9.87583 3.06173C10.0621 3.03434 10.223 2.15929 10.5748 2.24881L14.9584 3.36444C14.9716 3.28104 14.9689 3.18283 14.9261 3.11966C14.8644 3.02909 14.7767 2.95004 14.589 2.85244Z" fill="#C8CACC"/>
<path d="M14.888 3.56982C14.8466 3.64392 14.8059 3.71847 14.7652 3.79153C14.6893 3.92805 14.6137 4.0649 14.5384 4.20172C14.2255 4.77092 13.1139 4.5357 12.706 4.19828C12.6883 4.1836 12.6717 4.16758 12.6561 4.15054C12.5552 4.04004 12.4974 3.88391 12.463 3.74064C12.4212 3.56713 12.4061 3.38419 12.4015 3.20589C12.3986 3.09494 12.4061 2.97099 12.4001 2.85975C12.404 2.84225 12.4084 2.82517 12.4129 2.8087L13.1529 3.12969C13.4858 3.27415 13.0777 4.06461 13.2083 4.20039C13.3388 4.33617 13.4573 4.3971 13.4814 4.22298C13.5056 4.04886 13.5631 3.11364 13.3645 2.96214L13.3498 2.95511L14.9584 3.36455C14.9481 3.43268 14.9247 3.50422 14.8883 3.56995L14.888 3.56982ZM12.6217 2.43488L14.5885 2.85226C14.0638 2.57918 13.1217 2.37258 12.7377 2.34639C12.6998 2.36869 12.6603 2.39744 12.6216 2.43472V2.43488H12.6217ZM8.93269 1.53483C8.92011 1.61869 8.90663 1.70267 8.89405 1.78545C8.87055 1.9398 8.84673 2.09432 8.82236 2.24863C8.72162 2.89012 9.7447 3.38449 10.2738 3.36711C10.2968 3.36637 10.3197 3.36381 10.3425 3.35992C10.4898 3.33431 10.6313 3.24615 10.7463 3.15377C10.8855 3.04207 11.0095 2.90675 11.1222 2.76857C11.1923 2.68248 11.2623 2.58009 11.3349 2.49565C11.3426 2.47935 11.3496 2.46331 11.356 2.44759L10.5744 2.24863C10.2226 2.15911 10.0618 3.03417 9.87539 3.06155C9.68914 3.08894 9.558 3.0647 9.64558 2.91229C9.733 2.75989 10.2598 1.98486 10.5097 1.98664L10.5257 1.99008L9.0029 1.32956C8.96954 1.38979 8.94407 1.46058 8.93269 1.53483ZM11.4196 2.02408L9.60847 1.15051C10.1907 1.2556 11.0621 1.66896 11.3819 1.88305C11.3982 1.92379 11.4119 1.97095 11.4196 2.02408Z" fill="white"/>
<path d="M8.94074 0.720862C9.39647 0.730586 11.2948 1.33781 11.4886 1.55475C11.5102 1.57887 11.9387 1.86255 11.9382 1.86345L12.119 1.94011L12.309 1.99025C12.3093 1.98935 12.8217 2.02708 12.8536 2.02108C13.1388 1.96825 15.0011 2.64523 15.3756 2.91814C15.4804 2.95976 15.5873 3.00721 15.5846 3.02757C15.5972 3.07953 15.4538 3.39808 15.4393 3.40859C15.4279 3.41264 15.3761 3.41218 15.296 3.40842C15.2785 3.42398 15.26 3.44586 15.242 3.47549C15.1667 3.59898 14.8672 4.14125 14.7653 4.32672C14.3636 5.05731 13.076 4.84157 12.5402 4.39799C12.0565 3.99766 12.1548 3.02488 12.1382 2.83909C12.1349 2.80256 12.1397 2.74733 12.1493 2.68221C12.0779 2.59956 11.9864 2.51065 11.9238 2.51139C11.8749 2.47246 11.7481 2.48685 11.641 2.50854C11.6089 2.56588 11.5788 2.61242 11.5538 2.63939C11.4271 2.77624 10.9095 3.60575 10.282 3.62627C9.58674 3.64919 8.43624 3.03191 8.56573 2.20823C8.59853 1.9991 8.69356 1.38708 8.70944 1.24336C8.7135 1.20712 8.71363 1.17688 8.71123 1.15218C8.65554 1.11267 8.6208 1.08587 8.61483 1.0766C8.6099 1.05938 8.69133 0.719695 8.73294 0.686147C8.74254 0.669844 8.8403 0.692436 8.94058 0.72057L8.94074 0.720862ZM8.93219 1.53498C8.91961 1.61896 8.90629 1.70282 8.89355 1.7856C8.87005 1.93995 8.84623 2.09446 8.82198 2.24878C8.72108 2.89043 9.74433 3.38476 10.2734 3.36739C10.2965 3.36664 10.3194 3.36424 10.3421 3.36019C10.4894 3.33459 10.6309 3.24642 10.7459 3.15421C10.885 3.04251 11.0091 2.90703 11.1217 2.76885C11.1919 2.68276 11.2618 2.58037 11.3345 2.49593C11.4611 2.22525 11.4359 2.01956 11.3814 1.88349C10.9529 1.59634 9.53358 0.951837 9.1476 1.17043C9.04955 1.22599 8.95718 1.37178 8.93219 1.53511V1.53498ZM14.8876 3.56997C14.9677 3.4255 14.984 3.25365 14.9404 3.14973C14.7689 2.74075 13.2519 2.38187 12.7373 2.3467C12.611 2.42112 12.4651 2.56828 12.3996 2.85977C12.4054 2.97114 12.3981 3.09496 12.4009 3.20591C12.4056 3.38421 12.4207 3.56715 12.4625 3.74066C12.4969 3.88392 12.5548 4.04022 12.6557 4.15071C12.6713 4.1678 12.6879 4.18381 12.7057 4.19846C13.1137 4.53604 14.2253 4.7711 14.5382 4.20189C14.6135 4.06505 14.6891 3.92823 14.765 3.79171C14.8057 3.71849 14.8464 3.64394 14.8877 3.57H14.8876V3.56997Z" fill="#0E7886"/>
<path d="M7.04398 8.8621L5.73926 8.15935L6.34169 7.55676L7.04382 8.86207H7.04398V8.8621Z" fill="#FED198"/>
<path d="M5.91585 7.98292C6.06631 7.96914 6.15568 7.89203 6.16586 7.73292L1.4541 3.021L1.2041 3.27116L5.91585 7.98292Z" fill="#FF5B61"/>
<path d="M5.91546 7.98292C5.9282 8.10327 5.87653 8.16825 5.73926 8.15911L1.02734 3.44719L1.20354 3.271L5.91533 7.98279L5.91546 7.98292Z" fill="#EC4B53"/>
<path d="M1.63014 2.84473L1.02771 3.44716L0.878906 3.29835L1.48134 2.69592L1.63014 2.84473Z" fill="#ECF0F1"/>
<path d="M1.03419 2.5472L0.729375 2.85201C0.6475 2.93389 0.6475 3.06775 0.729375 3.14963L0.878184 3.29844L1.48061 2.69601L1.3318 2.5472C1.2499 2.46545 1.11606 2.46532 1.03419 2.5472Z" fill="#20D0C2"/>
<path d="M7.12882 8.92205L7.10367 8.94704L6.55469 8.59838L6.77941 8.37366L7.12882 8.92189V8.92205Z" fill="#666666"/>
<path d="M6.16602 7.73295C6.2864 7.74569 6.35136 7.69419 6.34222 7.55676L1.6303 2.84497L1.4541 3.02117L6.16586 7.73312L6.16602 7.73295Z" fill="#EC4B53"/>
</g>
<defs>
<clipPath id="clip0">
<rect y="0.680664" width="16.5957" height="16.5957" fill="white"/>
</clipPath>
</defs>
</svg>
