<svg width="17" height="18" viewBox="0 0 17 18" fill="none" xmlns="http://www.w3.org/2000/svg">
<g clip-path="url(#clip0)">
<path d="M12.6046 15.987C12.1011 16.2933 11.5624 16.5477 10.996 16.7424C10.8562 16.7904 10.7106 16.6868 10.7106 16.539V14.9084C10.7106 14.7294 10.5655 14.5843 10.3864 14.5843H2.52447C2.35105 14.5843 2.18665 14.5088 2.07197 14.3788C0.782561 12.9164 0 10.9965 0 8.89358C0 4.31082 3.71508 0.595703 8.29784 0.595703C12.8771 0.595703 16.6065 4.33428 16.5957 8.91354C16.5913 10.7997 15.9573 12.5377 14.893 13.9292C14.7453 13.8906 14.5903 13.8699 14.4305 13.8699C13.4221 13.8699 12.6046 14.6874 12.6046 15.6958V15.987H12.6046Z" fill="#EB5A82"/>
<path d="M12.6046 15.987C12.1057 16.2906 11.5724 16.5432 11.0116 16.7372C10.8943 16.7778 10.7721 16.6897 10.7721 16.5656V14.8469C10.7721 14.6678 10.627 14.5227 10.4479 14.5227H2.51239C2.31006 14.5227 2.11804 14.4338 1.98664 14.28C1.11011 13.2539 0.479246 12.0115 0.185547 10.6439H16.4102C16.1492 11.8592 15.622 12.9755 14.8927 13.9292C14.7451 13.8906 14.5902 13.87 14.4305 13.87C13.4221 13.87 12.6046 14.6874 12.6046 15.6958V15.987Z" fill="#CD2855"/>
<path d="M10.1127 13.2369H6.48242V10.6763H10.1127V13.2369Z" fill="#91B9FF"/>
<path d="M7.13069 12.5887V13.237H6.48242V10.968H10.1127V11.9404H7.77896C7.42092 11.9404 7.13069 12.2307 7.13069 12.5887Z" fill="#82AAF0"/>
<path d="M15.2995 1.89225V10.968C15.2995 11.1471 15.1544 11.2922 14.9754 11.2922H1.62101C1.44199 11.2922 1.29688 11.1471 1.29688 10.968V1.89225C1.29688 1.71323 1.44199 1.56812 1.62101 1.56812H14.9754C15.1544 1.56812 15.2995 1.71323 15.2995 1.89225ZM10.5996 12.5887H5.99684C5.54931 12.5887 5.1865 12.9515 5.1865 13.3991C5.1865 13.4886 5.25908 13.5611 5.34857 13.5611H11.2478C11.3373 13.5611 11.4099 13.4886 11.4099 13.3991C11.4099 12.9515 11.0471 12.5887 10.5996 12.5887Z" fill="#91B9FF"/>
<path d="M15.2988 1.89225V10.968C15.2988 11.1471 15.1537 11.2922 14.9747 11.2922H2.59269C2.41367 11.2922 2.26855 11.1471 2.26855 10.968V1.89225C2.26855 1.71323 2.41367 1.56812 2.59269 1.56812H14.9747C15.1537 1.56812 15.2988 1.71323 15.2988 1.89225ZM10.5988 12.5887H6.88749C6.43995 12.5887 6.07715 12.9515 6.07715 13.3991C6.07715 13.4886 6.14972 13.5611 6.23922 13.5611H11.2471C11.3366 13.5611 11.4092 13.4886 11.4092 13.3991C11.4092 12.9515 11.0464 12.5887 10.5988 12.5887Z" fill="#A5CDFA"/>
<path d="M14.3264 10.3198H2.26851C2.17902 10.3198 2.10645 10.2472 2.10645 10.1577V2.7026C2.10645 2.6131 2.17902 2.54053 2.26851 2.54053H14.3264C14.4159 2.54053 14.4884 2.6131 14.4884 2.7026V10.1577C14.4884 10.2472 14.4159 10.3198 14.3264 10.3198Z" fill="#FFEBDC"/>
<path d="M2.75472 10.3198H2.26851C2.17902 10.3198 2.10645 10.2472 2.10645 10.1577V2.7026C2.10645 2.6131 2.17902 2.54053 2.26851 2.54053H2.75472C2.66522 2.54053 2.59265 2.6131 2.59265 2.7026V10.1577C2.59265 10.2472 2.66522 10.3198 2.75472 10.3198Z" fill="#FFE1C3"/>
<path d="M11.0206 16.7339C10.1676 17.0301 9.25167 17.1915 8.29787 17.1915C5.76829 17.1915 3.50346 16.0592 1.98145 14.2743H10.6965C10.8755 14.2743 11.0206 14.4194 11.0206 14.5984V16.7339Z" fill="#A5CDFA"/>
<path d="M12.6006 15.9903C12.4235 15.7686 12.3174 15.4877 12.3174 15.1818V13.8853C12.3174 13.1692 12.8979 12.5887 13.6139 12.5887C14.33 12.5887 14.9105 13.1692 14.9105 13.8853V13.9066C14.2795 14.7376 13.4958 15.4464 12.6006 15.9903Z" fill="#A5CDFA"/>
<path d="M12.9332 14.9872C12.9332 15.2295 13 15.456 13.1157 15.6499C12.9484 15.7695 12.7767 15.8832 12.6004 15.9903C12.4233 15.7686 12.3171 15.4877 12.3171 15.1818V13.8853C12.3171 13.1927 12.8601 12.6271 13.5436 12.5907C13.1771 12.8198 12.9332 13.2267 12.9332 13.6907V14.9872ZM13.6137 12.9129C13.4346 12.9129 13.2895 13.058 13.2895 13.237V13.5612C13.2895 13.7402 13.4346 13.8853 13.6137 13.8853C13.7927 13.8853 13.9378 13.7402 13.9378 13.5612V13.237C13.9378 13.058 13.7927 12.9129 13.6137 12.9129ZM6.96889 15.8301H6.64475C6.55526 15.8301 6.48268 15.9027 6.48268 15.9922V16.3163C6.48268 16.4058 6.55526 16.4784 6.64475 16.4784H6.96889C7.05838 16.4784 7.13095 16.4058 7.13095 16.3163V15.9922C7.13095 15.9027 7.05838 15.8301 6.96889 15.8301ZM6.96889 16.8025H6.64475C6.55526 16.8025 6.48268 16.8751 6.48268 16.9646V16.9918C6.6958 17.0394 6.912 17.0786 7.13095 17.1094V16.9646C7.13095 16.8751 7.05838 16.8025 6.96889 16.8025ZM5.99648 16.8025H5.78132C5.90248 16.841 6.02487 16.8767 6.14837 16.9098C6.12581 16.8474 6.06665 16.8025 5.99648 16.8025ZM5.02407 14.8577H2.5293C2.7678 15.0884 3.02007 15.3049 3.28479 15.506H5.02407C5.11357 15.506 5.18614 15.4334 5.18614 15.3439V15.0198C5.18614 14.9303 5.11357 14.8577 5.02407 14.8577ZM5.99648 15.8301H5.67234C5.58285 15.8301 5.51028 15.9027 5.51028 15.9922V16.3163C5.51028 16.4058 5.58285 16.4784 5.67234 16.4784H5.99648C6.08597 16.4784 6.15855 16.4058 6.15855 16.3163V15.9922C6.15855 15.9027 6.08597 15.8301 5.99648 15.8301ZM5.67234 15.506H6.64475C6.73424 15.506 6.80682 15.4334 6.80682 15.3439V15.0198C6.80682 14.9303 6.73424 14.8577 6.64475 14.8577H5.67234C5.58285 14.8577 5.51028 14.9303 5.51028 15.0198V15.3439C5.51028 15.4334 5.58285 15.506 5.67234 15.506ZM5.02407 15.8301H3.74315C4.11821 16.0769 4.51434 16.2941 4.92845 16.4784H5.02407C5.11357 16.4784 5.18614 16.4058 5.18614 16.3163V15.9922C5.18614 15.9027 5.11357 15.8301 5.02407 15.8301ZM10.2102 16.8025H8.58956C8.50007 16.8025 8.4275 16.8751 8.4275 16.9646V17.1898C9.09674 17.1796 9.74689 17.0907 10.3687 16.9309C10.3532 16.8576 10.2882 16.8025 10.2102 16.8025ZM10.2102 15.8301H9.56197C9.47248 15.8301 9.3999 15.9027 9.3999 15.9922V16.3163C9.3999 16.4058 9.47248 16.4784 9.56197 16.4784H10.2102C10.2997 16.4784 10.3723 16.4058 10.3723 16.3163V15.9922C10.3723 15.9027 10.2997 15.8301 10.2102 15.8301ZM7.94129 16.8025H7.61716C7.52766 16.8025 7.45509 16.8751 7.45509 16.9646V17.1491C7.66889 17.1707 7.88509 17.184 8.10336 17.189V16.9646C8.10336 16.8751 8.03079 16.8025 7.94129 16.8025ZM10.2102 14.8577H8.9137C8.82421 14.8577 8.75163 14.9303 8.75163 15.0198V15.3439C8.75163 15.4334 8.82421 15.506 8.9137 15.506H10.2102C10.2997 15.506 10.3723 15.4334 10.3723 15.3439V15.0198C10.3723 14.9303 10.2997 14.8577 10.2102 14.8577ZM7.94129 15.8301H7.61716C7.52766 15.8301 7.45509 15.9027 7.45509 15.9922V16.3163C7.45509 16.4058 7.52766 16.4784 7.61716 16.4784H7.94129C8.03079 16.4784 8.10336 16.4058 8.10336 16.3163V15.9922C8.10336 15.9027 8.03079 15.8301 7.94129 15.8301ZM8.4275 15.0198C8.4275 14.9303 8.35492 14.8577 8.26543 14.8577H7.29302C7.20353 14.8577 7.13095 14.9303 7.13095 15.0198V15.3439C7.13095 15.4334 7.20353 15.506 7.29302 15.506H8.26543C8.35492 15.506 8.4275 15.4334 8.4275 15.3439V15.0198ZM8.4275 16.3163C8.4275 16.4058 8.50007 16.4784 8.58956 16.4784H8.9137C9.00319 16.4784 9.07577 16.4058 9.07577 16.3163V15.9922C9.07577 15.9027 9.00319 15.8301 8.9137 15.8301H8.58956C8.50007 15.8301 8.4275 15.9027 8.4275 15.9922V16.3163Z" fill="#91B9FF"/>
<path d="M13.6459 3.51298V6.10606C13.6459 6.28508 13.5008 6.4302 13.3217 6.4302H3.27354C3.09452 6.4302 2.94941 6.28508 2.94941 6.10606V3.51298C2.94941 3.33396 3.09452 3.18884 3.27354 3.18884H13.3217C13.5008 3.18884 13.6459 3.33396 13.6459 3.51298ZM4.21353 8.05088C4.03451 8.05088 3.8894 8.19599 3.8894 8.37501C3.8894 8.55403 4.03451 8.69915 4.21353 8.69915C4.39255 8.69915 4.53767 8.55403 4.53767 8.37501C4.53767 8.19599 4.39255 8.05088 4.21353 8.05088ZM5.18594 9.02328C5.00692 9.02328 4.86181 9.1684 4.86181 9.34742C4.86181 9.52644 5.00692 9.67156 5.18594 9.67156C5.36496 9.67156 5.51008 9.52644 5.51008 9.34742C5.51008 9.1684 5.36496 9.02328 5.18594 9.02328ZM3.24113 9.02328C3.06211 9.02328 2.91699 9.1684 2.91699 9.34742C2.91699 9.52644 3.06211 9.67156 3.24113 9.67156C3.42015 9.67156 3.56526 9.52644 3.56526 9.34742C3.56526 9.1684 3.42015 9.02328 3.24113 9.02328Z" fill="#FF784B"/>
<path d="M8.89659 3.18884H11.5887C12.0535 3.57531 12.3495 4.15781 12.3495 4.80952C12.3495 5.46123 12.0535 6.04373 11.5887 6.4302H8.89655C8.43177 6.04373 8.13574 5.46123 8.13574 4.80952C8.13574 4.15781 8.43178 3.57531 8.89659 3.18884Z" fill="#FF5019"/>
<path d="M9.43226 6.10606C9.43226 6.21708 9.42105 6.32547 9.39979 6.4302H6.22339C6.20212 6.32547 6.19091 6.21708 6.19091 6.10606C6.19091 5.211 6.91652 4.48539 7.81159 4.48539C8.70665 4.48539 9.43226 5.211 9.43226 6.10606ZM4.33351 3.18884C4.27825 3.28427 4.24609 3.39477 4.24609 3.51298C4.24609 3.87102 4.53632 4.16125 4.89437 4.16125C5.25241 4.16125 5.54264 3.87102 5.54264 3.51298C5.54264 3.39477 5.51048 3.28427 5.45522 3.18884H4.33351Z" fill="#FF9B69"/>
<path d="M5.51024 5.7819V7.07844C5.51024 7.25746 5.36513 7.40258 5.18611 7.40258H3.88957C3.71055 7.40258 3.56543 7.25746 3.56543 7.07844V5.7819C3.56543 5.60288 3.71055 5.45776 3.88957 5.45776H5.18611C5.36513 5.45776 5.51024 5.60288 5.51024 5.7819ZM13.4516 7.72671H6.96885C6.87936 7.72671 6.80679 7.79929 6.80679 7.88878V8.21292C6.80679 8.30241 6.87936 8.37498 6.96885 8.37498H13.4516C13.5411 8.37498 13.6136 8.30241 13.6136 8.21292V7.88878C13.6136 7.79929 13.5411 7.72671 13.4516 7.72671ZM13.4516 9.02326H6.96885C6.87936 9.02326 6.80679 9.09583 6.80679 9.18532V9.50946C6.80679 9.59895 6.87936 9.67153 6.96885 9.67153H13.4516C13.5411 9.67153 13.6136 9.59895 13.6136 9.50946V9.18532C13.6136 9.09583 13.5411 9.02326 13.4516 9.02326Z" fill="#FFD7AA"/>
<path d="M5.18594 5.94393V6.91633C5.18594 7.00583 5.11337 7.0784 5.02387 7.0784H4.05147C3.96197 7.0784 3.8894 7.00583 3.8894 6.91633V5.94393C3.8894 5.85443 3.96197 5.78186 4.05147 5.78186H5.02387C5.11337 5.78186 5.18594 5.85443 5.18594 5.94393ZM3.24113 8.05081C3.06211 8.05081 2.91699 8.19593 2.91699 8.37495C2.91699 8.55397 3.06211 8.69908 3.24113 8.69908C3.42015 8.69908 3.56526 8.55397 3.56526 8.37495C3.56526 8.19593 3.42015 8.05081 3.24113 8.05081ZM4.21353 9.02322C4.03451 9.02322 3.8894 9.16833 3.8894 9.34735C3.8894 9.52637 4.03451 9.67149 4.21353 9.67149C4.39255 9.67149 4.53767 9.52637 4.53767 9.34735C4.53767 9.16833 4.39255 9.02322 4.21353 9.02322Z" fill="#FF9B69"/>
<path d="M4.86214 6.43009C4.86214 6.60911 4.71702 6.75423 4.538 6.75423C4.35898 6.75423 4.21387 6.60911 4.21387 6.43009C4.21387 6.25107 4.35898 6.10596 4.538 6.10596C4.71702 6.10596 4.86214 6.25107 4.86214 6.43009ZM5.18627 8.05077C5.00725 8.05077 4.86214 8.19589 4.86214 8.37491C4.86214 8.55393 5.00725 8.69904 5.18627 8.69904C5.36529 8.69904 5.51041 8.55393 5.51041 8.37491C5.51041 8.19589 5.36529 8.05077 5.18627 8.05077Z" fill="#FF5019"/>
</g>
<defs>
<clipPath id="clip0">
<rect y="0.595703" width="16.5957" height="16.5957" fill="white"/>
</clipPath>
</defs>
</svg>
