<svg width="17" height="18" viewBox="0 0 17 18" fill="none" xmlns="http://www.w3.org/2000/svg">
<g clip-path="url(#clip0)">
<path d="M8.29784 17.4902C12.8682 17.4902 16.5957 13.7627 16.5957 9.19238C16.5957 4.62207 12.8682 0.894531 8.29784 0.894531C3.72754 0.894531 0 4.62207 0 9.19238C0 13.7627 3.72754 17.4902 8.29784 17.4902Z" fill="#5DDDD3"/>
<path d="M10.8555 3.16028L3.11133 6.29546L7.56847 17.3051L15.3126 14.1699L10.8555 3.16028Z" fill="white"/>
<path d="M0.223633 11.3753H7.32262V2.89246H0.223633V11.3753Z" fill="#15BDB1"/>
<path d="M5.16785 11.3752H7.3233V4.59021L3.11133 6.2954L5.16785 11.3753V11.3752Z" fill="#C8CACC"/>
<path d="M0 11.1297H7.09899V2.64685H0V11.1297Z" fill="#666666"/>
<path d="M0.846953 5.41821H1.57791C1.67691 5.41821 1.75787 5.49912 1.75787 5.59817V6.32913C1.75787 6.42812 1.67697 6.50909 1.57791 6.50909H0.846953C0.747962 6.50909 0.666992 6.42812 0.666992 6.32913V5.59817C0.666992 5.49918 0.747962 5.41821 0.846953 5.41821Z" fill="white"/>
<path d="M2.26395 5.41821H2.99497C3.09396 5.41821 3.17487 5.49912 3.17487 5.59817V6.32913C3.17487 6.42812 3.09396 6.50909 2.99497 6.50909H2.26395C2.16505 6.50909 2.08398 6.42812 2.08398 6.32913V5.59817C2.08402 5.49918 2.16499 5.41821 2.26395 5.41821Z" fill="white"/>
<path d="M3.68078 5.41821H4.4118C4.5107 5.41821 4.59176 5.49912 4.59176 5.59817V6.32913C4.59176 6.42812 4.51073 6.50909 4.4118 6.50909H3.68078C3.58188 6.50909 3.50098 6.42812 3.50098 6.32913V5.59817C3.50098 5.49918 3.58188 5.41821 3.68078 5.41821Z" fill="#FBB429"/>
<path d="M5.09793 5.41821H5.82889C5.92788 5.41821 6.00885 5.49912 6.00885 5.59817V6.32913C6.00885 6.42812 5.92788 6.50909 5.82889 6.50909H5.09793C4.99894 6.50909 4.91797 6.42812 4.91797 6.32913V5.59817C4.918 5.49918 4.99887 5.41821 5.09793 5.41821Z" fill="#FF5B61"/>
<path d="M0.846953 6.80396H1.57791C1.67691 6.80396 1.75787 6.88499 1.75787 6.98392V7.71488C1.75787 7.81387 1.67697 7.89484 1.57791 7.89484H0.846953C0.747962 7.89484 0.666992 7.81393 0.666992 7.71488V6.98392C0.666992 6.88499 0.747962 6.80396 0.846953 6.80396Z" fill="white"/>
<path d="M2.26395 6.80396H2.99497C3.09396 6.80396 3.17487 6.88499 3.17487 6.98392V7.71488C3.17487 7.81387 3.09396 7.89484 2.99497 7.89484H2.26395C2.16505 7.89484 2.08398 7.81393 2.08398 7.71488V6.98392C2.08402 6.88499 2.16499 6.80396 2.26395 6.80396Z" fill="white"/>
<path d="M3.68078 6.80396H4.4118C4.5107 6.80396 4.59176 6.88499 4.59176 6.98392V7.71488C4.59176 7.81387 4.51073 7.89484 4.4118 7.89484H3.68078C3.58188 7.89484 3.50098 7.81393 3.50098 7.71488V6.98392C3.50098 6.88499 3.58188 6.80396 3.68078 6.80396Z" fill="white"/>
<path d="M5.09793 6.80396H5.82889C5.92788 6.80396 6.00885 6.88499 6.00885 6.98392V7.71488C6.00885 7.81387 5.92788 7.89484 5.82889 7.89484H5.09793C4.99894 7.89484 4.91797 7.81393 4.91797 7.71488V6.98392C4.918 6.88499 4.99887 6.80396 5.09793 6.80396Z" fill="white"/>
<path d="M0.846953 8.1897H1.57791C1.67691 8.1897 1.75787 8.27067 1.75787 8.36959V9.10061C1.75787 9.19951 1.67697 9.28041 1.57791 9.28041H0.846953C0.747962 9.28041 0.666992 9.19944 0.666992 9.10061V8.36959C0.666992 8.27067 0.747962 8.1897 0.846953 8.1897Z" fill="white"/>
<path d="M2.26395 8.1897H2.99497C3.09396 8.1897 3.17487 8.27067 3.17487 8.36959V9.10061C3.17487 9.19951 3.09396 9.28041 2.99497 9.28041H2.26395C2.16505 9.28041 2.08398 9.19944 2.08398 9.10061V8.36959C2.08402 8.27067 2.16499 8.1897 2.26395 8.1897Z" fill="white"/>
<path d="M3.68078 8.1897H4.4118C4.5107 8.1897 4.59176 8.27067 4.59176 8.36959V9.10061C4.59176 9.19951 4.51073 9.28041 4.4118 9.28041H3.68078C3.58188 9.28041 3.50098 9.19944 3.50098 9.10061V8.36959C3.50098 8.27067 3.58188 8.1897 3.68078 8.1897Z" fill="white"/>
<path d="M5.09793 8.1897H5.82889C5.92788 8.1897 6.00885 8.27067 6.00885 8.36959V9.10061C6.00885 9.19951 5.92788 9.28041 5.82889 9.28041H5.09793C4.99894 9.28041 4.91797 9.19944 4.91797 9.10061V8.36959C4.918 8.27067 4.99887 8.1897 5.09793 8.1897Z" fill="white"/>
<path d="M0.846953 9.57544H1.57791C1.67691 9.57544 1.75787 9.65634 1.75787 9.75534V10.4863C1.75787 10.5853 1.67697 10.6663 1.57791 10.6663H0.846953C0.747962 10.6663 0.666992 10.5853 0.666992 10.4863V9.75534C0.666992 9.65631 0.747962 9.57544 0.846953 9.57544Z" fill="white"/>
<path d="M2.26395 9.57544H2.99497C3.09396 9.57544 3.17487 9.65634 3.17487 9.75534V10.4863C3.17487 10.5853 3.09396 10.6663 2.99497 10.6663H2.26395C2.16505 10.6663 2.08398 10.5853 2.08398 10.4863V9.75534C2.08402 9.65631 2.16499 9.57544 2.26395 9.57544Z" fill="white"/>
<path d="M3.68078 9.57544H4.4118C4.5107 9.57544 4.59176 9.65634 4.59176 9.75534V10.4863C4.59176 10.5853 4.51073 10.6663 4.4118 10.6663H3.68078C3.58188 10.6663 3.50098 10.5853 3.50098 10.4863V9.75534C3.50098 9.65631 3.58188 9.57544 3.68078 9.57544Z" fill="white"/>
<path d="M5.09793 9.57544H5.82889C5.92788 9.57544 6.00885 9.65634 6.00885 9.75534V10.4863C6.00885 10.5853 5.92788 10.6663 5.82889 10.6663H5.09793C4.99894 10.6663 4.91797 10.5853 4.91797 10.4863V9.75534C4.918 9.65631 4.99887 9.57544 5.09793 9.57544Z" fill="white"/>
<path d="M0.482422 3.0929H6.61681V4.44912H0.482422V3.0929Z" fill="#C8CACC"/>
<path d="M5.98562 3.35135C6.0625 3.35135 6.13262 3.38295 6.1835 3.43375L6.18363 3.43381L6.1837 3.43394C6.23459 3.48483 6.26609 3.55494 6.26609 3.63183V3.83694C6.26609 3.91412 6.23449 3.98439 6.1837 4.03512C6.13297 4.08594 6.06276 4.11751 5.98559 4.11751C5.90854 4.11751 5.83836 4.08591 5.78764 4.03512L5.78741 4.03489C5.73658 3.98407 5.70508 3.91396 5.70508 3.83694V3.63183C5.70508 3.55465 5.73668 3.48447 5.78741 3.43371C5.83823 3.38289 5.90841 3.35132 5.98565 3.35132H5.98562V3.35135ZM6.11262 3.50473C6.0801 3.47222 6.03515 3.452 5.98562 3.452C5.93622 3.452 5.8912 3.47229 5.85856 3.50489C5.82588 3.53747 5.80566 3.58249 5.80566 3.63189V3.83701C5.80566 3.88647 5.82588 3.93156 5.8584 3.96413C5.89107 3.99664 5.93599 4.01693 5.98552 4.01693C6.03492 4.01693 6.07994 3.99664 6.11252 3.96413C6.14519 3.93146 6.16542 3.88644 6.16542 3.83707V3.63196C6.16542 3.58249 6.14526 3.53747 6.11268 3.50496L6.11255 3.50483L6.11262 3.50473Z" fill="white"/>
<path d="M8.83984 9.60776H9.07011V2.48657H8.83984V9.60776Z" fill="#EC4B53"/>
<path d="M9.30065 9.60776H9.07031V2.48657H9.30065V9.60776Z" fill="#FF5B61"/>
<path d="M9.2998 9.60776H9.53014V2.48657H9.2998V9.60776Z" fill="#EC4B53"/>
<path d="M9.1857 11.1248L9.53082 9.60779H8.83984L9.1857 11.1248Z" fill="#FBB429"/>
<path d="M8.83984 2.48652H9.53078V2.2616H8.83984V2.48652Z" fill="white"/>
<path d="M9.06477 1.81201H9.3059C9.42962 1.81201 9.53082 1.91314 9.53082 2.03693V2.26175H8.83984V2.03693C8.83984 1.91314 8.94104 1.81201 9.06477 1.81201Z" fill="#0E7886"/>
<path d="M9.17152 11.2344H9.20033L9.31524 10.556H9.05762L9.17152 11.2344Z" fill="#0E7886"/>
<path d="M7.76254 15.4756L10.8591 14.1996L10.9024 14.3052L7.80591 15.5813L7.76254 15.4756ZM7.2998 14.2044L7.34317 14.3101L11.6114 12.5512L11.5681 12.4456L7.2998 14.2044ZM7.53114 14.8401L7.57451 14.9457L11.8428 13.1868L11.7994 13.0811L7.53114 14.8401Z" fill="#D0D1D4"/>
<path d="M8.95288 12.9827L8.77759 12.5476L8.3448 12.7221L8.27148 12.54L8.70427 12.3656L8.52982 11.9328L8.71406 11.8585L8.88851 12.2913L9.3213 12.1169L9.39462 12.2989L8.96173 12.4733L9.13712 12.9084L8.95288 12.9826V12.9827Z" fill="#15BDB1"/>
<path d="M10.8154 8.45294V8.22974H11.6953V8.45294H10.8154Z" fill="#15BDB1"/>
<path d="M11.6379 10.9578C11.6796 10.9578 11.7126 10.9482 11.7368 10.9292C11.7613 10.91 11.7791 10.8852 11.7916 10.8545C11.8036 10.8238 11.8112 10.7894 11.8143 10.7515C11.8171 10.7136 11.8188 10.6754 11.8188 10.6371C11.8188 10.5999 11.8171 10.5634 11.8136 10.5268C11.8102 10.4906 11.8027 10.4579 11.7906 10.4289C11.7785 10.4 11.7607 10.3765 11.7369 10.3587C11.7134 10.3411 11.681 10.3321 11.6401 10.3321C11.5997 10.3321 11.5673 10.3407 11.5433 10.3582C11.5191 10.3758 11.5005 10.399 11.4878 10.4279C11.475 10.4569 11.4664 10.4899 11.4626 10.5268C11.4585 10.5641 11.4564 10.6019 11.4564 10.6408C11.4564 10.6787 11.4581 10.7163 11.4616 10.7538C11.4647 10.7917 11.4727 10.8255 11.4854 10.8558C11.4978 10.8861 11.5161 10.9106 11.5402 10.9295C11.5647 10.9485 11.5971 10.9578 11.6381 10.9578L11.6379 10.9578ZM11.3078 10.6398C11.3078 10.5726 11.3147 10.5116 11.3281 10.4572C11.3415 10.4028 11.3623 10.3566 11.3898 10.3183C11.4174 10.2804 11.4519 10.2511 11.4935 10.2304C11.5356 10.2101 11.5845 10.1998 11.641 10.1998C11.6961 10.1998 11.744 10.2098 11.785 10.2295C11.8257 10.2494 11.8595 10.2783 11.8863 10.3159C11.9132 10.3535 11.9335 10.3996 11.9469 10.4541C11.9604 10.5088 11.967 10.5706 11.967 10.6398C11.967 10.7859 11.9408 10.8968 11.8878 10.973C11.835 11.049 11.7517 11.087 11.6379 11.087C11.5236 11.087 11.4402 11.049 11.3871 10.973C11.3344 10.8968 11.3078 10.7858 11.3078 10.6398ZM10.7276 10.1877C10.7693 10.1877 10.8024 10.1782 10.8265 10.1588C10.8505 10.1398 10.8688 10.1147 10.8809 10.0844C10.8929 10.0537 10.9008 10.0189 10.9039 9.97969C10.9074 9.94073 10.9091 9.90144 10.9091 9.86183C10.9091 9.82601 10.9074 9.79052 10.9039 9.75464C10.9008 9.71911 10.893 9.68673 10.8809 9.65814C10.8688 9.62956 10.8509 9.60648 10.8268 9.58846C10.803 9.5706 10.7706 9.56165 10.7296 9.56165C10.6889 9.56165 10.6569 9.57066 10.6325 9.58823C10.6083 9.60538 10.5898 9.62845 10.577 9.65711C10.5642 9.6857 10.556 9.71843 10.5518 9.75539C10.5477 9.79192 10.5456 9.82906 10.5456 9.8666C10.5456 9.90556 10.5473 9.94449 10.5507 9.98274C10.5542 10.021 10.5621 10.0555 10.5745 10.0858C10.587 10.116 10.6052 10.1405 10.6296 10.1595C10.6537 10.1781 10.6865 10.1877 10.7275 10.1877H10.7276V10.1877ZM10.3975 9.86971C10.3975 9.80252 10.404 9.74151 10.4175 9.68738C10.4309 9.63335 10.4519 9.58713 10.4799 9.54923C10.5077 9.51099 10.5425 9.48204 10.5843 9.46139C10.6258 9.44068 10.6749 9.43066 10.7314 9.43066C10.7862 9.43066 10.8336 9.44039 10.8743 9.46026C10.915 9.48035 10.9487 9.50891 10.976 9.5468C11.0029 9.58424 11.0228 9.6305 11.0363 9.68495C11.0497 9.73934 11.0566 9.80102 11.0566 9.86961C11.0566 10.0157 11.0301 10.1266 10.9773 10.2028C10.9247 10.2786 10.8413 10.3169 10.7276 10.3169C10.6139 10.3169 10.5305 10.2786 10.4771 10.2028C10.424 10.1266 10.3975 10.0157 10.3975 9.86961V9.86971ZM10.5074 11.0839L11.7802 9.38318L11.8642 9.44071L10.6014 11.1377L10.5074 11.0839Z" fill="#D0D1D4"/>
<path d="M12.7293 7.32193L12.5271 7.14748C12.4275 7.2373 12.3342 7.29986 12.2471 7.33493C12.16 7.37003 12.0602 7.37882 11.9482 7.36238C11.8358 7.34553 11.7244 7.29555 11.6129 7.21273L11.7482 6.97676C11.871 7.0553 11.9748 7.09675 12.0602 7.10084C12.1811 7.10635 12.2801 7.07283 12.357 7.00078L11.7222 6.45321C11.6291 6.51788 11.5208 6.57214 11.3975 6.61674C11.3064 6.65026 11.2139 6.65677 11.1202 6.63684C11.0262 6.61655 10.9393 6.57159 10.8585 6.5019C10.7149 6.37798 10.6424 6.22661 10.6406 6.04808C10.6394 5.92873 10.6899 5.79587 10.7917 5.65065L10.6952 5.56732L10.7984 5.44784L10.8949 5.53111C11.0068 5.42385 11.1216 5.36123 11.2386 5.34259C11.3878 5.31838 11.5346 5.35274 11.6784 5.44544L11.5322 5.68015C11.4419 5.62291 11.3587 5.59467 11.2834 5.5959C11.2082 5.59639 11.1356 5.62398 11.065 5.67794L11.6474 6.18029C11.7609 6.10123 11.8391 6.05174 11.8816 6.03099C11.9635 5.99197 12.0411 5.97009 12.115 5.96497C12.1887 5.95916 12.2619 5.96954 12.3353 5.9954C12.4078 6.02127 12.4764 6.06172 12.5401 6.11653C12.6799 6.23718 12.758 6.38203 12.7752 6.55185C12.792 6.72137 12.7427 6.87923 12.628 7.02616L12.8325 7.20268L12.7295 7.32216L12.7293 7.32193ZM10.9595 5.79535C10.9039 5.88367 10.8819 5.97288 10.8945 6.06198C10.9064 6.15118 10.9471 6.22557 11.0169 6.28573C11.0858 6.34528 11.1602 6.376 11.2396 6.37763C11.3189 6.37934 11.4104 6.3446 11.5134 6.27316L10.9595 5.79535ZM12.4601 6.88127C12.5183 6.79443 12.54 6.7003 12.5257 6.59849C12.5114 6.4973 12.4611 6.40916 12.3753 6.33513C12.3018 6.27173 12.2277 6.23922 12.1514 6.23685C12.0756 6.23491 11.9772 6.27624 11.8559 6.36012L12.4601 6.88127Z" fill="#FBB429"/>
<path d="M12.8414 12.2612L12.9334 11.9371L12.6094 11.845L12.6447 11.7205L12.9688 11.8126L13.0608 11.4885L13.1853 11.5239L13.0932 11.848L13.4173 11.94L13.3819 12.0645L13.0579 11.9724L12.9657 12.2965L12.8413 12.2612H12.8414Z" fill="#D0D1D4"/>
</g>
<defs>
<clipPath id="clip0">
<rect y="0.893555" width="16.5957" height="16.5957" fill="white"/>
</clipPath>
</defs>
</svg>
