<svg width="18" height="18" viewBox="0 0 18 18" fill="none" xmlns="http://www.w3.org/2000/svg">
<g clip-path="url(#clip0)">
<path d="M17.1485 8.9573C17.1485 10.1847 16.882 11.3498 16.4037 12.3981C15.5862 14.1901 14.1497 15.6399 12.3679 16.4752C12.0451 16.6263 11.7109 16.7573 11.3667 16.8663C10.9796 16.99 10.5803 17.0851 10.1704 17.1505C10.1688 17.1508 10.1668 17.1512 10.165 17.1512C9.96394 17.1834 9.76097 17.2081 9.55548 17.2254C9.51167 17.2291 9.46773 17.2325 9.42367 17.2355C9.36163 17.2396 9.29933 17.2433 9.23666 17.2461C9.10865 17.2521 8.98001 17.2552 8.85061 17.2552C8.71779 17.2552 8.58611 17.2521 8.45506 17.2457C8.3958 17.243 8.33642 17.2396 8.27717 17.2352C8.23285 17.2321 8.18879 17.2291 8.14473 17.2254C7.93442 17.2078 7.72613 17.182 7.52064 17.1488C7.42238 17.1329 7.32451 17.1156 7.22765 17.0963C6.80729 17.013 6.39882 16.8982 6.00429 16.7539C5.77562 16.6706 5.55177 16.5774 5.33298 16.4748C5.25853 16.4399 5.18433 16.4037 5.11077 16.3661C4.92185 16.2706 4.73725 16.1679 4.55708 16.0585C3.65443 15.5119 2.86461 14.7979 2.22988 13.9597C1.8489 13.4565 1.52413 12.9085 1.26469 12.3245C0.807105 11.2956 0.552734 10.1562 0.552734 8.9573C0.552734 4.37445 4.26776 0.659424 8.85061 0.659424C13.4335 0.659424 17.1485 4.37445 17.1485 8.9573Z" fill="#FFE152"/>
<path d="M7.2276 11.4277V17.0962C6.80724 17.0129 6.39878 16.8982 6.00425 16.7539C5.77558 16.6705 5.55172 16.5774 5.33293 16.4748C5.25848 16.4399 5.18428 16.4036 5.11072 16.366C4.92181 16.2706 4.7372 16.1679 4.55703 16.0585C3.65439 15.5119 2.86456 14.7979 2.22984 13.9597C1.84885 13.4564 1.52408 12.9084 1.26465 12.3245V11.4277C1.26465 10.3873 1.97116 9.51171 2.93065 9.25531C2.96585 9.24582 3.00105 9.23695 3.03701 9.22961C3.1321 9.20859 3.22997 9.19428 3.32962 9.18618C3.39027 9.1815 3.45155 9.17871 3.51347 9.17871H4.97828C5.14187 9.17871 5.3014 9.19606 5.45524 9.22961C5.46398 9.23126 5.47284 9.23328 5.48158 9.23531C5.50741 9.24113 5.53349 9.24746 5.55881 9.2543C5.55957 9.25468 5.5602 9.25468 5.56084 9.25493C5.8142 9.32267 6.04957 9.43346 6.25925 9.57907C6.84447 9.98512 7.2276 10.6615 7.2276 11.4277Z" fill="#2BA1CF"/>
<path d="M7.22824 11.4277V17.0962C6.80787 17.0129 6.39941 16.8982 6.00488 16.7539C5.77621 16.6705 5.55235 16.5774 5.33356 16.4748C5.25911 16.4399 5.18491 16.4036 5.11135 16.366C4.92244 16.2706 4.73784 16.1679 4.55766 16.0585C3.65502 15.5119 2.86519 14.7979 2.23047 13.9597V11.4277C2.23047 10.3873 2.93698 9.51171 3.89648 9.25531C3.9318 9.24582 3.967 9.23695 4.00283 9.22961C4.09805 9.20859 4.19592 9.19428 4.29544 9.18618C4.35609 9.1815 4.41737 9.17871 4.47941 9.17871H4.97891C5.1425 9.17871 5.30203 9.19606 5.45587 9.22961C5.46461 9.23126 5.47347 9.23328 5.48221 9.23531C5.50804 9.24113 5.53412 9.24746 5.55944 9.2543C5.5602 9.25468 5.56084 9.25468 5.56147 9.25493C5.81483 9.32267 6.0502 9.43346 6.25988 9.57907C6.8451 9.98512 7.22824 10.6615 7.22824 11.4277Z" fill="#66BAED"/>
<path d="M5.56673 9.22949L5.56141 9.25494L4.88858 12.3842C4.824 12.685 4.55938 12.903 4.25195 12.9032C4.25005 12.9032 4.24828 12.9032 4.24651 12.9032C4.24448 12.9032 4.24258 12.9032 4.24056 12.9032C3.93301 12.903 3.66851 12.685 3.60393 12.3842L2.9311 9.2552L2.92578 9.22949H5.56673Z" fill="#F2F0EC"/>
<path d="M4.24625 10.0995L3.23371 10.6621L2.92578 9.22949L3.55493 8.85901" fill="#D8D5D0"/>
<path d="M4.24609 10.0995L5.25864 10.6621L5.56657 9.22949L4.93741 8.85901" fill="#D8D5D0"/>
<path d="M1.22363 8.63666V5.24489C1.22363 4.90024 1.28112 4.56256 1.39456 4.24121C1.81911 3.03329 2.96536 2.22144 4.24683 2.22144C4.40561 2.22144 4.564 2.23372 4.71797 2.25803C5.42195 2.36806 6.06794 2.72739 6.53629 3.26994C7.00958 3.81831 7.27028 4.51963 7.27028 5.24489V8.63666" fill="#CC7A3B"/>
<path d="M2.4664 5.37744C2.4664 6.57712 3.16899 7.96508 3.55479 8.63678H1.22266V5.245C1.22266 4.90048 1.28027 4.5628 1.39359 4.24132C1.8156 3.04037 2.95134 2.23092 4.22395 2.2218C3.29447 2.24497 2.4664 3.73625 2.4664 5.37744Z" fill="#A35418"/>
<path d="M5.04808 8.3125V9.29732C5.04808 9.65779 4.81043 9.96255 4.483 10.0637C4.40804 10.087 4.32815 10.0996 4.24559 10.0996C3.80244 10.0996 3.44336 9.74047 3.44336 9.29732V8.3125H5.04808Z" fill="#EAB599"/>
<path d="M5.04839 9.23486V9.29728C5.04839 9.65776 4.81073 9.96252 4.48331 10.0637C4.18791 9.9729 3.96583 9.716 3.9248 9.40174C3.97836 9.40503 4.0323 9.40668 4.08637 9.40668C4.23818 9.40668 4.38708 9.39465 4.53193 9.37085C4.71058 9.34211 4.88328 9.29615 5.04839 9.23486Z" fill="#F6CAAE"/>
<path d="M2.04515 6.69854C2.04515 7.07003 1.77381 7.37808 1.4184 7.43519C1.37966 7.44152 1.33965 7.44481 1.29888 7.44481C0.886746 7.44481 0.552734 7.1108 0.552734 6.69854C0.552734 6.2864 0.886746 5.95239 1.29888 5.95239C1.33965 5.95239 1.37966 5.95568 1.4184 5.96202C1.77381 6.01912 2.04515 6.32705 2.04515 6.69854Z" fill="#F6CAAE"/>
<path d="M2.0451 6.69856C2.0451 7.07005 1.77376 7.3781 1.41835 7.43521C1.3539 7.20059 1.31934 6.95356 1.31934 6.69856C1.31934 6.44368 1.3539 6.19665 1.41835 5.96204C1.77376 6.01914 2.0451 6.32707 2.0451 6.69856Z" fill="#EAB599"/>
<path d="M1.56566 6.69854C1.56566 6.84592 1.44626 6.96532 1.29888 6.96532C1.15162 6.96532 1.03223 6.84592 1.03223 6.69854C1.03223 6.55128 1.15162 6.43188 1.29888 6.43188C1.44626 6.43188 1.56566 6.55128 1.56566 6.69854Z" fill="#EAB599"/>
<path d="M6.16197 5.74586V8.31083C5.76554 8.68929 5.25718 8.95138 4.69158 9.04255C4.68715 9.04331 4.68234 9.04406 4.67791 9.04482C4.53737 9.06724 4.39315 9.07838 4.2459 9.07838C2.71271 9.07838 1.46973 7.83539 1.46973 6.30221V5.24497C1.46973 5.10962 1.47935 4.97642 1.49809 4.84626C2.15864 5.32132 3.10573 5.27434 3.70917 4.70407C3.90897 4.51528 4.04787 4.29054 4.12637 4.05212C4.17006 4.46958 4.36099 4.87588 4.69943 5.19584C5.10232 5.57619 5.63462 5.75966 6.16197 5.74586Z" fill="#EAB599"/>
<path d="M6.16267 5.74586V8.31083C5.76624 8.68929 5.25788 8.95138 4.69229 9.04254C4.68786 9.0433 4.68305 9.04406 4.67861 9.04482C3.35067 8.8373 2.33496 7.68814 2.33496 6.30221V5.24497C2.33496 5.21686 2.33547 5.18888 2.33648 5.16102C2.82598 5.21116 3.33446 5.05897 3.70988 4.70394C3.90968 4.51528 4.04857 4.29041 4.12708 4.05212C4.17076 4.46958 4.3617 4.87588 4.70014 5.19584C5.10303 5.57619 5.63532 5.75966 6.16267 5.74586Z" fill="#F6CAAE"/>
<path d="M5.73672 6.0677C5.73672 5.81295 5.53021 5.60657 5.27559 5.60657C5.02096 5.60657 4.81445 5.81295 4.81445 6.0677" fill="#EAB599"/>
<path d="M3.678 6.0677C3.678 5.81295 3.47149 5.60657 3.21687 5.60657C2.96224 5.60657 2.75586 5.81295 2.75586 6.0677" fill="#EAB599"/>
<path d="M3.53128 6.26399C3.53128 6.43796 3.39023 6.57901 3.21626 6.57901C3.04229 6.57901 2.90137 6.43796 2.90137 6.26399C2.90137 6.09002 3.04229 5.9491 3.21626 5.9491C3.39023 5.9491 3.53128 6.09002 3.53128 6.26399Z" fill="#3D4159"/>
<path d="M5.5917 6.26399C5.5917 6.43796 5.45078 6.57901 5.27681 6.57901C5.10284 6.57901 4.96191 6.43796 4.96191 6.26399C4.96191 6.09002 5.10284 5.9491 5.27681 5.9491C5.45078 5.9491 5.5917 6.09002 5.5917 6.26399Z" fill="#3D4159"/>
<path d="M4.56167 7.05687H3.93176C3.85667 7.05687 3.7959 6.99597 3.7959 6.92101C3.7959 6.84606 3.85667 6.78516 3.93176 6.78516H4.56167C4.63663 6.78516 4.6974 6.84606 4.6974 6.92101C4.6974 6.99597 4.63663 7.05687 4.56167 7.05687Z" fill="#EAB599"/>
<path d="M4.24578 7.91657C4.01331 7.91657 3.78085 7.85833 3.56889 7.74172C3.50913 7.70892 3.48735 7.63384 3.52015 7.57408C3.55307 7.51431 3.62815 7.49254 3.68791 7.52533C4.03724 7.71741 4.45432 7.71741 4.80365 7.52533C4.86341 7.49241 4.93849 7.51431 4.97141 7.57408C5.00421 7.63384 4.98243 7.70892 4.92267 7.74172C4.71071 7.85833 4.47825 7.91657 4.24578 7.91657Z" fill="#EAB599"/>
<path d="M3.46721 6.20834C3.46721 6.28291 3.40669 6.34331 3.33224 6.34331C3.25766 6.34331 3.19727 6.28291 3.19727 6.20834C3.19727 6.13376 3.25766 6.07336 3.33224 6.07336C3.40669 6.07336 3.46721 6.13376 3.46721 6.20834Z" fill="white"/>
<path d="M5.54228 6.20834C5.54228 6.28291 5.48188 6.34331 5.40743 6.34331C5.33286 6.34331 5.27246 6.28291 5.27246 6.20834C5.27246 6.13376 5.33286 6.07336 5.40743 6.07336C5.48188 6.07336 5.54228 6.13376 5.54228 6.20834Z" fill="white"/>
<path d="M6.13604 7.03109C6.13604 7.22203 5.98119 7.37688 5.79012 7.37688C5.59919 7.37688 5.44434 7.22203 5.44434 7.03109C5.44434 6.84003 5.59919 6.68518 5.79012 6.68518C5.98119 6.68518 6.13604 6.84003 6.13604 7.03109Z" fill="#EAB599"/>
<path d="M3.04802 7.03109C3.04802 7.22203 2.8933 7.37688 2.70223 7.37688C2.5113 7.37688 2.35645 7.22203 2.35645 7.03109C2.35645 6.84003 2.5113 6.68518 2.70223 6.68518C2.8933 6.68518 3.04802 6.84003 3.04802 7.03109Z" fill="#EAB599"/>
<path d="M16.4038 11.3594V12.3981C15.5862 14.1901 14.1498 15.64 12.3679 16.4753C12.0452 16.6263 11.7109 16.7574 11.3667 16.8664C10.9797 16.9901 10.5803 17.0852 10.1705 17.1505C10.1688 17.1509 10.1668 17.1513 10.165 17.1513V11.3594C10.165 10.1249 11.1158 9.11205 12.3256 9.01456C12.3893 9.00912 12.4532 9.00684 12.5179 9.00684H14.0502C14.2314 9.00684 14.4078 9.02671 14.5772 9.06571C15.6231 9.30476 16.4038 10.2413 16.4038 11.3594Z" fill="#BFD5DE"/>
<path d="M16.4032 11.3594V12.3981C15.5857 14.1901 14.1492 15.64 12.3674 16.4753C12.0446 16.6263 11.7104 16.7574 11.3662 16.8664V11.3594C11.3662 10.0602 12.4199 9.00684 13.7195 9.00684H14.05C15.3499 9.00684 16.4032 10.0602 16.4032 11.3594Z" fill="#DDE8ED"/>
<path d="M10.9813 6.41169C10.9813 6.8004 10.6975 7.12264 10.3257 7.1824C10.2851 7.18898 10.2433 7.1924 10.2006 7.1924C9.76938 7.1924 9.41992 6.84294 9.41992 6.41169C9.41992 5.98044 9.76938 5.63098 10.2006 5.63098C10.2433 5.63098 10.2851 5.6344 10.3257 5.64098C10.6975 5.70087 10.9813 6.02311 10.9813 6.41169Z" fill="#D3A489"/>
<path d="M13.9157 9.85547L13.284 10.8686L12.6523 9.85547" fill="#F74F4F"/>
<path d="M14.1344 13.7307L13.2845 14.8032L12.4346 13.7307L13.2847 10.6051L14.1344 13.7307Z" fill="#F74F4F"/>
<path d="M10.9818 6.4117C10.9818 6.80041 10.698 7.12265 10.3262 7.18241C10.2587 6.9369 10.2227 6.67848 10.2227 6.4117C10.2227 6.14505 10.2587 5.88663 10.3262 5.64099C10.698 5.70088 10.9818 6.02312 10.9818 6.4117Z" fill="#BF8E75"/>
<path d="M10.4799 6.41162C10.4799 6.56572 10.3549 6.69069 10.2008 6.69069C10.0467 6.69069 9.92188 6.56572 9.92188 6.41162C9.92188 6.25753 10.0467 6.13269 10.2008 6.13269C10.3549 6.13269 10.4799 6.25753 10.4799 6.41162Z" fill="#BF8E75"/>
<path d="M13.2838 9.96981L12.2246 10.5586L11.9023 9.05957L12.5605 8.67188" fill="#BFD5DE"/>
<path d="M13.2842 9.96981L14.3436 10.5586L14.6658 9.05957L14.0075 8.67188" fill="#BFD5DE"/>
<path d="M15.5869 6.41169C15.5869 6.8004 15.8708 7.12264 16.2425 7.1824C16.2832 7.18898 16.325 7.1924 16.3676 7.1924C16.7989 7.1924 17.1483 6.84294 17.1483 6.41169C17.1483 5.98044 16.7989 5.63098 16.3676 5.63098C16.325 5.63098 16.2832 5.6344 16.2425 5.64098C15.8708 5.70087 15.5869 6.02311 15.5869 6.41169Z" fill="#D3A489"/>
<path d="M15.5869 6.41158C15.5869 6.80029 15.8708 7.12252 16.2425 7.18229C16.3101 6.93678 16.3461 6.67836 16.3461 6.41158C16.3461 6.14493 16.3101 5.8865 16.2425 5.64087C15.8708 5.70076 15.5869 6.02299 15.5869 6.41158Z" fill="#BF8E75"/>
<path d="M16.647 6.41162C16.647 6.56572 16.522 6.69068 16.3679 6.69068C16.2138 6.69068 16.0889 6.56572 16.0889 6.41162C16.0889 6.25753 16.2138 6.13269 16.3679 6.13269C16.522 6.13269 16.647 6.25753 16.647 6.41162Z" fill="#BF8E75"/>
<path d="M16.1894 5.99672C16.1894 7.44216 15.1334 8.64134 13.7508 8.86393C13.5992 8.88887 13.4435 8.9014 13.2846 8.9014C11.6802 8.9014 10.3799 7.60106 10.3799 5.99672C10.3799 5.23766 10.6435 4.09812 11.1202 3.58064C11.651 3.00441 12.4393 3.09191 13.2846 3.09191C13.4435 3.09191 13.5991 3.10457 13.7508 3.12951C15.1334 3.3521 16.1894 4.55115 16.1894 5.99672Z" fill="#BF8E75"/>
<path d="M14.1244 8.10022V9.13049C14.1244 9.50768 13.8757 9.82649 13.5331 9.93235C13.4547 9.95666 13.3711 9.96982 13.2846 9.96982C12.8211 9.96982 12.4453 9.59403 12.4453 9.13049V8.10022H14.1244Z" fill="#BF8E75"/>
<path d="M14.1239 9.06519V9.13052C14.1239 9.50771 13.8752 9.82652 13.5326 9.93237C13.2235 9.83741 12.9912 9.56861 12.9482 9.23979C13.0043 9.24321 13.0607 9.24498 13.1174 9.24498C13.2762 9.24498 13.4319 9.23232 13.5836 9.2075C13.7705 9.17737 13.951 9.12938 14.1239 9.06519Z" fill="#D3A489"/>
<path d="M16.1886 5.99673C16.1886 7.44217 15.1327 8.64135 13.75 8.86394C12.3675 8.64135 11.3115 7.44217 11.3115 5.99673C11.3115 5.10662 11.7119 4.30996 12.3426 3.77703C12.7358 3.44454 13.2189 3.21499 13.75 3.12939C15.039 3.33692 16.0444 4.39352 16.1743 5.70703C16.1838 5.80237 16.1886 5.89911 16.1886 5.99673Z" fill="#D3A489"/>
<path d="M13.284 7.42735C13.0407 7.42735 12.7976 7.36645 12.5759 7.24452C12.5132 7.21021 12.4904 7.13158 12.5248 7.06903C12.5592 7.00648 12.6378 6.98369 12.7003 7.01813C13.0657 7.21894 13.5022 7.21894 13.8677 7.01813C13.9301 6.98369 14.0088 7.00648 14.0431 7.06903C14.0775 7.13158 14.0547 7.21021 13.9922 7.24452C13.7705 7.36645 13.5271 7.42735 13.284 7.42735Z" fill="#BF8E75"/>
<path d="M12.6659 5.82775C12.6659 6.0097 12.5184 6.1572 12.3363 6.1572C12.1543 6.1572 12.0068 6.0097 12.0068 5.82775C12.0068 5.64568 12.1543 5.49817 12.3363 5.49817C12.5184 5.49817 12.6659 5.64568 12.6659 5.82775Z" fill="#3D4159"/>
<path d="M14.5624 5.82775C14.5624 6.0097 14.4148 6.1572 14.2329 6.1572C14.0508 6.1572 13.9033 6.0097 13.9033 5.82775C13.9033 5.64568 14.0508 5.49817 14.2329 5.49817C14.4148 5.49817 14.5624 5.64568 14.5624 5.82775Z" fill="#3D4159"/>
<path d="M12.5988 5.76947C12.5988 5.84747 12.5356 5.91078 12.4576 5.91078C12.3796 5.91078 12.3164 5.84747 12.3164 5.76947C12.3164 5.6916 12.3796 5.6283 12.4576 5.6283C12.5356 5.6283 12.5988 5.6916 12.5988 5.76947Z" fill="white"/>
<path d="M14.5109 5.76947C14.5109 5.84747 14.4477 5.91078 14.3697 5.91078C14.2917 5.91078 14.2285 5.84747 14.2285 5.76947C14.2285 5.6916 14.2917 5.6283 14.3697 5.6283C14.4477 5.6283 14.5109 5.6916 14.5109 5.76947Z" fill="white"/>
<path d="M13.6137 6.6573H12.9547C12.8762 6.6573 12.8125 6.59361 12.8125 6.51511C12.8125 6.43661 12.8762 6.37305 12.9547 6.37305H13.6137C13.6922 6.37305 13.7559 6.43661 13.7559 6.51511C13.7558 6.59361 13.6922 6.6573 13.6137 6.6573Z" fill="#BF8E75"/>
<path d="M14.2402 11.2822H15.5065V11.6698H14.2402V11.2822Z" fill="#BFD5DE"/>
<path d="M13.1143 2.26226C13.9942 2.32506 14.7008 3.03588 14.7454 3.93067L14.7538 4.09869H15.26L15.5326 5.91157L16.1929 5.70722L16.1043 3.9308C16.0574 2.99081 15.28 2.25416 14.3393 2.2577L13.1143 2.26226Z" fill="#2A2F4F"/>
<path d="M16.0482 1.56104C16.7489 2.26173 16.7489 3.39785 16.0482 4.09854C15.3476 4.79923 14.2114 4.79923 13.5107 4.09854L16.0482 1.56104Z" fill="#3D4159"/>
<path d="M13.5101 4.09857H11.308L11.0353 5.91158L10.375 5.70722L10.4635 3.93068C10.5104 2.99094 11.2878 2.25404 12.2286 2.25758L15.4091 2.26961L15.8296 3.02639" fill="#3D4159"/>
<path d="M13.4546 2.26226C12.5747 2.32506 11.8681 3.03588 11.8234 3.93067L11.8151 4.09869H11.309L11.0363 5.91157L10.376 5.70722L10.4646 3.9308C10.5115 2.99081 11.2889 2.25416 12.2296 2.2577L13.4546 2.26226Z" fill="#2A2F4F"/>
<path d="M12.3679 15.8531V16.4752C11.3 16.9755 10.1082 17.2552 8.85064 17.2552C7.59309 17.2552 6.40088 16.9755 5.33301 16.4749V15.8531C5.33301 14.6253 6.16652 13.5926 7.29871 13.2899C7.34012 13.2787 7.38177 13.2685 7.42406 13.2593C7.5365 13.2349 7.65197 13.2181 7.76922 13.2086C7.84101 13.2027 7.91318 13.1997 7.98636 13.1997H9.71428C9.90763 13.1997 10.0957 13.2201 10.2772 13.2593C10.2877 13.2614 10.2982 13.2638 10.3084 13.2662C10.3389 13.2733 10.3693 13.2807 10.3994 13.2888C10.4005 13.2891 10.4008 13.2891 10.4018 13.2895C10.7006 13.3694 10.9787 13.5002 11.2256 13.6719C11.9161 14.1508 12.3679 14.949 12.3679 15.8531Z" fill="#3D4159"/>
<path d="M10.4079 13.2593L10.4014 13.2894L9.55512 17.2254C9.51131 17.229 9.46737 17.2325 9.42331 17.2355C9.36127 17.2396 9.29898 17.2432 9.2363 17.246C9.10829 17.2521 8.97965 17.2551 8.85025 17.2551C8.71743 17.2551 8.58575 17.2521 8.4547 17.2456C8.39545 17.243 8.33606 17.2396 8.27681 17.2351C8.23249 17.2321 8.18843 17.229 8.14437 17.2254L7.29832 13.2898L7.29199 13.2593H10.4079Z" fill="#66BAED"/>
<path d="M9.56225 14.1571L8.84991 15.2994L8.1377 14.1571" fill="#3D4159"/>
<path d="M9.42384 17.2356C9.3618 17.2396 9.29951 17.2433 9.23683 17.2461C9.10883 17.2522 8.98018 17.2552 8.85078 17.2552C8.71796 17.2552 8.58628 17.2522 8.45524 17.2457C8.39598 17.243 8.3366 17.2396 8.27734 17.2352L8.85078 15.0022L9.42384 17.2356Z" fill="#3D4159"/>
<path d="M8.85 14.2859L7.65538 14.9498L7.29199 13.2596L8.03421 12.8224" fill="#2BA1CF"/>
<path d="M8.84961 14.2859L10.0441 14.9498L10.4075 13.2596L9.66527 12.8224" fill="#2BA1CF"/>
<path d="M10.454 15.5404H10.8329L10.1711 17.1504C9.86494 17.1995 9.55334 17.2317 9.2373 17.246L10.4 13.2888L10.4089 13.2593L11.2262 13.5262L10.454 15.5404Z" fill="#2A2F4F"/>
<path d="M8.45495 17.2456C8.13854 17.2311 7.82668 17.1983 7.52053 17.1488L6.85934 15.5404H7.2383L6.46582 13.5262L7.28338 13.2593L7.29224 13.2888L8.45495 17.2456Z" fill="#2A2F4F"/>
<path d="M9.79673 12.1776V13.3393C9.79673 13.7647 9.51628 14.1242 9.12997 14.2436C9.04147 14.2711 8.94727 14.2859 8.84977 14.2859C8.32698 14.2859 7.90332 13.8621 7.90332 13.3393V12.1776H9.79673Z" fill="#EAB599"/>
<path d="M9.79649 13.2657V13.3394C9.79649 13.7647 9.51604 14.1242 9.12974 14.2437C8.78116 14.1365 8.51907 13.8335 8.4707 13.4626C8.53401 13.4666 8.59757 13.4685 8.66139 13.4685C8.84055 13.4685 9.01616 13.4543 9.18709 13.4263C9.39791 13.3924 9.60151 13.338 9.79649 13.2657Z" fill="#F6CAAE"/>
<path d="M6.25303 10.2736C6.25303 10.7118 5.93282 11.0752 5.51359 11.1426C5.46776 11.15 5.42066 11.1539 5.37267 11.1539C4.88634 11.1539 4.49219 10.7599 4.49219 10.2736C4.49219 9.78722 4.88621 9.39307 5.37267 9.39307C5.42066 9.39307 5.46776 9.39699 5.51359 9.40446C5.93282 9.47195 6.25303 9.83533 6.25303 10.2736Z" fill="#F6CAAE"/>
<path d="M6.25363 10.2736C6.25363 10.7118 5.93342 11.0752 5.5142 11.1427C5.4381 10.8658 5.39746 10.5743 5.39746 10.2736C5.39746 9.97279 5.4381 9.68145 5.5142 9.40454C5.93342 9.47203 6.25363 9.83541 6.25363 10.2736Z" fill="#EAB599"/>
<path d="M5.68787 10.2736C5.68787 10.4473 5.54695 10.5883 5.37323 10.5883C5.19939 10.5883 5.05859 10.4473 5.05859 10.2736C5.05859 10.0998 5.19939 9.95898 5.37323 9.95898C5.54695 9.95898 5.68787 10.0998 5.68787 10.2736Z" fill="#EAB599"/>
<path d="M11.4473 10.2736C11.4473 10.7118 11.7675 11.0752 12.1867 11.1426C12.2324 11.15 12.2796 11.1539 12.3276 11.1539C12.814 11.1539 13.2081 10.7599 13.2081 10.2736C13.2081 9.78722 12.8141 9.39307 12.3276 9.39307C12.2796 9.39307 12.2324 9.39699 12.1867 9.40446C11.7675 9.47195 11.4473 9.83533 11.4473 10.2736Z" fill="#F6CAAE"/>
<path d="M11.4473 10.2736C11.4473 10.7118 11.7675 11.0752 12.1867 11.1427C12.2628 10.8658 12.3034 10.5743 12.3034 10.2736C12.3034 9.97279 12.2628 9.68145 12.1867 9.40454C11.7675 9.47203 11.4473 9.83541 11.4473 10.2736Z" fill="#EAB599"/>
<path d="M12.1262 8.55851V9.8058C12.1262 11.4358 10.9353 12.788 9.37619 13.0389C9.371 13.0398 9.36543 13.0407 9.36024 13.0416C9.19437 13.0682 9.0242 13.0812 8.85049 13.0812C7.04153 13.0812 5.5752 11.6148 5.5752 9.80592V8.55851C5.5752 8.17765 5.64015 7.8116 5.76018 7.47151C6.20815 6.19675 7.42277 5.28284 8.85049 5.28284H8.85074C9.0242 5.28284 9.19463 5.29626 9.36075 5.32247C10.9275 5.56722 12.1262 6.92301 12.1262 8.55851Z" fill="#EAB599"/>
<path d="M12.642 10.2736C12.642 10.4473 12.5012 10.5883 12.3273 10.5883C12.1536 10.5883 12.0127 10.4473 12.0127 10.2736C12.0127 10.0998 12.1536 9.95898 12.3273 9.95898C12.5012 9.95898 12.642 10.0998 12.642 10.2736Z" fill="#EAB599"/>
<path d="M12.1257 8.55843V9.80572C12.1257 11.4356 10.935 12.7879 9.37584 13.0388C9.37052 13.0397 9.36507 13.0406 9.35976 13.0415C7.79314 12.7966 6.59473 11.441 6.59473 9.80572V8.55843C6.59473 6.92293 7.7934 5.56714 9.36039 5.32239C10.9271 5.56714 12.1257 6.92293 12.1257 8.55843Z" fill="#F6CAAE"/>
<path d="M8.15326 9.6149C8.15326 9.82014 7.98689 9.98651 7.78177 9.98651C7.57653 9.98651 7.41016 9.82014 7.41016 9.6149C7.41016 9.40978 7.57653 9.24341 7.78177 9.24341C7.98689 9.24341 8.15326 9.40978 8.15326 9.6149Z" fill="#3D4159"/>
<path d="M10.2911 9.6149C10.2911 9.82014 10.1247 9.98651 9.91947 9.98651C9.71422 9.98651 9.54785 9.82014 9.54785 9.6149C9.54785 9.40978 9.71422 9.24341 9.91947 9.24341C10.1247 9.24341 10.2911 9.40978 10.2911 9.6149Z" fill="#3D4159"/>
<path d="M8.07723 9.54954C8.07723 9.63741 8.00594 9.7087 7.91795 9.7087C7.83007 9.7087 7.75879 9.63741 7.75879 9.54954C7.75879 9.46154 7.83007 9.39026 7.91795 9.39026C8.00594 9.39026 8.07723 9.46154 8.07723 9.54954Z" fill="white"/>
<path d="M10.2335 9.54954C10.2335 9.63741 10.1622 9.7087 10.0743 9.7087C9.98632 9.7087 9.91504 9.63741 9.91504 9.54954C9.91504 9.46154 9.98632 9.39026 10.0743 9.39026C10.1622 9.39026 10.2335 9.46154 10.2335 9.54954Z" fill="white"/>
<path d="M9.22189 10.4049H8.47866C8.39015 10.4049 8.31836 10.3331 8.31836 10.2446C8.31836 10.156 8.39015 10.0844 8.47866 10.0844H9.22189C9.31039 10.0844 9.38219 10.156 9.38219 10.2446C9.38206 10.3331 9.31027 10.4049 9.22189 10.4049Z" fill="#EAB599"/>
<path d="M8.84973 11.419C8.57548 11.419 8.30111 11.3503 8.05117 11.2128C7.98064 11.174 7.95481 11.0854 7.99368 11.015C8.03243 10.9445 8.12106 10.9188 8.19158 10.9574C8.60372 11.184 9.09574 11.184 9.50788 10.9574C9.5784 10.9186 9.66703 10.9443 9.70577 11.015C9.74465 11.0854 9.71882 11.174 9.64829 11.2128C9.39823 11.3503 9.12398 11.419 8.84973 11.419Z" fill="#EAB599"/>
<path d="M12.1263 7.42658V8.70426H11.5166V7.70362L7.11598 6.88593L6.18485 6.71285V8.70426H5.5752V7.42645C5.5752 5.96987 6.75576 4.78931 8.21209 4.78931H9.48939C9.52408 4.78931 9.55877 4.78994 9.59346 4.79171C11.0013 4.8459 12.1263 6.00469 12.1263 7.42658Z" fill="#2A2F4F"/>
<path d="M12.1265 7.42649V8.70417H11.5169V7.70353L7.11621 6.88585C7.35868 5.72124 8.36907 4.83885 9.5937 4.79163C11.0015 4.84582 12.1265 6.0046 12.1265 7.42649Z" fill="#3D4159"/>
</g>
<defs>
<clipPath id="clip0">
<rect x="0.552734" y="0.659424" width="16.5957" height="16.5957" fill="white"/>
</clipPath>
</defs>
</svg>
