<svg width="17" height="17" viewBox="0 0 17 17" fill="none" xmlns="http://www.w3.org/2000/svg">
<g clip-path="url(#clip0)">
<path d="M11.3969 4.87476H8.29722L7.64844 10.8937L14.4981 10.2449C14.4974 7.95012 13.2504 5.94656 11.3969 4.87476Z" fill="#C9001C"/>
<path d="M5.19787 4.87476C3.34448 5.94656 2.09731 7.95012 2.09668 10.2449L8.29755 10.8937V4.87476H5.19787Z" fill="#FC0023"/>
<path d="M14.4981 10.2449H11.3969V4.04569L8.29722 2.56897L7.64844 12.9612L14.4981 12.3124V10.2466C14.4981 10.246 14.4981 10.2454 14.4981 10.2449Z" fill="#FC0023"/>
<path d="M5.19787 4.04569V10.2449H2.09668V10.2466V12.3124L8.29755 12.9612V2.56897L5.19787 4.04569Z" fill="#FF7037"/>
<path d="M16.5951 12.3125H8.29722L7.64844 13.3463L8.29722 14.38H16.5951V12.3125Z" fill="#C9001C"/>
<path d="M0 12.3125H8.29787V14.38H0V12.3125Z" fill="#FC0023"/>
<path d="M9.70923 7.14199C9.70923 6.36217 9.07704 5.7301 8.29722 5.7301L7.64844 7.14199L8.29722 8.55401C9.07704 8.55401 9.70923 7.92182 9.70923 7.14199Z" fill="#C9001C"/>
<path d="M6.88574 7.14199C6.88574 7.92182 7.51793 8.55401 8.29776 8.55401V5.7301C7.51793 5.7301 6.88574 6.36229 6.88574 7.14199Z" fill="#FC0023"/>
</g>
<defs>
<clipPath id="clip0">
<rect y="0.17041" width="16.5957" height="16.5957" fill="white"/>
</clipPath>
</defs>
</svg>
