<svg width="17" height="18" viewBox="0 0 17 18" fill="none" xmlns="http://www.w3.org/2000/svg">
<g clip-path="url(#clip0)">
<path d="M9.62537 7.9126V14.6572C9.62537 15.3891 9.0299 15.9846 8.29794 15.9846C7.56598 15.9846 6.97051 15.3891 6.97051 14.6572V10.5983H5.53809V14.6572C5.53809 16.179 6.77615 17.4171 8.29797 17.4171C9.81979 17.4171 11.0579 16.179 11.0579 14.6572V7.9126H9.62537Z" fill="#61A2F9"/>
<path d="M15.8636 4.92989C15.0758 3.628 13.3757 3.2098 12.0744 3.99719L1.66426 10.1551C0.362372 10.9429 -0.0558279 12.6431 0.732016 13.945C1.52025 15.2475 3.22054 15.6647 4.52123 14.8777L14.9314 8.71982C16.2344 7.93126 16.6522 6.23295 15.8636 4.92989ZM14.1904 7.49387L3.78029 13.6517C3.15363 14.0309 2.33671 13.83 1.95748 13.2034C1.57795 12.5762 1.77998 11.7593 2.40517 11.381L12.8153 5.22314C13.4417 4.8441 14.2589 5.0449 14.6381 5.67152C15.0176 6.29869 14.8156 7.11554 14.1904 7.49387Z" fill="#FED22B"/>
<path d="M9.70392 7.06341C9.04252 6.67211 8.6555 6.44295 8.29724 6.23129C7.88581 5.98792 7.51234 5.76703 6.80469 5.34863V7.01223C6.80469 7.01223 6.83473 7.03005 6.89088 7.06308C7.09297 7.18262 7.63185 7.50128 8.29756 7.8952C9.10427 8.37269 10.0978 8.96044 10.9039 9.4376L12.3109 8.60548C11.1056 7.89254 10.295 7.41308 9.70392 7.06341Z" fill="#57988B"/>
<path d="M11.0579 4.21765V7.86379L9.6254 7.01646V4.21762C9.6254 3.48556 9.03003 2.89018 8.29797 2.89018C7.56591 2.89018 6.97054 3.48556 6.97054 4.21762V10.8954H5.53809V4.21765C5.53809 2.69573 6.77602 1.45776 8.29794 1.45776C9.81985 1.45776 11.0579 2.69573 11.0579 4.21765Z" fill="#90D8F9"/>
<path d="M7.05283 11.7159C6.70889 11.9191 3.80168 13.6386 3.78 13.6518C3.1537 14.0307 2.33594 13.8295 1.95699 13.2035C1.57801 12.5773 1.77911 11.7595 2.40456 11.381C4.75244 9.9921 4.02929 10.4198 5.69039 9.43766L4.28367 8.60535L1.66368 10.1552C0.360789 10.9436 -0.0569248 12.642 0.731665 13.9451C1.24976 14.8015 2.16272 15.2755 3.09737 15.2755C3.58351 15.2755 4.07554 15.1472 4.52084 14.8778L8.45948 12.5478L7.05283 11.7159Z" fill="#F0A70A"/>
<path d="M8.29822 10.1049C8.6668 10.1049 8.96559 9.80608 8.96559 9.4375C8.96559 9.06893 8.6668 8.77014 8.29822 8.77014C7.92965 8.77014 7.63086 9.06893 7.63086 9.4375C7.63086 9.80608 7.92965 10.1049 8.29822 10.1049Z" fill="#DD544F"/>
<path d="M1.3274 14.7095C2.0605 14.7095 2.6548 14.1152 2.6548 13.3821C2.6548 12.649 2.0605 12.0547 1.3274 12.0547C0.594297 12.0547 0 12.649 0 13.3821C0 14.1152 0.594297 14.7095 1.3274 14.7095Z" fill="#DD544F"/>
<path d="M1.9053 14.5775C1.73063 14.662 1.53449 14.7096 1.32743 14.7096C0.594043 14.7096 0 14.1152 0 13.3821C0 12.6491 0.594043 12.0547 1.32743 12.0547C1.53446 12.0547 1.73063 12.1022 1.9053 12.1868C1.4615 12.4017 1.15574 12.8561 1.15574 13.3821C1.15574 13.9082 1.4615 14.3625 1.9053 14.5775Z" fill="#D80A61"/>
<path d="M8.2981 3.5779C9.03121 3.5779 9.6255 2.9836 9.6255 2.2505C9.6255 1.51739 9.03121 0.923096 8.2981 0.923096C7.565 0.923096 6.9707 1.51739 6.9707 2.2505C6.9707 2.9836 7.565 3.5779 8.2981 3.5779Z" fill="#DD544F"/>
<path d="M8.87601 3.44588C8.70133 3.53041 8.5052 3.57796 8.29814 3.57796C7.56507 3.57796 6.9707 2.98359 6.9707 2.25053C6.9707 1.51746 7.56507 0.923096 8.29814 0.923096C8.50516 0.923096 8.70133 0.970646 8.87601 1.05518C8.43252 1.27015 8.12644 1.72452 8.12644 2.25053C8.12644 2.77657 8.43252 3.23091 8.87601 3.44588Z" fill="#D80A61"/>
<path d="M15.8635 13.9448C15.0755 15.247 13.3756 15.6648 12.0737 14.8773C11.3042 14.422 2.1389 9.00064 1.66488 8.72026C0.362213 7.93173 -0.0558244 6.23148 0.732052 4.93014C1.11311 4.30012 1.71739 3.85631 2.43428 3.67998C3.15082 3.50365 3.89215 3.61658 4.52185 3.99763L5.53788 4.59829V6.26253L3.7812 5.22339C3.15412 4.84431 2.3362 5.0454 1.95748 5.67147C1.57882 6.29708 1.77788 7.11387 2.40556 7.49421C2.68591 7.65965 3.01121 7.85222 4.28412 8.60535C4.50512 8.73608 10.9445 12.5451 11.1683 12.6775C11.9766 13.1553 12.5809 13.5129 12.8144 13.6512C13.4414 14.0303 14.2594 13.8292 14.6381 13.2035C15.0172 12.5771 14.8161 11.7595 14.19 11.3804L12.3114 10.2693L13.7181 9.43747L14.9307 10.1547C16.2317 10.9419 16.6543 12.6376 15.8635 13.9448Z" fill="#43CB94"/>
<path d="M15.2678 14.7095C16.0009 14.7095 16.5952 14.1152 16.5952 13.3821C16.5952 12.649 16.0009 12.0547 15.2678 12.0547C14.5347 12.0547 13.9404 12.649 13.9404 13.3821C13.9404 14.1152 14.5347 14.7095 15.2678 14.7095Z" fill="#DD544F"/>
<path d="M15.8464 14.5775C15.6717 14.662 15.4759 14.7096 15.2685 14.7096C14.5354 14.7096 13.9414 14.1152 13.9414 13.3821C13.9414 12.6491 14.5354 12.0547 15.2685 12.0547C15.4759 12.0547 15.6717 12.1022 15.8464 12.1868C15.4029 12.4017 15.0971 12.8561 15.0971 13.3821C15.0971 13.9082 15.4029 14.3625 15.8464 14.5775Z" fill="#D80A61"/>
</g>
<defs>
<clipPath id="clip0">
<rect y="0.872192" width="16.5957" height="16.5957" fill="white"/>
</clipPath>
</defs>
</svg>
