<svg width="17" height="17" viewBox="0 0 17 17" fill="none" xmlns="http://www.w3.org/2000/svg">
<g clip-path="url(#clip0)">
<path d="M8.29787 16.8936C12.8807 16.8936 16.5957 13.1785 16.5957 8.59572C16.5957 4.01294 12.8807 0.297852 8.29787 0.297852C3.71508 0.297852 0 4.01294 0 8.59572C0 13.1785 3.71508 16.8936 8.29787 16.8936Z" fill="#F0F0F0"/>
<path d="M16.0796 11.4819C16.4132 10.5829 16.5957 9.61067 16.5957 8.59567C16.5957 7.58068 16.4132 6.6084 16.0796 5.70947H0.516121C0.182586 6.6084 0 7.58068 0 8.59567C0 9.61067 0.182586 10.5829 0.516121 11.4819L8.29787 12.2034L16.0796 11.4819Z" fill="#0052B4"/>
<path d="M8.29738 16.8936C11.8652 16.8936 14.9067 14.6418 16.0791 11.4819H0.515625C1.68806 14.6418 4.72958 16.8936 8.29738 16.8936Z" fill="#D80027"/>
</g>
<defs>
<clipPath id="clip0">
<rect y="0.297852" width="16.5957" height="16.5957" fill="white"/>
</clipPath>
</defs>
</svg>
