<svg width="17" height="18" viewBox="0 0 17 18" fill="none" xmlns="http://www.w3.org/2000/svg">
<g clip-path="url(#clip0)">
<path d="M9.07588 15.806H7.52005C7.37672 15.806 7.26074 15.922 7.26074 16.0653V16.3246C7.26074 16.8967 7.72594 17.3618 8.29796 17.3618C8.86999 17.3618 9.33518 16.8967 9.33518 16.3246V16.0653C9.33518 15.922 9.21921 15.806 9.07588 15.806Z" fill="#868491"/>
<path d="M8.2977 15.806H7.52005C7.37672 15.806 7.26074 15.922 7.26074 16.0653V16.3246C7.26074 16.8966 7.72577 17.3617 8.2977 17.3618V15.806Z" fill="#5C546A"/>
<path d="M12.3814 2.38338C11.1695 1.24435 9.58201 0.673848 7.91705 0.778283C4.88286 0.967089 2.43163 3.49809 2.33692 6.54048C2.26703 8.79471 3.45111 10.8702 5.42731 11.9573C5.91856 12.2277 6.22369 12.7471 6.22369 13.313V15.2874C6.22369 15.8595 6.68889 16.3247 7.26091 16.3247H9.33535C9.90737 16.3247 10.3726 15.8595 10.3726 15.2874V13.313C10.3726 12.7476 10.68 12.2269 11.1753 11.9539C13.0793 10.9036 14.2621 8.90206 14.2621 6.73039C14.2621 5.091 13.5767 3.50655 12.3814 2.38338Z" fill="#FFCD00"/>
<path d="M8.29829 10.8793C10.5896 10.8793 12.4472 9.02177 12.4472 6.73041C12.4472 4.43905 10.5896 2.58154 8.29829 2.58154C6.00693 2.58154 4.14941 4.43905 4.14941 6.73041C4.14941 9.02177 6.00693 10.8793 8.29829 10.8793Z" fill="#FFE671"/>
<path d="M9.20489 8.28624C8.86024 8.28624 8.68401 8.08518 8.55562 7.93855C8.44244 7.80941 8.39735 7.76763 8.29632 7.76763C8.19577 7.76763 8.15098 7.80941 8.03828 7.93832C7.91725 8.07682 7.73415 8.28624 7.3895 8.28624C7.04511 8.28624 6.86204 8.07682 6.74098 7.93832C6.62828 7.80941 6.58348 7.76763 6.48294 7.76763C6.33961 7.76763 6.22363 7.65166 6.22363 7.50833C6.22363 7.365 6.33961 7.24902 6.48294 7.24902C6.82733 7.24902 7.01039 7.45844 7.13146 7.59695C7.24416 7.72585 7.28895 7.76763 7.3895 7.76763C7.49004 7.76763 7.5351 7.72585 7.6478 7.59695C7.76883 7.45844 7.95193 7.24902 8.29632 7.24902C8.64097 7.24902 8.8172 7.45008 8.94558 7.59672C9.05877 7.72585 9.10386 7.76763 9.20489 7.76763C9.30566 7.76763 9.35075 7.72585 9.46393 7.59695C9.58522 7.45844 9.76833 7.24902 10.1132 7.24902C10.2565 7.24902 10.3725 7.365 10.3725 7.50833C10.3725 7.65166 10.2565 7.76763 10.1132 7.76763C10.0122 7.76763 9.96708 7.80941 9.8539 7.93855C9.73261 8.07708 9.54954 8.28624 9.20489 8.28624Z" fill="white"/>
<path d="M7.52057 13.213C7.40129 13.213 7.29394 13.1302 7.26733 13.0089L5.9708 7.04488C5.9404 6.90485 6.02931 6.76684 6.16907 6.73621C6.30988 6.70532 6.44711 6.79471 6.47774 6.93448L7.77427 12.8985C7.80467 13.0385 7.71576 13.1765 7.576 13.2072C7.55729 13.2112 7.53879 13.213 7.52057 13.213Z" fill="#5C546A"/>
<path d="M9.0761 13.213C9.05785 13.213 9.03937 13.2113 9.02064 13.2072C8.88084 13.1766 8.79196 13.0386 8.82237 12.8985L10.1189 6.93453C10.1495 6.79474 10.2863 6.7056 10.4276 6.73626C10.5674 6.76689 10.6562 6.90491 10.6258 7.04493L9.32931 13.0089C9.30276 13.1303 9.19538 13.213 9.0761 13.213Z" fill="#5C546A"/>
<path d="M6.17871 12.9537C6.20629 13.0702 6.22325 13.1901 6.22325 13.3131V15.2875C6.22325 15.8595 6.68844 16.3247 7.26047 16.3247H9.3349C9.90693 16.3247 10.3721 15.8595 10.3721 15.2875V13.3131C10.3721 13.1902 10.3892 13.0703 10.417 12.9537H6.17871Z" fill="#B4B6BC"/>
<path d="M8.29752 12.9537H6.17871C6.20629 13.0702 6.22325 13.1901 6.22325 13.3131V15.2875C6.22325 15.8595 6.68844 16.3247 7.26047 16.3247H8.29752V12.9537Z" fill="#868491"/>
<path d="M10.3723 13.7316H8.29785V14.2502H10.3723V13.7316Z" fill="#868491"/>
<path d="M10.3723 14.7688H8.29785V15.2874H10.3723V14.7688Z" fill="#868491"/>
<path d="M8.29807 13.7316H6.22363V14.2502H8.29807V13.7316Z" fill="#5C546A"/>
<path d="M8.29807 14.7688H6.22363V15.2874H8.29807V14.7688Z" fill="#5C546A"/>
</g>
<defs>
<clipPath id="clip0">
<rect y="0.766113" width="16.5957" height="16.5957" fill="white"/>
</clipPath>
</defs>
</svg>
