<svg width="17" height="17" viewBox="0 0 17 17" fill="none" xmlns="http://www.w3.org/2000/svg">
<g clip-path="url(#clip0)">
<path d="M8.29789 16.7873C12.8807 16.7873 16.5958 13.0722 16.5958 8.48942C16.5958 3.90662 12.8807 0.191528 8.29789 0.191528C3.71509 0.191528 0 3.90662 0 8.48942C0 13.0722 3.71509 16.7873 8.29789 16.7873Z" fill="#324A5E"/>
<path d="M11.6818 2.92725H9.89258V8.35978H11.6818V2.92725Z" fill="#FF7058"/>
<path d="M9.20525 4.21082H7.41602V8.37273H9.20525V4.21082Z" fill="#FFD05B"/>
<path d="M6.74236 5.48145H4.95312V8.35978H6.74236V5.48145Z" fill="#84DBFF"/>
<path d="M12.2267 13.1829H3.26758V10.901H12.2397C12.875 10.901 13.3806 11.4067 13.3806 12.0419C13.3676 12.6773 12.862 13.1829 12.2267 13.1829Z" fill="white"/>
<path d="M7.93457 11.3159H13.1078C13.0948 11.29 13.0689 11.277 13.043 11.2511H7.93457H13.0429C13.017 11.2252 13.004 11.2122 12.9781 11.1863H7.93457V11.3159Z" fill="#E6E9EE"/>
<path d="M7.93457 11.5752H13.2634C13.2504 11.5493 13.2374 11.5363 13.2374 11.5104H7.93457H13.2374C13.2245 11.4844 13.2115 11.4715 13.1985 11.4456H7.93457V11.5752Z" fill="#E6E9EE"/>
<path d="M7.93457 11.8475H13.3541C13.3541 11.8216 13.3412 11.8086 13.3412 11.7827H7.93457H13.3282C13.3282 11.7568 13.3152 11.7438 13.3152 11.7179H7.93457V11.8475Z" fill="#E6E9EE"/>
<path d="M7.93457 12.1068H13.3671C13.3671 12.0809 13.3671 12.0679 13.3671 12.042H7.93457H13.3671C13.3671 12.0161 13.3671 12.0031 13.3671 11.9772H7.93457V12.1068Z" fill="#E6E9EE"/>
<path d="M7.93457 12.3661H13.3152C13.3152 12.3401 13.3282 12.3272 13.3282 12.3013H7.93457H13.3282C13.3282 12.2753 13.3412 12.2624 13.3412 12.2365H7.93457V12.3661Z" fill="#E6E9EE"/>
<path d="M7.93457 12.6384H13.1986C13.2115 12.6125 13.2245 12.5995 13.2375 12.5736H7.93457H13.2374C13.2504 12.5477 13.2634 12.5347 13.2634 12.5088H7.93457V12.6384Z" fill="#E6E9EE"/>
<path d="M7.93457 12.8977H12.9781C13.0041 12.8718 13.03 12.8588 13.0429 12.8329H7.93457H13.0429C13.0689 12.8069 13.0819 12.794 13.1078 12.7681H7.93457V12.8977Z" fill="#E6E9EE"/>
<path d="M3.125 13.0403H12.2267C12.7842 13.0403 13.238 12.5865 13.238 12.0419C13.238 11.4974 12.7842 11.0436 12.2267 11.0436H3.125V10.7843H12.2267C12.9269 10.7843 13.4973 11.3418 13.4973 12.0419C13.4973 12.7421 12.9269 13.2996 12.2267 13.2996H3.125V13.0403Z" fill="#F1543F"/>
<path d="M13.4969 8.2301C13.4839 8.17825 13.458 8.13934 13.4969 8.10046H4.36922C3.74686 8.10046 3.24121 8.60611 3.24121 9.22847C3.24121 9.85082 3.74686 10.3565 4.36922 10.3565H13.5099C13.4709 10.3176 13.4839 10.2917 13.5099 10.2268C13.069 9.63035 13.069 8.82651 13.4969 8.2301Z" fill="#E6E9EE"/>
<path d="M13.4971 10.2268H4.40831C3.85081 10.2268 3.39701 9.773 3.39701 9.22847C3.39701 8.68391 3.85081 8.23014 4.40831 8.23014H13.51V7.97083H4.40831C3.70817 7.97083 3.1377 8.52833 3.1377 9.22847C3.1377 9.92861 3.70817 10.4861 4.40831 10.4861H13.51V10.2268H13.4971Z" fill="#4CDBC4"/>
<path d="M7.74023 8.50232V8.81348H13.2376C13.2635 8.70975 13.3024 8.60602 13.3543 8.50232H7.74023Z" fill="#ACB3BA"/>
<path d="M8.84277 9.38404H13.1862C13.1732 9.2803 13.1732 9.17657 13.1862 9.07288H8.84277V9.38404Z" fill="#ACB3BA"/>
<path d="M6.78125 9.95447H13.3547C13.3029 9.85074 13.2769 9.74701 13.238 9.64331H6.78125V9.95447Z" fill="#ACB3BA"/>
</g>
<defs>
<clipPath id="clip0">
<rect y="0.191528" width="16.5957" height="16.5957" fill="white"/>
</clipPath>
</defs>
</svg>
