<svg width="17" height="18" viewBox="0 0 17 18" fill="none" xmlns="http://www.w3.org/2000/svg">
<g clip-path="url(#clip0)">
<path d="M8.78393 2.95251H7.81152V5.53717H8.78393V2.95251Z" fill="#369151"/>
<path d="M9.791 0.878314C9.12117 1.05779 8.63273 1.46951 8.29797 1.86816C7.9632 1.46951 7.47476 1.05779 6.80493 0.878314C5.31608 0.479368 4.0293 1.52195 4.0293 1.52195C4.0293 1.52195 4.6224 3.06824 6.11125 3.46719C6.98143 3.70034 7.7824 3.44109 8.29797 3.18538C8.81354 3.44109 9.61451 3.70034 10.4847 3.46719C11.9735 3.06824 12.5666 1.52195 12.5666 1.52195C12.5666 1.52195 11.2799 0.479368 9.791 0.878314Z" fill="#8ADB53"/>
<path d="M9.79088 0.878314C9.12106 1.05779 8.63262 1.46951 8.29785 1.86816C8.29785 2.41601 8.29785 2.55034 8.29785 3.18538C8.81342 3.44109 9.61439 3.70034 10.4846 3.46719C11.9734 3.06824 12.5665 1.52195 12.5665 1.52195C12.5665 1.52195 11.2797 0.479368 9.79088 0.878314Z" fill="#4FC16E"/>
<path d="M8.29818 17.3831C11.789 17.3831 14.6188 14.5533 14.6188 11.0625C14.6188 7.57167 11.789 4.74182 8.29818 4.74182C4.80739 4.74182 1.97754 7.57167 1.97754 11.0625C1.97754 14.5533 4.80739 17.3831 8.29818 17.3831Z" fill="#7BCEFC"/>
<path d="M8.29785 4.74158C11.7887 4.74158 14.6186 7.57154 14.6186 11.0624C14.6186 14.5533 11.7887 17.3831 8.29785 17.3831C8.29785 12.3552 8.29785 7.62885 8.29785 4.74158Z" fill="#009DFF"/>
<path d="M6.37145 13.4002C7.24889 14.1229 7.34331 15.0065 7.62271 15.2902C8.41928 16.099 9.47019 15.2717 9.00266 14.3267C8.84156 14.0011 8.35241 12.8646 9.10424 11.8041C9.87802 10.7128 8.20415 9.38098 7.31475 10.363C6.46124 11.3055 4.24023 10.1818 5.57045 8.28417C6.28692 7.26207 5.39846 6.35683 4.23018 6.24775L4.20509 6.24597C2.94103 7.32123 2.10583 8.88508 1.99121 10.6457C2.68732 11.0823 3.72975 11.3458 4.57412 11.9364C5.08321 12.2924 5.80058 12.93 6.37145 13.4002Z" fill="#8ADB53"/>
<path d="M8.66564 6.83566C10.609 7.39485 10.9793 5.34787 10.981 5.33825C10.1665 4.95573 9.25718 4.74158 8.29774 4.74158C8.17152 4.74158 8.04628 4.74569 7.92188 4.75302C7.32417 5.4466 7.83079 6.59547 8.66564 6.83566Z" fill="#8ADB53"/>
<path d="M13.5543 7.55261C13.6147 7.91843 13.1394 8.21998 12.8543 8.2801C12.4126 8.37323 11.9137 8.3388 11.5047 8.55277C11.0596 8.78562 10.866 9.45428 11.0492 9.91242C11.1783 10.2353 11.4762 10.4139 11.8156 10.4335C12.3853 10.4664 12.7649 10.6919 12.9112 11.3844C12.9112 11.3844 13.3057 12.6983 14.2908 13.0742C14.5028 12.4423 14.6179 11.7658 14.6179 11.0625C14.6179 9.76377 14.226 8.55669 13.5543 7.55261Z" fill="#4FC16E"/>
<path d="M8.29883 4.74158V6.65913C8.41124 6.73702 8.53483 6.79773 8.66669 6.83566C10.61 7.39485 10.9804 5.34787 10.9821 5.33825C10.1675 4.95573 9.25827 4.74158 8.29883 4.74158Z" fill="#4FC16E"/>
<path d="M9.10424 11.8041C9.6318 11.06 9.02152 10.2044 8.29785 10.0464V15.6175C8.88094 15.6368 9.34215 15.0129 9.00265 14.3267C8.84156 14.0011 8.35237 12.8646 9.10424 11.8041Z" fill="#4FC16E"/>
</g>
<defs>
<clipPath id="clip0">
<rect y="0.787354" width="16.5957" height="16.5957" fill="white"/>
</clipPath>
</defs>
</svg>
