<svg xmlns="http://www.w3.org/2000/svg" width="26.001" height="26.001" viewBox="0 0 26.001 26.001"><path d="M10.381,25.736A13,13,0,0,1,.264,15.62a13.146,13.146,0,0,1,0-5.24A13,13,0,0,1,10.381.264a13.146,13.146,0,0,1,5.24,0A12.939,12.939,0,0,1,20.269,2.22a13.031,13.031,0,0,1,4.71,5.72,12.93,12.93,0,0,1,.758,2.441,13.1,13.1,0,0,1,0,5.24,12.959,12.959,0,0,1-1.956,4.648,13.04,13.04,0,0,1-5.72,4.711,13.062,13.062,0,0,1-7.68.757ZM8.733,23.1a11,11,0,0,0,8.536,0,11.047,11.047,0,0,0,1.5-.776,5.143,5.143,0,0,0-4.992-3.9H12.064a5.154,5.154,0,0,0-4.741,3.15,5.208,5.208,0,0,0-.227.66A11.032,11.032,0,0,0,8.733,23.1Zm3.85-6.965h1.294a7.4,7.4,0,0,1,5.153,2.181,7.433,7.433,0,0,1,1.593,2.368q.029.069.057.139l.074-.073A10.964,10.964,0,1,0,2.9,8.733a10.95,10.95,0,0,0,1.011,10.4,11.012,11.012,0,0,0,1.3,1.581l.009-.023a7.469,7.469,0,0,1,3.956-3.965,7.358,7.358,0,0,1,2.761-.584c.023,0,.045,0,.068,0ZM10.99,14.886a4.97,4.97,0,1,1,1.93.39A4.932,4.932,0,0,1,10.99,14.886Zm-.082-6.578a2.845,2.845,0,1,0,2.012-.833A2.83,2.83,0,0,0,10.908,8.308Z"/></svg>