<svg xmlns="http://www.w3.org/2000/svg" width="12.171" height="11.048" viewBox="0 0 12.171 11.048"><defs><style>.a{fill:#122336;}</style></defs><g transform="translate(-298.053 -101.444)"><path class="a" d="M6.15,6.06a.536.536,0,0,1,0-.789l1.63-1.538H.558a.558.558,0,1,1,0-1.116H7.913L6.15.952a.535.535,0,0,1,0-.788.615.615,0,0,1,.836,0l2.7,2.544a.558.558,0,0,1,0,.807L6.986,6.06a.617.617,0,0,1-.836,0Z" transform="translate(304.276 102.638) rotate(90)"/><path class="a" d="M6.15,6.06a.536.536,0,0,1,0-.789L7.912,3.607H.558a.558.558,0,0,1,0-1.116H7.78L6.15.952a.535.535,0,0,1,0-.788.615.615,0,0,1,.836,0l2.7,2.544a.558.558,0,0,1,0,.807L6.986,6.06a.617.617,0,0,1-.836,0Z" transform="translate(304.001 111.298) rotate(-90)"/></g></svg>