<svg xmlns="http://www.w3.org/2000/svg" xmlns:xlink="http://www.w3.org/1999/xlink" width="242" height="62" viewBox="0 0 242 62"><defs><style>.a{fill:url(#a);}.b{fill:#fff;font-size:18px;font-family:Ubuntu-Medium, Ubuntu;font-weight:500;}.c{fill:#fcfcfc;}.d{filter:url(#b);}</style><linearGradient id="a" x1="-0.232" y1="-0.306" x2="1.867" y2="1.951" gradientUnits="objectBoundingBox"><stop offset="0" stop-color="#0053ff"/><stop offset="1" stop-color="#002a80"/></linearGradient><filter id="b" x="0" y="0" width="242" height="62" filterUnits="userSpaceOnUse"><feOffset dy="3" input="SourceAlpha"/><feGaussianBlur stdDeviation="3" result="c"/><feFlood flood-color="#002a80" flood-opacity="0.302"/><feComposite operator="in" in2="c"/><feComposite in="SourceGraphic"/></filter></defs><g transform="translate(-61 -264)"><g class="d" transform="matrix(1, 0, 0, 1, 61, 264)"><rect class="a" width="224" height="44" rx="22" transform="translate(9 6)"/></g><text class="b" transform="translate(111 299)"><tspan x="0" y="0">ЗАТЕЛЕФОНУВАТИ</tspan></text><path class="c" d="M151.138,152.883l-1.022-.056a1.233,1.233,0,0,0-.879.3,4.679,4.679,0,0,0-1.532,2.357c-.363,1.624.2,3.612,1.65,5.6a16.6,16.6,0,0,0,8.942,6.529,4.341,4.341,0,0,0,3.69-.459,3.315,3.315,0,0,0,1.436-2.1l.163-.766a.533.533,0,0,0-.3-.595l-3.455-1.6a.528.528,0,0,0-.641.158l-1.356,1.766a.387.387,0,0,1-.436.13,10.631,10.631,0,0,1-5.748-4.94.4.4,0,0,1,.049-.439l1.3-1.506a.534.534,0,0,0,.086-.557l-1.489-3.5A.53.53,0,0,0,151.138,152.883Z" transform="translate(-62.598 133.175)"/></g></svg>