<svg xmlns="http://www.w3.org/2000/svg" xmlns:xlink="http://www.w3.org/1999/xlink" width="378" height="62" viewBox="0 0 378 62"><defs><style>.a,.e{fill:none;}.a{stroke:red;}.b,.c{fill:red;}.b{stroke:rgba(0,0,0,0);font-size:17px;font-family:Ubuntu;}.d{stroke:none;}.f{filter:url(#a);}</style><filter id="a" x="0" y="0" width="378" height="62" filterUnits="userSpaceOnUse"><feOffset dy="3" input="SourceAlpha"/><feGaussianBlur stdDeviation="3" result="b"/><feFlood flood-opacity="0.161"/><feComposite operator="in" in2="b"/><feComposite in="SourceGraphic"/></filter></defs><g transform="translate(-21 -884)"><g class="f" transform="matrix(1, 0, 0, 1, 21, 884)"><g class="a" transform="translate(9 6)"><rect class="d" width="360" height="44" rx="22"/><rect class="e" x="0.5" y="0.5" width="359" height="43" rx="21.5"/></g></g><g transform="translate(23 1)"><text class="b" transform="translate(80 917)"><tspan x="0" y="0">Поскаржитися на оголошення</tspan></text><path class="c" d="M87.678,62H79.585a.716.716,0,0,1-.117-.01A1.326,1.326,0,0,1,78.393,60.2a.453.453,0,0,1,.047-.12l3.951-6.862a1.317,1.317,0,0,1,.11-.245v0a1.319,1.319,0,0,1,2.37.172l3.959,6.876a.708.708,0,0,1,.042.087A1.326,1.326,0,0,1,87.679,62Zm-4.332-7.65a.614.614,0,0,0-.16.133l-3.038,5.278a.622.622,0,0,0,.246.813.592.592,0,0,0,.225.077.563.563,0,0,0,.1.023h5.868a.587.587,0,0,0,.1-.023.622.622,0,0,0,.469-.891l-3.055-5.3a.605.605,0,0,0-.286-.168.613.613,0,0,0-.47.062Zm-.335,5.291v0a.661.661,0,0,1,1.322,0v0a.661.661,0,0,1-1.322,0Zm0-1.657V55.908a.661.661,0,0,1,1.322,0v2.075a.661.661,0,0,1-1.322,0ZM71.49,58.6a.586.586,0,0,1-.069,0c-.032,0-.065,0-.1,0A1.325,1.325,0,0,1,70,57.3V49.3A1.325,1.325,0,0,1,71.322,48c.032,0,.062,0,.093,0a.679.679,0,0,1,.075,0H83.218A1.325,1.325,0,0,1,84.54,49.3v1.347a.661.661,0,1,1-1.321,0v-.665a.662.662,0,0,0-.661-.662H71.986a.662.662,0,0,0-.662.662v6.628a.662.662,0,0,0,.661.662h6.111a.663.663,0,0,1,0,1.326Zm4.489-3.3h-3.3a.667.667,0,0,1-.209-.033.661.661,0,0,1-.485-.638V52.882a.661.661,0,0,1,.335-.575l1.46-1.463a.893.893,0,0,1,1.1,0l1.526,1.53a.616.616,0,0,1,.056.064.657.657,0,0,1,.181.454v1.754a.66.66,0,0,1-.661.661Zm-2.673-2.115v.789h2.013v-.82l-.991-.994Zm5.288,1.435a.663.663,0,1,1,0-1.326h1.4a.663.663,0,0,1,0,1.326Zm0-1.988a.663.663,0,1,1,0-1.326h3.053a.663.663,0,0,1,0,1.326Z" transform="translate(-19.002 857)"/></g></g></svg>