<svg xmlns="http://www.w3.org/2000/svg" width="14" height="14" viewBox="0 0 14 14"><defs><style>.a{fill:#122336;}</style></defs><path class="a" d="M-331.6,4283.72l-5.4-5.489-5.394,5.489a.93.93,0,0,1-1.33,0,.967.967,0,0,1,0-1.353l5.276-5.368-5.276-5.367a.968.968,0,0,1,0-1.354.929.929,0,0,1,1.33,0l5.394,5.488,5.4-5.488a.929.929,0,0,1,1.33,0,.97.97,0,0,1,0,1.354l-5.277,5.367,5.277,5.367a.969.969,0,0,1,0,1.353.931.931,0,0,1-.665.28A.929.929,0,0,1-331.6,4283.72Z" transform="translate(344 -4270)"/></svg>