<svg xmlns="http://www.w3.org/2000/svg" width="20.367" height="16" viewBox="0 0 20.367 16"><defs><style>.a{fill:#0053ff;}</style></defs><path class="a" d="M-26.9,15.7a8.076,8.076,0,0,1-1.96-.837,8.085,8.085,0,0,1-2.719-2.651.611.611,0,0,1-.159-.264l-.01-.017,0,0a.612.612,0,0,1-.019-.153.611.611,0,0,1,.611-.611.611.611,0,0,1,.6.484,6.872,6.872,0,0,0,2.325,2.264,6.8,6.8,0,0,0,1.641.7,6.847,6.847,0,0,0,1.828.247,6.883,6.883,0,0,0,1.377-.139,6.8,6.8,0,0,0,1.283-.4,6.833,6.833,0,0,0,1.161-.63,6.881,6.881,0,0,0,1.011-.834,6.883,6.883,0,0,0,.834-1.011,6.828,6.828,0,0,0,.63-1.161,6.8,6.8,0,0,0,.4-1.283,6.884,6.884,0,0,0,.139-1.377,6.883,6.883,0,0,0-.139-1.377,6.8,6.8,0,0,0-.4-1.283,6.832,6.832,0,0,0-.63-1.161A6.886,6.886,0,0,0-19.927,3.2a6.886,6.886,0,0,0-1.011-.834,6.837,6.837,0,0,0-1.161-.63,6.8,6.8,0,0,0-1.283-.4A6.883,6.883,0,0,0-24.758,1.2a6.848,6.848,0,0,0-1.826.247,6.8,6.8,0,0,0-1.639.7,6.871,6.871,0,0,0-2.393,2.372.614.614,0,0,1-.571.387.614.614,0,0,1-.614-.614.612.612,0,0,1,.188-.442,8.084,8.084,0,0,1,2.768-2.717A8.079,8.079,0,0,1-26.891.295,8.169,8.169,0,0,1-24.71,0a8.215,8.215,0,0,1,1.628.163,8.1,8.1,0,0,1,1.516.466,8.107,8.107,0,0,1,1.372.738,8.123,8.123,0,0,1,1.2.977,8.079,8.079,0,0,1,.986,1.184,7.98,7.98,0,0,1,.745,1.359,7.9,7.9,0,0,1,.471,1.5A7.986,7.986,0,0,1-16.633,8,7.985,7.985,0,0,1-16.8,9.612a7.9,7.9,0,0,1-.471,1.5,7.973,7.973,0,0,1-.745,1.359A8.076,8.076,0,0,1-19,13.657a8.123,8.123,0,0,1-1.2.977,8.107,8.107,0,0,1-1.372.738,8.1,8.1,0,0,1-1.516.466A8.215,8.215,0,0,1-24.71,16,8.166,8.166,0,0,1-26.9,15.7Zm-7.123-4.437-2.8-2.8A.612.612,0,0,1-37,8.022a.612.612,0,0,1,.18-.444l2.8-2.8a.612.612,0,0,1,.434-.18.612.612,0,0,1,.434.18.614.614,0,0,1,0,.868l-1.83,1.83h10.308a.614.614,0,0,1,.614.614.614.614,0,0,1-.614.614H-34.846l1.693,1.693a.614.614,0,0,1,0,.868.612.612,0,0,1-.434.18A.612.612,0,0,1-34.021,11.267Z" transform="translate(37)"/></svg>