<svg xmlns="http://www.w3.org/2000/svg" xmlns:xlink="http://www.w3.org/1999/xlink" width="115" height="29.762" viewBox="0 0 115 29.762"><defs><style>.a{fill-rule:evenodd;}.b{fill:url(#a);}.c{fill:#fff;}</style><linearGradient id="a" x1="0.448" y1="0.44" x2="1.563" y2="1.541" gradientUnits="objectBoundingBox"><stop offset="0" stop-color="#0053ff"/><stop offset="1" stop-color="#002a80"/></linearGradient></defs><g transform="translate(-5 -1.117)"><g transform="translate(0 0)"><g transform="translate(43.473 1.117)"><path class="a" d="M237.6,95.852h4.788V85.6a6.025,6.025,0,0,1,.18-1.2,4.715,4.715,0,0,1,.718-1.6,4.914,4.914,0,0,1,1.556-1.416,5.145,5.145,0,0,1,2.693-.618,6.726,6.726,0,0,1,1.137.1q.578.1,1.177.259V76.5c-.293-.08-.578-.146-.858-.2a4.586,4.586,0,0,0-.858-.08,6.29,6.29,0,0,0-3.392.918,6.019,6.019,0,0,0-2.274,2.593h-.08V76.7H237.6V95.852Zm15,0h4.788V76.7H252.6Zm.18-23.64a2.945,2.945,0,0,0,2.174.858,3.166,3.166,0,0,0,2.215-.818,2.8,2.8,0,0,0,0-4.11,3.168,3.168,0,0,0-2.214-.818,2.947,2.947,0,0,0-2.174.858,2.793,2.793,0,0,0,0,4.03Zm27.95,15.74V86.636a13.793,13.793,0,0,0-.658-4.449,9.317,9.317,0,0,0-1.835-3.252A7.837,7.837,0,0,0,275.4,76.92a9.31,9.31,0,0,0-3.651-.7,11.5,11.5,0,0,0-4.07.718,9.761,9.761,0,0,0-3.312,2.035,9.637,9.637,0,0,0-2.214,3.172,10.833,10.833,0,0,0,0,8.259,9.64,9.64,0,0,0,2.215,3.172,9.761,9.761,0,0,0,3.312,2.035,11.5,11.5,0,0,0,4.07.718,11.05,11.05,0,0,0,4.349-.878,9.718,9.718,0,0,0,3.751-2.953l-3.431-2.593a8.334,8.334,0,0,1-2.135,1.855,5.709,5.709,0,0,1-3.012.738,5.244,5.244,0,0,1-3.471-1.2,4.863,4.863,0,0,1-1.676-3.352h14.6Zm-14.6-3.591a5.519,5.519,0,0,1,1.536-3.312,4.655,4.655,0,0,1,3.411-1.237,4.941,4.941,0,0,1,3.551,1.217,4.509,4.509,0,0,1,1.317,3.332h-9.815Zm18.155,11.491h4.789V67.324h-4.788V95.852ZM294.936,80.77v8.778A14.889,14.889,0,0,0,295.2,92.5a4.826,4.826,0,0,0,.958,2.135,4.124,4.124,0,0,0,1.915,1.277,9.794,9.794,0,0,0,3.132.419,15.548,15.548,0,0,0,1.935-.14,6.173,6.173,0,0,0,1.855-.5v-4.03a2.916,2.916,0,0,1-1.2.459,7.7,7.7,0,0,1-1.4.14,2.357,2.357,0,0,1-2.135-.838,4.17,4.17,0,0,1-.539-2.274V80.77h5.267V76.7h-5.267V71.155h-4.788V76.7h-3.95v4.07ZM308,94.256a2.954,2.954,0,0,0,.7.958,3.46,3.46,0,0,0,1.018.638,3.151,3.151,0,0,0,1.217.239,3.1,3.1,0,0,0,2.254-.918,2.961,2.961,0,0,0,.938-2.194,2.812,2.812,0,0,0-.958-2.155,3.206,3.206,0,0,0-2.234-.878,3.111,3.111,0,0,0-2.254.918,2.965,2.965,0,0,0-.938,2.195A2.8,2.8,0,0,0,308,94.256Z" transform="translate(-237.6 -67.323)"/></g><g transform="translate(5 2.081)"><path class="b" d="M16.771,28.8H2.338A2.44,2.44,0,0,1,0,26.273C.011,20.4.01,20.4,0,11.621A2.075,2.075,0,0,1,.809,9.956L11.8,1.558a1.769,1.769,0,0,1,2.589.009c2.513,2.155,7.129,5.1,10.946,8.362a1.98,1.98,0,0,1,.648.786l-.088.062.089-.062a2.143,2.143,0,0,1,.2.906V26.273A2.437,2.437,0,0,1,23.845,28.8Z"/></g></g></g><g transform="translate(6.42 13)"><path class="c" d="M12.933,12.1l-.008-2.5L15.75,8.59,18.58,9.6l-.008,2.5-2.822-1ZM4.58,18.218c3.456,3.163,10.47,3.163,13.926,0l-1.657-2.533a7.878,7.878,0,0,1-10.613,0ZM9.74,9.063H4.933v2.848H9.74Z" transform="translate(-5 -8.59)"/></g></svg>