<svg xmlns="http://www.w3.org/2000/svg" width="18" height="17.96" viewBox="0 0 18 17.96"><defs><style>.a{fill:#122336;}</style></defs><g transform="translate(-251.999 -614.12)"><path class="a" d="M30.109,46.078a.609.609,0,0,1-.517-.278L27.2,42.117a3.788,3.788,0,1,1,6.41-.94,3.813,3.813,0,0,1-.653,1.034L30.627,45.8a.614.614,0,0,1-.515.279Zm0-1.729,2.335-3.594a.573.573,0,0,1,.1-.122,2.515,2.515,0,0,0-.018-1.939,2.549,2.549,0,0,0-.554-.809,2.615,2.615,0,0,0-3.661,0,2.551,2.551,0,0,0-.555.809,2.518,2.518,0,0,0,0,1.983c.031.07.064.139.1.207l.216.333a2.5,2.5,0,0,0,.169.2l1.288,2.029h0l-.011,0Zm-8.2-.5-5.533-2.463a.611.611,0,0,1-.362-.526A.578.578,0,0,1,16,40.736V28.8a.569.569,0,0,1,.014-.131.6.6,0,0,1,.049-.185.612.612,0,0,1,.808-.31L22.3,30.588l5.119-2.28a.61.61,0,0,1,.367-.122.6.6,0,0,1,.314.087l5.538,2.465a.611.611,0,0,1,.347.7v3.4a.612.612,0,1,1-1.224,0V31.687L28.4,29.746v4.715a.612.612,0,0,1-1.224,0v-4.7L22.811,31.7V42.374l1.876-.835a.612.612,0,1,1,.5,1.119l-2.666,1.186a.613.613,0,0,1-.3.08h-.009A.61.61,0,0,1,21.907,43.844Zm-4.683-3.425,4.362,1.943V31.611l-4.362-1.941Zm11.862-.639a1.033,1.033,0,1,1,1.033,1.033A1.033,1.033,0,0,1,29.086,39.78Z" transform="translate(235.999 586.001)"/></g></svg>