<svg xmlns="http://www.w3.org/2000/svg" width="79.375" height="73" viewBox="0 0 79.375 73"><defs><style>.a{fill:#0053ff;}</style></defs><path class="a" d="M32.512,1.434l.018.059a2.774,2.774,0,0,0,.7,5.456,2.734,2.734,0,0,0,1.459-.42A30.513,30.513,0,0,1,59.66,10.787a30.928,30.928,0,0,1,0,51.158,30.519,30.519,0,0,1-34.311,0A30.853,30.853,0,0,1,11.825,36.879L13.7,38.593a2.991,2.991,0,0,0,4.25.109l.011-.013a3.107,3.107,0,0,0-.557-4.283l-6.044-5.521a3.212,3.212,0,0,0-3.469-.693,3.605,3.605,0,0,0-1.527,1.03L.929,35.348A3.108,3.108,0,0,0,.82,39.666l.014.013a2.992,2.992,0,0,0,4.216-.554l1.044-1.177A36.385,36.385,0,0,0,16.8,62.309a36.734,36.734,0,0,0,56.313-5.4A36.389,36.389,0,0,0,68.639,10.69,36.836,36.836,0,0,0,32.512,1.434Z" transform="translate(79.375 73) rotate(180)"/></svg>