<svg xmlns="http://www.w3.org/2000/svg" width="14.852" height="16" viewBox="0 0 14.852 16"><defs><style>.a{fill:#0053ff;}</style></defs><path class="a" d="M13.627-1H1.225a1.217,1.217,0,0,1-.866-.359A1.217,1.217,0,0,1,0-2.223V-14.472s0-.009,0-.013a1.217,1.217,0,0,1,.359-.853,1.217,1.217,0,0,1,.866-.359H3.292v-.689A.612.612,0,0,1,3.9-17a.612.612,0,0,1,.612.612v.689h2.22v-.689A.612.612,0,0,1,7.349-17a.612.612,0,0,1,.612.612v.689h2.22v-.689A.612.612,0,0,1,10.794-17a.612.612,0,0,1,.612.612v.689h2.22a1.217,1.217,0,0,1,.866.359,1.217,1.217,0,0,1,.359.866s0,.008,0,.013V-2.236s0,.008,0,.013a1.217,1.217,0,0,1-.359.866l0,0A.613.613,0,0,1,13.933-1Zm-.612-1.225a.613.613,0,0,0,.612-.612V-13.86a.613.613,0,0,0-.612-.612H11.407v1.608a.612.612,0,0,1-.612.612.612.612,0,0,1-.612-.612v-1.608H7.962v1.608a.612.612,0,0,1-.612.612.612.612,0,0,1-.612-.612v-1.608H4.517v1.608a.612.612,0,0,1-.612.612.612.612,0,0,1-.612-.612v-1.608H1.837a.613.613,0,0,0-.612.612v.612h0v9.8h0v.612a.613.613,0,0,0,.612.612ZM3.062-4.06a.612.612,0,0,1-.612-.612.612.612,0,0,1,.612-.612h8.421a.612.612,0,0,1,.612.612.612.612,0,0,1-.612.612Zm0-2.679a.612.612,0,0,1-.612-.612.612.612,0,0,1,.612-.612h8.421a.612.612,0,0,1,.612.612.612.612,0,0,1-.612.612Zm0-2.679a.612.612,0,0,1-.612-.612.612.612,0,0,1,.612-.612h8.421a.612.612,0,0,1,.612.612.612.612,0,0,1-.612.612Z" transform="translate(0 16.998)"/></svg>