<svg xmlns="http://www.w3.org/2000/svg" width="17" height="17" viewBox="0 0 17 17"><defs><style>.a{fill:#122336;}</style></defs><path class="a" d="M3.84,17.369a1.685,1.685,0,0,1-.537-.357,1.659,1.659,0,0,1-.362-.53,1.637,1.637,0,0,1-.133-.636V8.021L2.785,8.01a4,4,0,0,1-1.113-.776,3.98,3.98,0,0,1-.488-.584,3.919,3.919,0,0,1-.369-.67,3.91,3.91,0,0,1,0-3.071,3.927,3.927,0,0,1,.369-.67A4.03,4.03,0,0,1,6.589,1.082l-.084.1c-.323.4-.5.621-2.041,2.432l-.017.019h0v0a.512.512,0,0,0-.09.38.622.622,0,0,0,.225.419.643.643,0,0,0,.409.148.617.617,0,0,0,.47-.213c.034-.032.035-.033.237-.266.176-.2.5-.579,1.137-1.3l.022-.025h0l.723-.85c.083.1.163.2.236.31a3.927,3.927,0,0,1,.369.67,3.909,3.909,0,0,1,0,3.071,3.925,3.925,0,0,1-.369.67,4,4,0,0,1-1.08,1.066,4.036,4.036,0,0,1-.522.294l-.024.011v7.812s0,.007,0,.01h0a1.638,1.638,0,0,1-.133.639,1.661,1.661,0,0,1-.362.53,1.709,1.709,0,0,1-1.852.357Zm.039-8.979v7.442a.6.6,0,0,0,.181.432.62.62,0,0,0,1.056-.432V8.344l-.047.007a4.122,4.122,0,0,1-1.142,0l-.047-.007ZM3.37,1.81a2.89,2.89,0,0,0-.921.613,2.848,2.848,0,0,0-.621.909,2.834,2.834,0,0,0,0,2.226,2.848,2.848,0,0,0,.621.909,2.921,2.921,0,0,0,4.1,0,2.849,2.849,0,0,0,.621-.909A2.809,2.809,0,0,0,7.4,4.445a2.854,2.854,0,0,0-.044-.5l-.016-.087-.057.067L6.334,5.036a.544.544,0,0,1-.06.06l0,0,0,0a1.644,1.644,0,0,1-.5.378,1.7,1.7,0,0,1-.628.172c-.044,0-.089.005-.134.005a1.755,1.755,0,0,1-1.119-.4,1.727,1.727,0,0,1-.429-.527A1.683,1.683,0,0,1,3.274,4.1a1.637,1.637,0,0,1,.062-.64,1.619,1.619,0,0,1,.318-.582L4.731,1.66,4.786,1.6,4.7,1.592c-.067,0-.136-.007-.2-.007A2.914,2.914,0,0,0,3.37,1.81ZM10.6,16.092l-.392-.913H10.2l-.137.006v-.021a.731.731,0,0,1,.148-1.448,1.056,1.056,0,0,1,1.022.516l.581,1.354,1.212-.511-.581-1.354a.647.647,0,0,1,.2-.766,4.754,4.754,0,0,0,.9-.91.661.661,0,0,1,.774-.215l1.377.55.492-1.205-1.377-.55a.65.65,0,0,1-.4-.685,4.682,4.682,0,0,0-.01-1.274.65.65,0,0,1,.394-.689L16.159,7.4l-.517-1.2-1.368.575a.662.662,0,0,1-.774-.2,4.744,4.744,0,0,0-.92-.892.646.646,0,0,1-.217-.766l.556-1.362L12.273,3.3,11.7,3.074l-.556,1.362a.65.65,0,0,1-.243.295,1.007,1.007,0,0,1-.693.212.731.731,0,0,1-.092-1.457l.367-.9a1.3,1.3,0,0,1,.492-.6,1.323,1.323,0,0,1,1.218-.122l.55.22.668.267a1.3,1.3,0,0,1,.717.7,1.279,1.279,0,0,1,.009.995l-.375.917c.153.136.3.281.443.43l.924-.388a1.32,1.32,0,0,1,1.72.688l.515,1.2a1.279,1.279,0,0,1,.008.993,1.3,1.3,0,0,1-.7.709l-.924.388c.012.2.014.411.005.614l.927.371a1.3,1.3,0,0,1,.717.7,1.278,1.278,0,0,1,.009.995l-.492,1.205a1.3,1.3,0,0,1-.492.6,1.324,1.324,0,0,1-1.218.122l-.927-.371c-.138.151-.284.3-.435.438l.392.914a1.279,1.279,0,0,1,.008.993,1.3,1.3,0,0,1-.7.709l-1.214.51a1.32,1.32,0,0,1-1.72-.688ZM9.568,11.669c0-.356.344-.537.626-.68a2.661,2.661,0,0,0,.727-.445,1.693,1.693,0,0,0,0-2.413,1.729,1.729,0,0,0-.727-.429.745.745,0,0,1-.626-.713.686.686,0,0,1,.69-.682,1.61,1.61,0,0,1,.752.292,3.78,3.78,0,0,1,.817.637,2.965,2.965,0,0,1,.644.945,2.954,2.954,0,0,1,0,2.315,2.963,2.963,0,0,1-.644.945,3.542,3.542,0,0,1-.844.646,1.269,1.269,0,0,1-.725.265A.686.686,0,0,1,9.568,11.669Z" transform="translate(-0.5 -0.5)"/></svg>