<svg xmlns="http://www.w3.org/2000/svg" width="17.49" height="16" viewBox="0 0 17.49 16"><defs><style>.a{fill:#0053ff;}</style></defs><path class="a" d="M6.789,15.185l0-.013a.608.608,0,1,1,.475-1.1A6.771,6.771,0,1,0,2.231,7.417l.414-.376a.662.662,0,0,1,.937-.024l0,0a.678.678,0,0,1-.123.939L2.129,9.168a.711.711,0,0,1-.764.152.8.8,0,0,1-.336-.226L-.17,7.752a.679.679,0,0,1-.024-.946l0,0a.662.662,0,0,1,.929.122l.23.258A7.912,7.912,0,0,1,2.341,3.027,8.082,8.082,0,0,1,7.411-.338a8.231,8.231,0,0,1,3.256,0,8.085,8.085,0,0,1,5.07,3.365,7.932,7.932,0,0,1,0,8.946,8.083,8.083,0,0,1-5.07,3.365,8.216,8.216,0,0,1-3.877-.152ZM8.423,8.923a.615.615,0,0,1-.615-.615V3.153a.615.615,0,1,1,1.231,0V7.692h3.538a.615.615,0,0,1,0,1.231Z" transform="translate(0.375 0.5)"/></svg>