<svg xmlns="http://www.w3.org/2000/svg" viewBox="0 0 64.32 76.99"><defs><style>.cls-1{fill:#ffffff;}</style></defs><title>Ресурс 1</title><g id="Слой_2" data-name="Слой 2"><g id="Слой_1-2" data-name="Слой 1"><path class="cls-1" d="M12.28,69.49v5.38a2,2,0,0,0,2.89,1.86l8-3.66,8.13,3.74a2,2,0,0,0,2.9-1.85V69.49H54.42a9.92,9.92,0,0,0,9.9-9.91V9.91A9.91,9.91,0,0,0,54.42,0H9.91A9.92,9.92,0,0,0,0,9.91V59.58a9.92,9.92,0,0,0,9.91,9.91Zm17.84,2.27L24,69a2,2,0,0,0-1.7,0l-6,2.73V59.88H30.12ZM60.24,59.58a5.83,5.83,0,0,1-5.82,5.82H34.2V59.88H55.57a8.69,8.69,0,0,0,4.67-1.36v1.07ZM13.54,4.08H54.42a5.83,5.83,0,0,1,5.82,5.82V41.43a4.68,4.68,0,0,1-4.67,4.67h-42ZM4.08,9.91a5.83,5.83,0,0,1,5.38-5.8v42h-.7a8.69,8.69,0,0,0-4.67,1.36Zm0,49.68V54.86a4.68,4.68,0,0,1,4.67-4.67H55.57a8.69,8.69,0,0,0,4.67-1.36v2.3a4.68,4.68,0,0,1-4.67,4.67h-44a2,2,0,0,0,0,4.08h.67V65.4H9.91A5.83,5.83,0,0,1,4.08,59.58Z"/><path class="cls-1" d="M36,12.89A12.33,12.33,0,1,0,48.3,25.22,12.34,12.34,0,0,0,36,12.89Zm0,20.57a8.24,8.24,0,1,1,8.24-8.24A8.25,8.25,0,0,1,36,33.46Z"/></g></g></svg>