<svg xmlns="http://www.w3.org/2000/svg" viewBox="0 0 70 64.17"><style>.cls-1{fill:#ffffff;}</style><title>2</title><g id="Слой_2" data-name="Слой 2"><g id="Слой_1-2" data-name="Слой 1"><path class="cls-1" d="M52.5,35a5.83,5.83,0,1,1,5.83-5.83A5.83,5.83,0,0,1,52.5,35M35,35a5.83,5.83,0,1,1,5.83-5.83A5.83,5.83,0,0,1,35,35M17.5,35a5.83,5.83,0,1,1,5.83-5.83A5.83,5.83,0,0,1,17.5,35m46.58,9.91A24.26,24.26,0,0,0,70,29.17C70,13.08,54.3,0,35,0S0,13.08,0,29.17,15.7,58.33,35,58.33a24.56,24.56,0,0,0,11.27-2.5c5.4,3.65,12.28,5.8,17.27,7.35,1,.3,1.84.57,2.63.83a2.92,2.92,0,0,0,3-4.83c-5-5-5.17-12-5.06-14.28"/></g></g></svg>