<svg xmlns="http://www.w3.org/2000/svg" viewBox="0 0 50.99 76.99"><defs><style>.cls-1{fill:#fff;}</style></defs><title>3</title><g id="Слой_2" data-name="Слой 2"><g id="Calque_1" data-name="Calque 1"><path class="cls-1" d="M31.66,0H19.34A19.2,19.2,0,0,0,0,19V58A19.2,19.2,0,0,0,19.34,77H31.66A19.2,19.2,0,0,0,51,58V19A19.2,19.2,0,0,0,31.66,0ZM19.34,4H31.66A15.19,15.19,0,0,1,47,19V32.59l-5.73,4.34-3.23-3a16.45,16.45,0,0,0,3.54-6.38,5.45,5.45,0,0,0,3.31-5.18A5.36,5.36,0,0,0,41,17,16.75,16.75,0,0,0,29.54,7.09a1.82,1.82,0,0,1-.07.21A5.32,5.32,0,0,0,29.18,11s0,.08.07.12A12.73,12.73,0,0,1,37,17.83c0,.08.08.13.12.21s.08.2.09.2a6,6,0,0,1,.33.66c.45,1,1.16,2.41,2.36,2a.4.4,0,0,1,.17-.08c.26,0,.77.59.77,1.5a1.52,1.52,0,0,1-.72,1.48l0,0h0c-.29,0-1.66.3-2.39,2.73l-.14.41h0c-.07.22-.15.43-.24.64a12.81,12.81,0,0,1-23.72,0c-.08-.21-.16-.41-.23-.62h0l-.13-.41c-.73-2.42-2.1-2.7-2.39-2.73h0l0,0A1.52,1.52,0,0,1,10,22.37c0-.92.51-1.5.77-1.5a.39.39,0,0,1,.17.08c1.2.36,1.91-1,2.36-2a5,5,0,0,1,.29-.59s.14-.31.14-.3.07-.09.11-.18a12.75,12.75,0,0,1,7.68-6.7,6,6,0,0,0,4.23,5.11,2.06,2.06,0,0,0,.64.1A2,2,0,0,0,28.29,15,2,2,0,0,0,27,12.48a2.38,2.38,0,0,1-1.49-2A9.28,9.28,0,0,1,26,6.59c-.22,0-.43,0-.65,0A16.8,16.8,0,0,0,9.79,17a5.36,5.36,0,0,0-3.85,5.37,5.45,5.45,0,0,0,3.31,5.18,16.43,16.43,0,0,0,3.33,6.14L9.41,36.63,4.07,32.27l0,0V19A15.19,15.19,0,0,1,19.34,4ZM12.55,39.18l3-2.77A16.88,16.88,0,0,0,35,36.6l3,2.79L24.92,49.28ZM31.66,73H19.34A15.19,15.19,0,0,1,4,58V37.41l31.3,25.52a2,2,0,0,0,2.84-.26,2,2,0,0,0-.27-2.8l-9.8-8L47,37.61V58A15.19,15.19,0,0,1,31.66,73Z"/><ellipse class="cls-1" cx="19.37" cy="21.06" rx="2.27" ry="2.24"/><ellipse class="cls-1" cx="31.41" cy="21.06" rx="2.27" ry="2.24"/><path class="cls-1" d="M22.7,27.88a1.75,1.75,0,0,0-2.37.54,1.69,1.69,0,0,0,.54,2.35,9,9,0,0,0,4.45,1.12,10.26,10.26,0,0,0,4.42-1,1.69,1.69,0,0,0,.81-2.27,1.75,1.75,0,0,0-2.31-.8A6.12,6.12,0,0,1,22.7,27.88Z"/></g></g></svg>