<svg xmlns="http://www.w3.org/2000/svg" viewBox="0 0 69.99 69.99"><defs><style>.cls-1{fill:#fff;}</style></defs><title>5</title><g id="Слой_2" data-name="Слой 2"><g id="Слой_1-2" data-name="Слой 1"><path class="cls-1" d="M50.89,0H19.1A19.11,19.11,0,0,0,0,19.1V50.89A19.11,19.11,0,0,0,19.1,70H50.89A19.11,19.11,0,0,0,70,50.89V19.1A19.1,19.1,0,0,0,50.89,0ZM24.21,49c1.28,1.28,2.56,2.55,3.83,3.84a1.8,1.8,0,0,1-.75,3,1.76,1.76,0,0,1-1.83-.48l-3.82-3.81c-.25-.25-.25-.25-.5,0l-3.76,3.76a2,2,0,0,1-1.38.62,1.77,1.77,0,0,1-1.62-1,1.72,1.72,0,0,1,.2-1.88,3.19,3.19,0,0,1,.31-.34L18.56,49c.26-.26.26-.26,0-.54L14.88,44.8a2.09,2.09,0,0,1-.66-1.18,1.82,1.82,0,0,1,.9-1.84,1.75,1.75,0,0,1,2,.17c.66.6,1.28,1.25,1.92,1.88l2.1,2.1c.24.24.24.24.48,0l3.8-3.8a1.8,1.8,0,0,1,2.82,2.24,3.13,3.13,0,0,1-.35.4l-3.67,3.67C24,48.74,24,48.74,24.21,49Zm6.23-26.77a1.76,1.76,0,0,1-1.63,1h-5.4c-.36,0-.36,0-.36.35q0,2.66,0,5.32a2,2,0,0,1-.53,1.42,1.77,1.77,0,0,1-1.88.41,1.73,1.73,0,0,1-1.19-1.47,3.33,3.33,0,0,1,0-.46q0-2.6,0-5.19c0-.37,0-.37-.38-.37H13.86a2.09,2.09,0,0,1-1.3-.37,1.82,1.82,0,0,1-.66-1.93,1.75,1.75,0,0,1,1.55-1.3c.89,0,1.79,0,2.68,0h3c.34,0,.34,0,.34-.34,0-1.79,0-3.58,0-5.37a1.8,1.8,0,0,1,3.58-.4,3.06,3.06,0,0,1,0,.53q0,2.6,0,5.19c0,.38,0,.39.37.39,1.81,0,3.61,0,5.42,0A1.8,1.8,0,0,1,30.44,22.23Zm9.79-1.47a1.75,1.75,0,0,1,1.55-1.3c.89,0,1.79,0,2.68,0H55a2.09,2.09,0,0,1,1.3.37A1.82,1.82,0,0,1,57,21.74,1.75,1.75,0,0,1,55.44,23c-.89,0-1.79,0-2.68,0H42.19a2.09,2.09,0,0,1-1.3-.37A1.81,1.81,0,0,1,40.23,20.76ZM57.12,53.17a1.75,1.75,0,0,1-1.55,1.3c-.89,0-1.79,0-2.68,0H42.33a2.09,2.09,0,0,1-1.3-.37,1.82,1.82,0,0,1-.66-1.93,1.75,1.75,0,0,1,1.55-1.3c.89,0,1.79,0,2.68,0H55.16a2.09,2.09,0,0,1,1.3.37A1.81,1.81,0,0,1,57.12,53.17Zm0-8.14a1.75,1.75,0,0,1-1.55,1.3c-.89,0-1.79,0-2.68,0H42.33A2.09,2.09,0,0,1,41,46,1.82,1.82,0,0,1,40.36,44a1.75,1.75,0,0,1,1.55-1.3c.89,0,1.79,0,2.68,0H55.16a2.09,2.09,0,0,1,1.3.37A1.81,1.81,0,0,1,57.12,45Z"/></g></g></svg>