<svg width="24" height="24" viewBox="0 0 24 24" fill="none" xmlns="http://www.w3.org/2000/svg">
<g clip-path="url(#clip0)">
<path d="M23.0227 6.36875L23.0233 6.37085C23.2642 7.25085 23.3867 8.64857 23.4461 9.86362C23.4754 10.4634 23.4889 11.0056 23.495 11.398C23.4981 11.594 23.4993 11.7524 23.4998 11.8614C23.5 11.9159 23.5 11.958 23.5 11.9864L23.4999 12.0184L23.4999 12.0263L23.4999 12.0282L23.4999 12.0286L23.4999 12.0286V12.0312V12.0312V12.0316L23.4999 12.0335L23.4999 12.0414L23.4998 12.0733C23.4997 12.1015 23.4994 12.1435 23.499 12.1978C23.498 12.3063 23.4961 12.464 23.4923 12.6592C23.4846 13.0499 23.4693 13.59 23.4388 14.1876C23.377 15.3969 23.2547 16.7918 23.0225 17.6751C22.7917 18.5299 22.1166 19.2052 21.2618 19.4357C20.8431 19.5457 20.0661 19.6363 19.0949 19.706C18.1366 19.7748 17.0294 19.8209 15.9762 19.8517C14.9239 19.8825 13.9294 19.8979 13.1978 19.9056C12.8321 19.9095 12.5323 19.9114 12.3241 19.9124C12.22 19.9128 12.1388 19.9131 12.0837 19.9132L12.021 19.9133L12.0051 19.9133L12.0012 19.9133H12.0002H12L12 20.4133L11.9999 19.9133H11.9997H11.9987L11.9948 19.9133L11.9789 19.9133L11.9165 19.9132C11.8615 19.9131 11.7805 19.9128 11.6767 19.9123C11.469 19.9113 11.1699 19.9093 10.8051 19.9053C10.0751 19.8973 9.08261 19.8813 8.03163 19.8493C6.97984 19.8173 5.87353 19.7694 4.91462 19.6979C3.94187 19.6253 3.16267 19.5311 2.74032 19.4167L2.73962 19.4165C1.88382 19.1861 1.20791 18.5102 0.977191 17.6546C0.745301 16.7821 0.622983 15.3878 0.561123 14.1753C0.53057 13.5764 0.515273 13.0345 0.507625 12.6423C0.503803 12.4463 0.501895 12.2879 0.500944 12.1788C0.500468 12.1243 0.500232 12.0821 0.500114 12.0537L0.500012 12.0217L0.5 12.0137L0.499998 12.0118L0.499998 12.0114V12.0114V12.0114V12.0113L0.499998 12.0109L0.5 12.009L0.500012 12.0012L0.500114 11.9693C0.500232 11.941 0.500468 11.899 0.500944 11.8447C0.501895 11.7362 0.503802 11.5785 0.507624 11.3833C0.515272 10.9926 0.530568 10.4525 0.561121 9.85485C0.622942 8.64555 0.745189 7.25069 0.97737 6.36745C1.20825 5.51156 1.90429 4.81682 2.73924 4.58668C3.15825 4.47684 3.93461 4.38637 4.9048 4.31672C5.86314 4.24792 6.97035 4.20182 8.0235 4.17102C9.07587 4.14024 10.0703 4.12483 10.8019 4.11713C11.1676 4.11328 11.4674 4.11136 11.6756 4.11039C11.7797 4.10991 11.8609 4.10967 11.916 4.10955L11.9787 4.10945L11.9946 4.10944L11.9985 4.10943L11.9995 4.10943L11.9997 4.10943L11.9998 3.60944L11.9998 4.10943L12 4.10943L12.001 4.10943L12.0049 4.10944L12.0208 4.10945L12.0835 4.10956C12.1385 4.10968 12.2197 4.10993 12.3238 4.11043C12.532 4.11143 12.8318 4.11343 13.1975 4.11743C13.929 4.12544 14.9233 4.14145 15.9755 4.17345C17.0286 4.20547 18.1355 4.25338 19.0935 4.32488C20.0657 4.39744 20.8416 4.49165 21.2583 4.60568L21.2603 4.60621C22.1162 4.83673 22.7924 5.51278 23.0227 6.36875Z" stroke="white" stroke-width="0.999996"/>
<path d="M23.0227 6.36875L23.0233 6.37085C23.2642 7.25085 23.3867 8.64857 23.4461 9.86362C23.4754 10.4634 23.4889 11.0056 23.495 11.398C23.4981 11.594 23.4993 11.7524 23.4998 11.8614C23.5 11.9159 23.5 11.958 23.5 11.9864L23.4999 12.0184L23.4999 12.0263L23.4999 12.0282L23.4999 12.0286L23.4999 12.0286V12.0312V12.0312V12.0316L23.4999 12.0335L23.4999 12.0414L23.4998 12.0733C23.4997 12.1015 23.4994 12.1435 23.499 12.1978C23.498 12.3063 23.4961 12.464 23.4923 12.6592C23.4846 13.0499 23.4693 13.59 23.4388 14.1876C23.377 15.3969 23.2547 16.7918 23.0225 17.6751C22.7917 18.5299 22.1166 19.2052 21.2618 19.4357C20.8431 19.5457 20.0661 19.6363 19.0949 19.706C18.1366 19.7748 17.0294 19.8209 15.9762 19.8517C14.9239 19.8825 13.9294 19.8979 13.1978 19.9056C12.8321 19.9095 12.5323 19.9114 12.3241 19.9124C12.22 19.9128 12.1388 19.9131 12.0837 19.9132L12.021 19.9133L12.0051 19.9133L12.0012 19.9133H12.0002H12L12 20.4133L11.9999 19.9133H11.9997H11.9987L11.9948 19.9133L11.9789 19.9133L11.9165 19.9132C11.8615 19.9131 11.7805 19.9128 11.6767 19.9123C11.469 19.9113 11.1699 19.9093 10.8051 19.9053C10.0751 19.8973 9.08261 19.8813 8.03163 19.8493C6.97984 19.8173 5.87353 19.7694 4.91462 19.6979C3.94187 19.6253 3.16267 19.5311 2.74032 19.4167L2.73962 19.4165C1.88382 19.1861 1.20791 18.5102 0.977191 17.6546C0.745301 16.7821 0.622983 15.3878 0.561123 14.1753C0.53057 13.5764 0.515273 13.0345 0.507625 12.6423C0.503803 12.4463 0.501895 12.2879 0.500944 12.1788C0.500468 12.1243 0.500232 12.0821 0.500114 12.0537L0.500012 12.0217L0.5 12.0137L0.499998 12.0118L0.499998 12.0114V12.0114V12.0114V12.0113L0.499998 12.0109L0.5 12.009L0.500012 12.0012L0.500114 11.9693C0.500232 11.941 0.500468 11.899 0.500944 11.8447C0.501895 11.7362 0.503802 11.5785 0.507624 11.3833C0.515272 10.9926 0.530568 10.4525 0.561121 9.85485C0.622942 8.64555 0.745189 7.25069 0.97737 6.36745C1.20825 5.51156 1.90429 4.81682 2.73924 4.58668C3.15825 4.47684 3.93461 4.38637 4.9048 4.31672C5.86314 4.24792 6.97035 4.20182 8.0235 4.17102C9.07587 4.14024 10.0703 4.12483 10.8019 4.11713C11.1676 4.11328 11.4674 4.11136 11.6756 4.11039C11.7797 4.10991 11.8609 4.10967 11.916 4.10955L11.9787 4.10945L11.9946 4.10944L11.9985 4.10943L11.9995 4.10943L11.9997 4.10943L11.9998 3.60944L11.9998 4.10943L12 4.10943L12.001 4.10943L12.0049 4.10944L12.0208 4.10945L12.0835 4.10956C12.1385 4.10968 12.2197 4.10993 12.3238 4.11043C12.532 4.11143 12.8318 4.11343 13.1975 4.11743C13.929 4.12544 14.9233 4.14145 15.9755 4.17345C17.0286 4.20547 18.1355 4.25338 19.0935 4.32488C20.0657 4.39744 20.8416 4.49165 21.2583 4.60568L21.2603 4.60621C22.1162 4.83673 22.7924 5.51278 23.0227 6.36875Z" stroke="url(#paint0_linear)" stroke-width="0.999996"/>
<path d="M10.1055 9.27855L14.8507 12.0116L10.1055 14.7446V9.27855Z" stroke="white" stroke-width="0.999996"/>
<path d="M10.1055 9.27855L14.8507 12.0116L10.1055 14.7446V9.27855Z" stroke="url(#paint1_linear)" stroke-width="0.999996"/>
</g>
<defs>
<linearGradient id="paint0_linear" x1="12" y1="3.60944" x2="12" y2="20.4133" gradientUnits="userSpaceOnUse">
<stop stop-color="white"/>
<stop offset="1" stop-color="white" stop-opacity="0"/>
</linearGradient>
<linearGradient id="paint1_linear" x1="12.729" y1="8.41357" x2="12.729" y2="15.6096" gradientUnits="userSpaceOnUse">
<stop stop-color="white"/>
<stop offset="1" stop-color="white" stop-opacity="0"/>
</linearGradient>
<clipPath id="clip0">
<rect width="24" height="24" fill="white"/>
</clipPath>
</defs>
</svg>
