<svg width="24" height="24" viewBox="0 0 24 24" fill="none" xmlns="http://www.w3.org/2000/svg">
<path d="M17.8984 10.9141H14.8438V9.53125H17.8984H18.3984V9.03125V5.51562V5.01562H17.8984H14.3438C12.129 5.01562 10.3281 6.81648 10.3281 9.03125V10.9141H8.48438H7.98438V11.4141V14.9297V15.4297H8.48438H10.3281V21.5H4.92969C3.59053 21.5 2.5 20.4095 2.5 19.0703V4.92969C2.5 3.59053 3.59053 2.5 4.92969 2.5H19.0703C20.4095 2.5 21.5 3.59053 21.5 4.92969V19.0703C21.5 20.4095 20.4095 21.5 19.0703 21.5H14.8438V15.4297H17.3125H17.7361L17.8057 15.0119L18.3916 11.4963L18.4887 10.9141H17.8984Z" stroke="white"/>
<path d="M17.8984 10.9141H14.8438V9.53125H17.8984H18.3984V9.03125V5.51562V5.01562H17.8984H14.3438C12.129 5.01562 10.3281 6.81648 10.3281 9.03125V10.9141H8.48438H7.98438V11.4141V14.9297V15.4297H8.48438H10.3281V21.5H4.92969C3.59053 21.5 2.5 20.4095 2.5 19.0703V4.92969C2.5 3.59053 3.59053 2.5 4.92969 2.5H19.0703C20.4095 2.5 21.5 3.59053 21.5 4.92969V19.0703C21.5 20.4095 20.4095 21.5 19.0703 21.5H14.8438V15.4297H17.3125H17.7361L17.8057 15.0119L18.3916 11.4963L18.4887 10.9141H17.8984Z" stroke="url(#paint0_linear)"/>
<defs>
<linearGradient id="paint0_linear" x1="12" y1="2" x2="12" y2="22" gradientUnits="userSpaceOnUse">
<stop stop-color="white"/>
<stop offset="1" stop-color="white" stop-opacity="0"/>
</linearGradient>
</defs>
</svg>
