<svg width="50" height="50" viewBox="0 0 50 50" fill="none" xmlns="http://www.w3.org/2000/svg">
<path fill-rule="evenodd" clip-rule="evenodd" d="M0 25C0 11.1929 11.1929 0 25 0C38.8071 0 50 11.1929 50 25C50 38.8071 38.8071 50 25 50C11.1929 50 0 38.8071 0 25Z" fill="#40474E"/>
<path fill-rule="evenodd" clip-rule="evenodd" d="M25.0026 11.6667C21.3814 11.6667 20.927 11.6826 19.5047 11.7473C18.0853 11.8123 17.1164 12.037 16.2686 12.3668C15.3916 12.7073 14.6477 13.1629 13.9066 13.9043C13.1649 14.6454 12.7094 15.3893 12.3677 16.266C12.0371 17.114 11.8121 18.0832 11.7482 19.5021C11.6846 20.9243 11.668 21.3791 11.668 25.0002C11.668 28.6214 11.6841 29.0744 11.7485 30.4967C11.8138 31.9161 12.0385 32.885 12.368 33.7328C12.7088 34.6098 13.1644 35.3537 13.9058 36.0948C14.6466 36.8365 15.3905 37.2931 16.2669 37.6337C17.1152 37.9634 18.0844 38.1881 19.5036 38.2531C20.9258 38.3179 21.38 38.3337 25.0009 38.3337C28.6223 38.3337 29.0754 38.3179 30.4976 38.2531C31.9171 38.1881 32.8871 37.9634 33.7354 37.6337C34.6121 37.2931 35.3549 36.8365 36.0957 36.0948C36.8374 35.3537 37.293 34.6098 37.6346 33.7331C37.9624 32.885 38.1874 31.9158 38.2541 30.4969C38.318 29.0747 38.3346 28.6214 38.3346 25.0002C38.3346 21.3791 38.318 20.9246 38.2541 19.5024C38.1874 18.0829 37.9624 17.114 37.6346 16.2662C37.293 15.3893 36.8374 14.6454 36.0957 13.9043C35.354 13.1626 34.6124 12.707 33.7346 12.3668C32.8846 12.037 31.9151 11.8123 30.4957 11.7473C29.0734 11.6826 28.6206 11.6667 24.9984 11.6667H25.0026ZM23.8064 14.0696C24.1614 14.069 24.5575 14.0696 25.0026 14.0696C28.5626 14.0696 28.9845 14.0823 30.3904 14.1462C31.6904 14.2057 32.396 14.4229 32.866 14.6054C33.4882 14.8471 33.9318 15.136 34.3982 15.6026C34.8649 16.0693 35.1538 16.5137 35.396 17.136C35.5785 17.6054 35.796 18.311 35.8552 19.611C35.9191 21.0166 35.9329 21.4388 35.9329 24.9972C35.9329 28.5555 35.9191 28.9778 35.8552 30.3833C35.7957 31.6833 35.5785 32.3889 35.396 32.8584C35.1543 33.4806 34.8649 33.9236 34.3982 34.39C33.9315 34.8567 33.4885 35.1456 32.866 35.3873C32.3965 35.5706 31.6904 35.7873 30.3904 35.8467C28.9848 35.9106 28.5626 35.9245 25.0026 35.9245C21.4422 35.9245 21.0203 35.9106 19.6147 35.8467C18.3147 35.7867 17.6091 35.5695 17.1389 35.387C16.5166 35.1453 16.0722 34.8564 15.6055 34.3898C15.1388 33.9231 14.8499 33.4798 14.6077 32.8572C14.4252 32.3878 14.2077 31.6822 14.1486 30.3822C14.0847 28.9767 14.0719 28.5544 14.0719 24.9938C14.0719 21.4332 14.0847 21.0132 14.1486 19.6077C14.208 18.3077 14.4252 17.6021 14.6077 17.1321C14.8494 16.5099 15.1388 16.0654 15.6055 15.5987C16.0722 15.1321 16.5166 14.8432 17.1389 14.6009C17.6089 14.4176 18.3147 14.2009 19.6147 14.1412C20.8447 14.0857 21.3214 14.069 23.8064 14.0662V14.0696ZM32.1198 16.2835C31.2365 16.2835 30.5198 16.9993 30.5198 17.8829C30.5198 18.7663 31.2365 19.4829 32.1198 19.4829C33.0032 19.4829 33.7199 18.7663 33.7199 17.8829C33.7199 16.9996 33.0032 16.2835 32.1198 16.2835ZM25.0026 18.1529C21.2211 18.1529 18.1553 21.2188 18.1553 25.0002C18.1553 28.7816 21.2211 31.8461 25.0026 31.8461C28.784 31.8461 31.8487 28.7816 31.8487 25.0002C31.8487 21.2188 28.784 18.1529 25.0026 18.1529ZM25.0026 20.5557C27.457 20.5557 29.447 22.5455 29.447 25.0002C29.447 27.4547 27.457 29.4447 25.0026 29.4447C22.5478 29.4447 20.5581 27.4547 20.5581 25.0002C20.5581 22.5455 22.5478 20.5557 25.0026 20.5557Z" fill="#F9F9FA"/>
</svg>
